<svg width="64" height="64" xmlns="http://www.w3.org/2000/svg" xmlns:xlink="http://www.w3.org/1999/xlink">
  <defs/>
  <g>
    <path stroke="none" fill="#A1D6E7" d="M33 7 Q33.75 7 34.45 7.35 36 8 36.7 9.8 41.95 23.7 36.5 36.25 31.55 47.7 35.75 60.85 L36.65 63.3 36.9 64 26.2 64 Q24.35 52.65 29.25 40.65 34.2 28.5 30.2 15.95 L29.4 13.65 Q28.75 11.85 29.3 10.05 29.9 8.2 31.4 7.4 L33 7 M47.9 24.3 L48.05 24.35 Q49.55 25.05 50.15 26.6 50.7 28.1 50.05 29.65 L49.25 31.6 Q45.25 42.3 50.2 52.65 52.95 58.45 53.6 64 L45.3 64 Q46.6 56 42.95 48.9 37.55 38.2 42.75 26.4 43.45 24.85 45 24.3 46.4 23.75 47.9 24.3 M19.5 21.1 L18.7 23.1 Q14.7 33.8 19.65 44.1 24.55 54.35 22.7 64 L12 64 12.25 63.4 13.15 61.35 Q17.35 50.1 12.4 40.35 6.95 29.65 12.2 17.85 12.9 16.3 14.45 15.75 L17.5 15.8 18.2 16.2 Q19.15 16.9 19.6 18.05 20.15 19.55 19.5 21.1"/>
  </g>
</svg>