<svg width="64" height="64" xmlns="http://www.w3.org/2000/svg" xmlns:xlink="http://www.w3.org/1999/xlink">
  <defs/>
  <g>
    <path stroke="none" fill="#A1D6E7" d="M40.3 7.05 Q40.55 6.75 40.85 6.75 L45.6 6.75 Q45.95 6.75 46.15 7.05 L44.4 13.15 Q38.8 34.05 38.95 54.4 39 59.2 39.35 64 L23.9 64 24.1 59.45 Q24.35 44.85 19.75 29.85 L20.15 29.3 Q20.5 28.75 21.3 28.75 L24.15 28.75 Q24.7 28.75 25.2 29.25 L25.05 29.05 25.8 30 25.9 30.2 Q29.8 42.35 31 54.55 32.15 33.85 38.15 13.15 L39.9 7.55 40.3 7.05 M53.55 35.7 L53.75 36.1 Q50 48.5 50.25 60.65 L50.4 64 44.05 64 Q44.3 50.25 48.75 36.45 L48.85 36.3 49.1 35.85 49.45 35.5 49.35 35.65 Q49.75 35.25 50.2 35.25 L52.6 35.25 Q53.25 35.25 53.55 35.7 M8.6 64 L8.85 61.05 Q9.1 55.3 7.35 49.5 L7.6 49.25 Q7.9 48.75 8.55 48.75 L10.95 48.75 11.7 49.05 12.3 49.75 12.4 50 Q14.65 57 15.8 64 L8.6 64"/>
  </g>
</svg>