<svg width="64" height="64" xmlns="http://www.w3.org/2000/svg" xmlns:xlink="http://www.w3.org/1999/xlink">
  <defs/>
  <g>
    <path stroke="none" fill="#FFFFFF" d="M40.55 32 Q40.55 28.45 38.05 26 35.55 23.45 32 23.45 28.5 23.45 25.95 26 23.45 28.45 23.45 32 23.45 35.55 25.95 38.05 28.5 40.55 32 40.55 35.55 40.55 38.05 38.05 40.55 35.55 40.55 32 M35.55 20.5 Q38.3 21.35 40.5 23.5 44 27 44 32 44 37 40.5 40.5 37 44 32 44 27 44 23.5 40.5 20 37 20 32 20 27 23.5 23.5 25.7 21.35 28.5 20.5 L32 20 35.55 20.5"/>
  </g>
</svg>