<svg width="64" height="64" xmlns="http://www.w3.org/2000/svg" xmlns:xlink="http://www.w3.org/1999/xlink">
  <defs/>
  <g>
    <path stroke="none" fill="#FFFFFF" d="M32.9 29.15 L32 29 31.15 29.15 Q30.45 29.35 29.9 29.9 29 30.75 29 32 29 33.25 29.9 34.15 30.75 35 32 35 33.25 35 34.15 34.15 35 33.25 35 32 35 30.75 34.15 29.9 L32.9 29.15 M33.8 26.25 Q35.15 26.7 36.25 27.75 38 29.5 38 32 38 34.5 36.25 36.25 34.5 38 32 38 29.5 38 27.75 36.25 26 34.5 26 32 26 29.5 27.75 27.75 28.85 26.7 30.25 26.25 L32 26 33.8 26.25"/>
  </g>
</svg>