<svg width="64" height="64" xmlns="http://www.w3.org/2000/svg" xmlns:xlink="http://www.w3.org/1999/xlink">
  <defs/>
  <g>
    <path stroke="none" fill="#A39C7D" d="M31.05 30.6 L31.05 26.4 33.3 25.95 33.5 30.5 31.05 30.6 M33.6 32.85 L33.8 37.6 32.55 37.35 30.2 38.95 29.9 39.25 29.8 39.7 29.95 40.15 31.95 42.95 Q32.1 43.15 32.35 43.15 L32.85 43.15 Q36.25 41.7 38.95 38.25 L36.3 37.95 36 32.85 38.45 32.85 44.1 38.5 44.5 38.5 Q47.3 38.5 49.25 36.5 51.25 34.5 51.25 31.7 51.25 28.9 49.25 26.9 47.3 24.95 44.5 24.95 L44.1 25 38.8 30.35 35.85 30.45 35.6 25.6 42.75 25.05 43.15 23.5 43.1 22.9 42.65 22.5 Q35.9 19.6 29.65 21.4 L29.3 21.7 29.2 22.25 29.85 26.65 28.9 26.9 28.65 27 28.85 30.7 22.25 30.9 Q22.9 29.2 26.3 27.8 L23.45 25.35 Q21.15 23.4 18.85 25.35 L16.35 27.5 Q21.85 31.85 16.35 35.65 L18.85 37.8 Q21.15 39.75 23.45 37.8 L26.1 35.55 Q23.2 34.3 22.4 32.85 L29 32.85 29.2 36.6 31.05 37.05 31.05 32.85 33.6 32.85 M45.15 23 Q48.35 23.2 50.7 25.5 53.25 28.05 53.25 31.7 53.25 35.35 50.7 37.95 L50.7 37.9 Q48.15 40.5 44.5 40.5 L44.1 40.5 44 40.5 39.85 40.3 Q37.15 43.4 33.9 44.9 33 45.6 31.75 45.1 30.9 44.9 30.35 44.15 L28.35 41.35 28.15 41.05 27.85 40.1 27.8 39.7 28.05 38.5 28.1 38.35 26.55 37.85 24.75 39.35 Q21.15 42.35 17.55 39.35 L15.05 37.2 Q14.6 36.75 14.45 36.15 14.25 35.55 14.5 34.95 14.7 34.35 15.25 34 16.9 32.85 17.1 31.75 16.9 30.5 15.1 29.1 L14.45 28.15 Q14.25 27.55 14.45 26.95 14.6 26.35 15.05 26 L17.55 23.85 Q21.15 20.8 24.75 23.85 L26.75 25.55 27.65 25.25 27.25 22.55 27.2 22.25 27.4 21.1 27.7 20.5 Q28.15 19.9 28.75 19.6 L29.1 19.5 Q35.9 17.5 43.3 20.6 44.35 20.95 44.9 22 L45 22.3 45.15 23 M48.5 32.4 Q47.95 33.05 47.1 33.05 46.3 33.05 45.7 32.4 45.1 31.85 45.1 31 45.1 30.2 45.7 29.6 46.3 29 47.1 29 47.95 29 48.5 29.6 49.15 30.2 49.15 31 49.15 31.85 48.5 32.4"/>
    <path stroke="none" fill="#EEE4B7" d="M48.5 32.4 Q49.15 31.85 49.15 31 49.15 30.2 48.5 29.6 47.95 29 47.1 29 46.3 29 45.7 29.6 45.1 30.2 45.1 31 45.1 31.85 45.7 32.4 46.3 33.05 47.1 33.05 47.95 33.05 48.5 32.4 M33.5 30.5 L33.3 25.95 31.05 26.4 31.05 30.6 31.05 32.85 31.05 37.05 29.2 36.6 29 32.85 28.85 30.7 28.65 27 28.9 26.9 29.85 26.65 29.2 22.25 29.3 21.7 29.65 21.4 Q35.9 19.6 42.65 22.5 L43.1 22.9 43.15 23.5 42.75 25.05 35.6 25.6 35.85 30.45 36 32.85 36.3 37.95 38.95 38.25 Q36.25 41.7 32.85 43.15 L32.35 43.15 Q32.1 43.15 31.95 42.95 L29.95 40.15 29.8 39.7 29.9 39.25 30.2 38.95 32.55 37.35 33.8 37.6 33.6 32.85 33.5 30.5 M38.8 30.35 L44.1 25 44.5 24.95 Q47.3 24.95 49.25 26.9 51.25 28.9 51.25 31.7 51.25 34.5 49.25 36.5 47.3 38.5 44.5 38.5 L44.1 38.5 38.45 32.85 37.35 31.75 38.8 30.35 M22.4 32.85 Q23.2 34.3 26.1 35.55 L23.45 37.8 Q21.15 39.75 18.85 37.8 L16.35 35.65 Q21.85 31.85 16.35 27.5 L18.85 25.35 Q21.15 23.4 23.45 25.35 L26.3 27.8 Q22.9 29.2 22.25 30.9 L22.1 31.7 Q22.1 32.3 22.4 32.85"/>
    <path stroke="none" fill="#C2B995" d="M22.4 32.85 Q22.1 32.3 22.1 31.7 L22.25 30.9 28.85 30.7 29 32.85 22.4 32.85 M33.5 30.5 L33.6 32.85 31.05 32.85 31.05 30.6 33.5 30.5 M36 32.85 L35.85 30.45 38.8 30.35 37.35 31.75 38.45 32.85 36 32.85"/>
  </g>
</svg>