<svg width="64" height="64" xmlns="http://www.w3.org/2000/svg" xmlns:xlink="http://www.w3.org/1999/xlink">
  <defs/>
  <g>
    <path stroke="none" fill="#A39C7D" d="M24.2 24.25 L25.2 23.9 Q25 23.05 25.25 22.3 25.45 21.25 26.4 20.6 35.25 14.05 46.75 14 48 14 48.9 14.8 L49.05 14.9 Q49.9 15.7 49.9 17.05 L50.1 22.9 Q51.6 23.55 53.35 24.5 L53.35 24.55 Q58.35 27.4 61.1 30 L61.1 30.05 Q63.6 32.3 61.55 35.55 60.25 37.6 56.25 40.15 48.55 45 41.2 45.05 L41.15 45.05 40.95 45.05 39.8 44.7 39.1 43.75 Q37.65 39.85 37.3 36 L37.2 34.75 36.85 42.8 36.5 43.85 Q36.15 44.3 35.65 44.55 L34.6 44.7 31.8 44.3 Q31.05 44.15 30.55 43.6 30.05 43 30.1 42.25 L30.35 36.15 28.65 36.2 28.5 40.8 Q28.5 41.45 28.1 41.95 L27.1 42.65 Q26.5 42.85 25.9 42.65 L25 42.35 24.9 42.3 24.15 42 24.2 42 23.05 41.45 22.25 40.7 22 39.65 22.05 39.05 21.7 39.35 17.4 42.1 Q15.05 43.55 12.6 43.55 10.65 43.65 8.75 41.9 8.2 41.35 8.1 40.6 8 39.85 8.5 39.25 13.1 32.9 8.5 26.55 8.05 25.9 8.1 25.2 8.15 24.45 8.75 23.9 10.65 22.05 12.6 22.15 15.05 22.1 17.4 23.7 L22.05 26.7 22.5 27.1 22.5 26.25 Q22.5 25.7 22.85 25.25 23.1 24.75 23.6 24.5 23.85 24.35 24.2 24.25 M35.35 31.2 L35.65 23.5 32.75 23.9 32.5 31.35 26.8 31.6 27 25.35 24.95 26.1 24.5 26.3 24.3 31.7 18.25 31.95 Q18.75 29.95 20.95 28.35 L16.3 25.35 Q14.5 24.15 12.6 24.15 11.35 24.15 10.1 25.35 15.6 32.9 10.1 40.4 11.35 41.55 12.6 41.55 14.5 41.55 16.3 40.4 L20.6 37.65 Q18.8 36.2 18.3 34.5 L24.2 34.35 24 39.7 24.95 40.15 25.7 40.45 26.5 40.75 26.7 34.25 32.4 34.1 32.1 42.3 34.85 42.7 35.2 34.05 39.15 33.95 Q39.3 38.45 40.95 43.05 L41.15 43.05 Q48 42.95 55.15 38.45 62.25 33.95 59.7 31.45 57.1 29 52.35 26.25 49.9 24.9 47.9 24.2 45.95 23.45 44.35 23.4 L40.95 23.2 40.6 24.25 Q39.7 26.8 39.4 29.4 L39.2 31.05 35.35 31.2 M27.55 22.2 Q27.2 22.45 27.15 22.85 L27.2 23.6 27.45 24.15 Q38.45 20.6 47.9 21.7 L47.9 17.1 47.6 16.3 Q47.25 16 46.75 16 35.9 16.05 27.55 22.2 M52.5 31.85 L52.05 32.9 Q51.6 33.35 50.95 33.35 50.35 33.35 49.9 32.9 49.45 32.45 49.45 31.85 49.45 31.25 49.9 30.8 50.35 30.35 50.95 30.35 51.6 30.35 52.05 30.8 52.5 31.25 52.5 31.85 M22.4 29.8 L22.4 29.75 22.35 29.8 22.4 29.8"/>
    <path stroke="none" fill="#EEE4B7" d="M27.55 22.2 Q35.9 16.05 46.75 16 47.25 16 47.6 16.3 L47.9 17.1 47.9 21.7 Q38.45 20.6 27.45 24.15 L27.2 23.6 27.15 22.85 Q27.2 22.45 27.55 22.2 M32.5 31.35 L32.75 23.9 35.65 23.5 35.35 31.2 35.2 34.05 34.85 42.7 32.1 42.3 32.4 34.1 32.5 31.35 M39.2 31.05 L39.4 29.4 Q39.7 26.8 40.6 24.25 L40.95 23.2 44.35 23.4 Q45.95 23.45 47.9 24.2 49.9 24.9 52.35 26.25 57.1 29 59.7 31.45 62.25 33.95 55.15 38.45 48 42.95 41.15 43.05 L40.95 43.05 Q39.3 38.45 39.15 33.95 39.1 32.45 39.2 31.05 M26.7 34.25 L26.5 40.75 25.7 40.45 24.95 40.15 24 39.7 24.2 34.35 24.3 31.7 24.5 26.3 24.95 26.1 27 25.35 26.8 31.6 26.7 34.25 M18.3 34.5 Q18.8 36.2 20.6 37.65 L16.3 40.4 Q14.5 41.55 12.6 41.55 11.35 41.55 10.1 40.4 15.6 32.9 10.1 25.35 11.35 24.15 12.6 24.15 14.5 24.15 16.3 25.35 L20.95 28.35 Q18.75 29.95 18.25 31.95 18.1 32.5 18.1 33.15 L18.3 34.5 M52.5 31.85 Q52.5 31.25 52.05 30.8 51.6 30.35 50.95 30.35 50.35 30.35 49.9 30.8 49.45 31.25 49.45 31.85 49.45 32.45 49.9 32.9 50.35 33.35 50.95 33.35 51.6 33.35 52.05 32.9 L52.5 31.85"/>
    <path stroke="none" fill="#C2B995" d="M35.35 31.2 L39.2 31.05 Q39.1 32.45 39.15 33.95 L35.2 34.05 35.35 31.2 M32.4 34.1 L26.7 34.25 26.8 31.6 32.5 31.35 32.4 34.1 M24.2 34.35 L18.3 34.5 18.1 33.15 Q18.1 32.5 18.25 31.95 L24.3 31.7 24.2 34.35"/>
  </g>
</svg>