<svg width="64" height="64" xmlns="http://www.w3.org/2000/svg" xmlns:xlink="http://www.w3.org/1999/xlink">
  <defs/>
  <g>
    <path stroke="none" fill="#EEE4B7" d="M47.9 17.1 L47.9 21.7 Q38.45 20.6 27.45 24.15 L27.2 23.6 27.15 22.85 Q27.2 22.45 27.55 22.2 35.9 16.05 46.75 16 47.25 16 47.6 16.3 L47.9 17.1 M32.5 31.35 L32.75 23.9 35.65 23.5 35.35 31.2 35.2 34.05 34.85 42.7 32.1 42.3 32.4 34.1 32.5 31.35 M39.2 31.05 L39.4 29.4 Q39.7 26.8 40.6 24.25 L40.95 23.2 44.35 23.4 Q45.95 23.45 47.9 24.2 49.9 24.9 52.35 26.25 57.1 29 59.7 31.45 62.25 33.95 55.15 38.45 48 42.95 41.15 43.05 L40.95 43.05 Q39.3 38.45 39.15 33.95 39.1 32.45 39.2 31.05 M26.7 34.25 L26.5 40.75 25.7 40.45 24.95 40.15 24 39.7 24.2 34.35 24.3 31.7 24.5 26.3 24.95 26.1 27 25.35 26.8 31.6 26.7 34.25 M18.3 34.5 Q18.8 36.2 20.6 37.65 L16.3 40.4 Q14.5 41.55 12.6 41.55 11.35 41.55 10.1 40.4 15.6 32.9 10.1 25.35 11.35 24.15 12.6 24.15 14.5 24.15 16.3 25.35 L20.95 28.35 Q18.75 29.95 18.25 31.95 18.1 32.5 18.1 33.15 L18.3 34.5 M50.95 30.35 Q50.35 30.35 49.9 30.8 49.45 31.25 49.45 31.85 49.45 32.45 49.9 32.9 50.35 33.35 50.95 33.35 51.6 33.35 52.05 32.9 L52.5 31.85 Q52.5 31.25 52.05 30.8 51.6 30.35 50.95 30.35"/>
    <path stroke="none" fill="#C2B995" d="M35.35 31.2 L39.2 31.05 Q39.1 32.45 39.15 33.95 L35.2 34.05 35.35 31.2 M32.4 34.1 L26.7 34.25 26.8 31.6 32.5 31.35 32.4 34.1 M24.2 34.35 L18.3 34.5 18.1 33.15 Q18.1 32.5 18.25 31.95 L24.3 31.7 24.2 34.35"/>
    <path stroke="none" fill="#A39C7D" d="M50.95 30.35 Q51.6 30.35 52.05 30.8 52.5 31.25 52.5 31.85 L52.05 32.9 Q51.6 33.35 50.95 33.35 50.35 33.35 49.9 32.9 49.45 32.45 49.45 31.85 49.45 31.25 49.9 30.8 50.35 30.35 50.95 30.35"/>
  </g>
</svg>