<svg width="64" height="64" xmlns="http://www.w3.org/2000/svg" xmlns:xlink="http://www.w3.org/1999/xlink">
  <defs/>
  <g>
    <path stroke="none" fill="#216693" d="M61.55 35.55 Q60.25 37.6 56.25 40.15 48.8 44.8 41.7 45.05 L40.3 48.25 Q39.85 49.3 38.9 49.75 L37.1 50.05 37.05 50.05 Q28.95 48.65 24.05 44 L24 44 Q23.25 43.25 23.15 42.25 L23.1 41.5 Q21.65 40.8 20.5 40.1 L17.4 42.1 Q15.05 43.55 12.6 43.55 10.65 43.65 8.75 41.9 L8.7 41.85 3.5 36.7 Q1.55 34.8 1.7 32.9 1.6 30.95 3.5 29.1 L8.75 23.9 Q10.65 22.05 12.6 22.15 15.05 22.1 17.4 23.7 L20.9 25.95 Q22.3 25.05 24.2 24.25 L25.2 23.85 Q25 23.05 25.25 22.3 25.45 21.25 26.4 20.6 35.25 14.05 46.75 14 48 14 48.9 14.8 L49.05 14.9 Q49.9 15.7 49.9 17.1 L49.9 22.85 Q51.5 23.5 53.35 24.5 L53.35 24.55 Q58.35 27.4 61.1 30 L61.1 30.05 Q63.6 32.3 61.55 35.55 M47.9 24.2 L47.9 17.1 47.6 16.3 Q47.25 16 46.75 16 35.9 16.05 27.55 22.2 27.2 22.45 27.15 22.85 L27.2 23.6 27.9 25.05 Q26.35 25.5 24.95 26.1 22.5 27.15 20.95 28.35 L16.3 25.35 Q14.5 24.15 12.6 24.15 11.35 24.15 10.1 25.35 L4.9 30.5 Q2.45 32.85 4.9 35.25 L10.1 40.4 Q11.35 41.55 12.6 41.55 14.5 41.55 16.3 40.4 L20.6 37.65 Q22.25 39 24.95 40.15 L25.7 40.45 25.2 41.4 Q25.05 41.6 25.15 41.95 L25.4 42.55 Q29.95 46.8 37.35 48.05 L38 47.95 38.45 47.45 40.25 43.35 40.35 43.05 40.6 43.05 40.95 43.05 41.15 43.05 Q48 42.95 55.15 38.45 62.25 33.95 59.7 31.45 57.1 29 52.35 26.25 49.9 24.9 47.9 24.2"/>
    <path stroke="none" fill="#2F8AC6" d="M47.9 24.2 Q45.95 23.45 44.35 23.4 L40.95 23.2 40.6 23.2 Q33.45 23.3 27.9 25.05 L27.2 23.6 27.15 22.85 Q27.2 22.45 27.55 22.2 35.9 16.05 46.75 16 47.25 16 47.6 16.3 L47.9 17.1 47.9 24.2 M40.35 43.05 L40.25 43.35 38.45 47.45 38 47.95 37.35 48.05 Q29.95 46.8 25.4 42.55 L25.15 41.95 Q25.05 41.6 25.2 41.4 L25.7 40.45 Q31.9 42.9 40.35 43.05 M20.6 37.65 L16.3 40.4 Q14.5 41.55 12.6 41.55 11.35 41.55 10.1 40.4 L4.9 35.25 Q2.45 32.85 4.9 30.5 L10.1 25.35 Q11.35 24.15 12.6 24.15 14.5 24.15 16.3 25.35 L20.95 28.35 Q18.1 30.5 18.1 33.15 18.1 35.6 20.6 37.65 M39.25 35.45 L41.85 34.95 42.4 35 42.95 35.4 43.05 35.95 42.85 39.6 42.6 40.2 41.9 40.55 40.2 40.7 30.45 40.05 29.9 39.75 Q29.7 39.55 29.65 39.2 L29.35 37.1 29.5 36.55 29.9 36.1 30.45 35.95 39.25 35.45"/>
    <path stroke="none" fill="#37A5EE" d="M39.25 35.45 Q38.95 32.4 39.4 29.4 39.8 26.25 40.95 23.2 L44.35 23.4 Q45.95 23.45 47.9 24.2 49.9 24.9 52.35 26.25 57.1 29 59.7 31.45 62.25 33.95 55.15 38.45 48 42.95 41.15 43.05 L40.95 43.05 40.2 40.7 41.9 40.55 42.6 40.2 42.85 39.6 43.05 35.95 42.95 35.4 42.4 35 41.85 34.95 39.25 35.45 M50.95 30.35 Q50.35 30.35 49.9 30.8 49.45 31.25 49.45 31.85 49.45 32.45 49.9 32.9 50.35 33.35 50.95 33.35 51.6 33.35 52.05 32.9 L52.5 31.85 Q52.5 31.25 52.05 30.8 51.6 30.35 50.95 30.35"/>
    <path stroke="none" fill="#3498DB" d="M40.95 43.05 L40.6 43.05 40.35 43.05 Q31.9 42.9 25.7 40.45 L24.95 40.15 Q22.25 39 20.6 37.65 18.1 35.6 18.1 33.15 18.1 30.5 20.95 28.35 22.5 27.15 24.95 26.1 26.35 25.5 27.9 25.05 33.45 23.3 40.6 23.2 L40.95 23.2 Q39.8 26.25 39.4 29.4 38.95 32.4 39.25 35.45 L30.45 35.95 29.9 36.1 29.5 36.55 29.35 37.1 29.65 39.2 Q29.7 39.55 29.9 39.75 L30.45 40.05 40.2 40.7 40.95 43.05"/>
    <path stroke="none" fill="#2C84BF" d="M50.95 30.35 Q51.6 30.35 52.05 30.8 52.5 31.25 52.5 31.85 L52.05 32.9 Q51.6 33.35 50.95 33.35 50.35 33.35 49.9 32.9 49.45 32.45 49.45 31.85 49.45 31.25 49.9 30.8 50.35 30.35 50.95 30.35"/>
  </g>
</svg>