<svg width="64" height="64" xmlns="http://www.w3.org/2000/svg" xmlns:xlink="http://www.w3.org/1999/xlink">
  <defs/>
  <g>
    <path stroke="none" fill="#FCB245" d="M26.6 27.05 L26.25 26.35 Q26.05 25.85 26.2 25.45 26.25 25.05 26.65 24.7 36.25 17.7 48.65 17.6 49.25 17.6 49.65 17.95 50 18.3 50 18.9 L50 22.7 Q45.95 21.5 40.55 22.7 L39.65 22.9 38.65 23.2 26.85 26.95 26.6 27.05 M43.2 43.8 L43 45.05 42.55 45.85 Q42.2 46.2 41.75 46.2 31.35 47.25 23.8 43.15 L23.2 42.45 Q22.95 42.05 23.1 41.7 L23.85 38.15 Q25.45 39.45 28 40.7 33.15 43.2 40 43.8 L43.2 43.8"/>
    <path stroke="none" fill="#A36000" d="M43.2 43.8 Q46.6 43.5 49.5 42 L50.55 41.4 53.85 38.85 Q59.95 33.75 58.35 29.85 56.75 26.05 52.75 23.85 51.45 23.15 50 22.7 L50 18.9 Q50 18.3 49.65 17.95 49.25 17.6 48.65 17.6 36.25 17.7 26.65 24.7 26.25 25.05 26.2 25.45 26.05 25.85 26.25 26.35 L26.6 27.05 Q24.85 27.65 23.65 28.45 L20.25 24.8 Q19.1 23.55 17.95 23.55 16.2 23.55 14.55 24.8 L7.15 29.95 Q3.55 32.25 7.15 34.65 L14.55 39.75 Q16.2 40.9 17.95 40.9 19.1 40.9 20.25 39.75 L22.75 37.15 23.85 38.15 23.1 41.7 Q22.95 42.05 23.2 42.45 L23.8 43.15 Q31.35 47.25 41.75 46.2 42.2 46.2 42.55 45.85 L43 45.05 43.2 43.8 M48.65 15.6 Q50.05 15.6 51 16.45 L51.1 16.55 Q52 17.4 52 18.9 L52 21.3 Q52.9 21.65 53.75 22.1 58.35 24.65 60.2 29.1 62.65 34.1 55.15 40.4 L51.7 43.05 51.6 43.15 50.45 43.75 50.4 43.8 Q47.85 45.1 44.95 45.6 44.65 46.7 43.85 47.4 L44 47.3 Q43.1 48.15 41.95 48.2 31 49.3 23 45 21.8 44.45 21.35 43.25 20.95 42.5 21 41.8 19.5 43 17.95 42.9 15.6 42.95 13.4 41.4 L13.45 41.4 6.05 36.3 6.05 36.35 Q3.1 34.35 3.35 32.3 3.1 30.15 6.1 28.3 L6 28.3 13.4 23.15 13.35 23.2 Q15.6 21.5 17.95 21.55 19.85 21.45 21.75 23.45 L24.15 26 24.15 25.9 24.25 24.95 Q24.4 24 25.35 23.2 L25.5 23.1 Q35.6 15.7 48.65 15.6"/>
    <path stroke="none" fill="#FF9900" d="M26.6 27.05 L26.85 26.95 38.65 23.2 39.65 22.9 40.55 22.7 Q40.55 27.9 42.5 32.5 44.75 37.65 49.5 42 46.6 43.5 43.2 43.8 L40 43.8 Q33.15 43.2 28 40.7 25.45 39.45 23.85 38.15 L22.75 37.15 Q21 35.25 20.9 33.2 20.75 30.25 23.65 28.45 24.85 27.65 26.6 27.05 M28.7 35 L28.5 36.7 28.55 37.2 28.95 37.55 Q33.1 39.75 37.95 40.45 L38.6 40.3 38.9 39.85 39.85 37 39.9 36.55 39.55 36.1 39.1 35.95 Q34.4 35.7 29.8 34.3 L29.35 34.3 28.95 34.6 28.7 35"/>
    <path stroke="none" fill="#EC8D00" d="M28.7 35 L28.95 34.6 29.35 34.3 29.8 34.3 Q34.4 35.7 39.1 35.95 L39.55 36.1 39.9 36.55 39.85 37 38.9 39.85 38.6 40.3 37.95 40.45 Q33.1 39.75 28.95 37.55 L28.55 37.2 28.5 36.7 28.7 35 M40.55 22.7 Q45.95 21.5 50 22.7 51.45 23.15 52.75 23.85 56.75 26.05 58.35 29.85 59.95 33.75 53.85 38.85 L50.55 41.4 49.5 42 Q44.75 37.65 42.5 32.5 40.55 27.9 40.55 22.7 M22.75 37.15 L20.25 39.75 Q19.1 40.9 17.95 40.9 16.2 40.9 14.55 39.75 L7.15 34.65 Q3.55 32.25 7.15 29.95 L14.55 24.8 Q16.2 23.55 17.95 23.55 19.1 23.55 20.25 24.8 L23.65 28.45 Q20.75 30.25 20.9 33.2 21 35.25 22.75 37.15 M53.65 32 Q53.65 31.35 53.05 30.8 52.6 30.25 51.85 30.25 51.15 30.25 50.6 30.8 50.1 31.35 50.1 32 50.1 32.7 50.6 33.25 51.15 33.8 51.85 33.8 52.6 33.8 53.05 33.25 53.65 32.7 53.65 32"/>
    <path stroke="none" fill="#CD7B00" d="M53.65 32 Q53.65 32.7 53.05 33.25 52.6 33.8 51.85 33.8 51.15 33.8 50.6 33.25 50.1 32.7 50.1 32 50.1 31.35 50.6 30.8 51.15 30.25 51.85 30.25 52.6 30.25 53.05 30.8 53.65 31.35 53.65 32"/>
  </g>
</svg>