<svg width="64" height="64" xmlns="http://www.w3.org/2000/svg" xmlns:xlink="http://www.w3.org/1999/xlink">
  <defs/>
  <g>
    <path stroke="none" fill="#EEE4B7" d="M38.8 30.35 L44.1 25 44.5 24.95 Q47.3 24.95 49.25 26.9 51.25 28.9 51.25 31.7 51.25 34.5 49.25 36.5 47.3 38.5 44.5 38.5 L44.1 38.5 38.45 32.85 37.35 31.75 38.8 30.35 M36 32.85 L36.3 37.95 38.95 38.25 Q36.25 41.7 32.85 43.15 L32.35 43.15 Q32.1 43.15 31.95 42.95 L29.95 40.15 29.8 39.7 29.9 39.25 30.2 38.95 32.55 37.35 33.8 37.6 33.6 32.85 33.5 30.5 33.3 25.95 31.05 26.4 31.05 30.6 31.05 32.85 31.05 37.05 29.2 36.6 29 32.85 28.85 30.7 28.65 27 28.9 26.9 29.85 26.65 29.2 22.25 29.3 21.7 29.65 21.4 Q35.9 19.6 42.65 22.5 L43.1 22.9 43.15 23.5 42.75 25.05 35.6 25.6 35.85 30.45 36 32.85 M22.4 32.85 Q23.2 34.3 26.1 35.55 L23.45 37.8 Q21.15 39.75 18.85 37.8 L16.35 35.65 Q21.85 31.85 16.35 27.5 L18.85 25.35 Q21.15 23.4 23.45 25.35 L26.3 27.8 Q22.9 29.2 22.25 30.9 L22.1 31.7 Q22.1 32.3 22.4 32.85 M47.1 29 Q46.3 29 45.7 29.6 45.1 30.2 45.1 31 45.1 31.85 45.7 32.4 46.3 33.05 47.1 33.05 47.95 33.05 48.5 32.4 49.15 31.85 49.15 31 49.15 30.2 48.5 29.6 47.95 29 47.1 29"/>
    <path stroke="none" fill="#C2B995" d="M35.85 30.45 L38.8 30.35 37.35 31.75 38.45 32.85 36 32.85 35.85 30.45 M33.6 32.85 L31.05 32.85 31.05 30.6 33.5 30.5 33.6 32.85 M29 32.85 L22.4 32.85 Q22.1 32.3 22.1 31.7 L22.25 30.9 28.85 30.7 29 32.85"/>
    <path stroke="none" fill="#A39C7D" d="M47.1 29 Q47.95 29 48.5 29.6 49.15 30.2 49.15 31 49.15 31.85 48.5 32.4 47.95 33.05 47.1 33.05 46.3 33.05 45.7 32.4 45.1 31.85 45.1 31 45.1 30.2 45.7 29.6 46.3 29 47.1 29"/>
  </g>
</svg>