<svg width="64" height="64" xmlns="http://www.w3.org/2000/svg" xmlns:xlink="http://www.w3.org/1999/xlink">
  <defs/>
  <g>
    <path stroke="none" fill="#2F8AC6" d="M28.1 36.85 L28.65 37.1 Q33.75 40.85 39.45 41.95 L40 42.25 Q40.25 42.45 40.3 42.75 L40.25 43.35 38.45 47.45 38 47.95 37.35 48.05 Q29.95 46.8 25.4 42.55 L25.15 41.95 Q25.05 41.6 25.2 41.4 L27.15 37.45 27.6 37 28.1 36.85"/>
    <path stroke="none" fill="#2F8AC6" d="M12.6 24.15 Q14.5 24.15 16.3 25.35 L24.35 30.5 Q28.15 32.85 24.35 35.25 L16.3 40.4 Q14.5 41.55 12.6 41.55 11.35 41.55 10.1 40.4 L4.9 35.25 Q2.45 32.85 4.9 30.5 L10.1 25.35 Q11.35 24.15 12.6 24.15"/>
    <path stroke="none" fill="#2F8AC6" d="M47.05 27.7 L31.7 31.1 30.95 31 30.4 30.45 27.2 23.6 27.15 22.85 Q27.2 22.45 27.55 22.2 35.9 16.05 46.75 16 47.25 16 47.6 16.3 L47.9 17.1 47.9 26.65 47.7 27.3 47.05 27.7"/>
    <path stroke="none" fill="#37A5EE" d="M40.95 23.2 L44.35 23.4 Q47.55 23.55 52.35 26.25 57.1 29 59.7 31.45 62.25 33.95 55.15 38.45 48 42.95 41.15 43.05 L40.95 43.05 Q37.3 32.85 40.95 23.2 M50.95 30.35 Q50.35 30.35 49.9 30.8 49.45 31.25 49.45 31.85 49.45 32.45 49.9 32.9 50.35 33.35 50.95 33.35 51.6 33.35 52.05 32.9 L52.5 31.85 Q52.5 31.25 52.05 30.8 51.6 30.35 50.95 30.35"/>
    <path stroke="none" fill="#2C84BF" d="M50.95 30.35 Q51.6 30.35 52.05 30.8 52.5 31.25 52.5 31.85 L52.05 32.9 Q51.6 33.35 50.95 33.35 50.35 33.35 49.9 32.9 49.45 32.45 49.45 31.85 49.45 31.25 49.9 30.8 50.35 30.35 50.95 30.35"/>
    <path stroke="none" fill="#3498DB" d="M40.95 43.05 L40.6 43.05 Q31.5 42.95 24.95 40.15 18.1 37.25 18.1 33.15 18.1 29 24.95 26.1 31.5 23.35 40.6 23.2 L40.95 23.2 Q37.3 32.85 40.95 43.05"/>
    <path stroke="none" fill="#2F8AC6" d="M41.9 40.55 L30.45 40.05 29.9 39.75 Q29.7 39.55 29.65 39.2 L29.35 37.1 29.5 36.55 29.9 36.1 30.45 35.95 Q36.3 36.15 41.85 34.95 L42.4 35 42.95 35.4 43.05 35.95 42.85 39.6 42.6 40.2 41.9 40.55"/>
  </g>
</svg>