<svg width="64" height="64" xmlns="http://www.w3.org/2000/svg" xmlns:xlink="http://www.w3.org/1999/xlink">
  <defs/>
  <g>
    <path stroke="none" fill="#1B7E44" d="M49.45 22.8 L49.45 15.3 Q49.45 14.7 49.1 14.35 48.7 14 48.1 14 35.25 14.05 25.35 21.35 24.95 21.65 24.85 22.1 24.75 22.55 24.9 23 L26.45 26.3 Q23.7 27.7 21.95 29.3 L18.8 26.2 Q15.8 23.3 12.85 26.2 L6.5 32.4 Q3.5 35.3 6.5 38.2 L12.85 44.4 Q15.8 47.3 18.8 44.4 L22 41.3 Q23.8 43 26.8 44.45 L30.9 46.15 30.6 47.45 Q30.5 47.85 30.75 48.2 L31.3 48.85 Q38.5 52.7 48.35 51.8 L49.15 51.45 49.55 50.7 50.05 47.6 Q52.85 46.7 55.1 44.45 59 40.65 59 35.3 59 29.9 55.1 26.1 52.6 23.7 49.45 22.8 M50.55 12.95 Q51.45 13.8 51.45 15.3 L51.45 21.4 Q54.2 22.45 56.5 24.7 61 29.05 61 35.3 61 41.5 56.5 45.9 54.4 47.95 51.85 49.05 L51.55 51 51.5 51.15 Q51.25 52.2 50.6 52.9 50.5 52.9 50.45 53 49.65 53.7 48.6 53.8 L48.55 53.8 Q38.05 54.75 30.4 50.65 L30.35 50.65 Q29.4 50.15 29 49.15 28.5 48.3 28.6 47.45 L25.95 46.25 Q23.7 45.15 22.1 43.95 L20.2 45.85 Q15.8 50.1 11.45 45.85 L5.1 39.65 Q2.9 37.5 3 35.3 2.9 33.1 5.1 30.95 L5.1 31 11.45 24.8 Q15.8 20.5 20.2 24.75 L20.2 24.8 22.1 26.65 23.85 25.45 23.1 23.85 23 23.65 Q22.65 22.65 22.9 21.7 23.15 20.5 24.15 19.75 L24.2 19.75 Q34.6 12.05 48.1 12 49.5 12 50.45 12.85 L50.55 12.95"/>
    <path stroke="none" fill="#2CC66D" d="M26.45 26.3 L24.9 23 Q24.75 22.55 24.85 22.1 24.95 21.65 25.35 21.35 35.25 14.05 48.1 14 48.7 14 49.1 14.35 49.45 14.7 49.45 15.3 L49.45 22.8 45.9 22.3 45.5 22.3 40.3 22.55 Q32.65 23.25 26.8 26.1 L26.45 26.3 M50.05 47.6 L49.55 50.7 49.15 51.45 48.35 51.8 Q38.5 52.7 31.3 48.85 L30.75 48.2 Q30.5 47.85 30.6 47.45 L30.9 46.15 Q35.6 47.7 41.3 48.15 L45.5 48.25 45.9 48.25 50.05 47.6 M22 41.3 L18.8 44.4 Q15.8 47.3 12.85 44.4 L6.5 38.2 Q3.5 35.3 6.5 32.4 L12.85 26.2 Q15.8 23.3 18.8 26.2 L21.95 29.3 Q19.1 32 19.1 35.3 19.1 38.55 22 41.3 M36.75 36.65 L42.3 37.2 Q42.65 37.2 43 37.45 L43.5 38.1 43.45 38.85 42 43.25 41.45 43.9 40.55 44.1 38.5 43.8 Q32.15 42.6 26.6 39.7 L26.05 39.15 25.95 38.45 26.3 35.75 Q26.35 35.35 26.6 35.1 L27.25 34.7 28 34.7 Q32.35 36 36.75 36.65"/>
    <path stroke="none" fill="#27AE60" d="M36.75 36.65 Q32.35 36 28 34.7 L27.25 34.7 26.6 35.1 Q26.35 35.35 26.3 35.75 L25.95 38.45 26.05 39.15 26.6 39.7 Q32.15 42.6 38.5 43.8 39.4 45.7 40.7 47.4 L41.3 48.15 Q35.6 47.7 30.9 46.15 L26.8 44.45 Q23.8 43 22 41.3 19.1 38.55 19.1 35.3 19.1 32 21.95 29.3 23.7 27.7 26.45 26.3 L26.8 26.1 Q32.65 23.25 40.3 22.55 37.8 26 37.05 30.4 36.65 32.45 36.65 34.7 L36.75 36.65"/>
    <path stroke="none" fill="#25A65B" d="M36.75 36.65 L36.65 34.7 Q36.65 32.45 37.05 30.4 37.8 26 40.3 22.55 L45.5 22.3 45.9 22.3 49.45 22.8 Q52.6 23.7 55.1 26.1 59 29.9 59 35.3 59 40.65 55.1 44.45 52.85 46.7 50.05 47.6 L45.9 48.25 45.5 48.25 41.3 48.15 40.7 47.4 Q39.4 45.7 38.5 43.8 L40.55 44.1 41.45 43.9 42 43.25 43.45 38.85 43.5 38.1 43 37.45 Q42.65 37.2 42.3 37.2 L36.75 36.65 M50.65 35.95 Q51.75 35.95 52.55 35.15 53.35 34.4 53.35 33.3 53.35 32.25 52.55 31.45 51.75 30.65 50.65 30.65 49.55 30.65 48.75 31.45 47.95 32.25 47.95 33.3 47.95 34.4 48.75 35.15 49.55 35.95 50.65 35.95"/>
    <path stroke="none" fill="#1D8548" d="M50.65 35.95 Q49.55 35.95 48.75 35.15 47.95 34.4 47.95 33.3 47.95 32.25 48.75 31.45 49.55 30.65 50.65 30.65 51.75 30.65 52.55 31.45 53.35 32.25 53.35 33.3 53.35 34.4 52.55 35.15 51.75 35.95 50.65 35.95"/>
  </g>
</svg>