<svg width="64" height="64" xmlns="http://www.w3.org/2000/svg" xmlns:xlink="http://www.w3.org/1999/xlink">
  <defs/>
  <g>
    <path stroke="none" fill="#B5CACB" d="M34.35 25.1 L35.7 25.1 Q40.85 25.1 44.4 27 48.2 28.9 48.2 31.55 48.2 34.15 44.4 36.05 40.85 37.95 35.7 37.95 L32.15 37.95 32.15 37.85 34.85 35.55 34.95 35.45 35 35.2 34.3 32.7 34.1 32.5 33.6 32.45 31.15 32.75 Q27.1 27.5 29.7 25.1 L34.35 25.1 M38.85 30.9 Q38.7 31.65 39.1 32.35 39.6 33.05 40.3 33.15 41.1 33.3 41.7 32.8 42.45 32.35 42.6 31.6 42.75 30.95 42.2 30.25 41.8 29.55 41 29.35 40.3 29.25 39.6 29.75 38.95 30.25 38.85 30.9"/>
    <path stroke="none" fill="#98A9AA" d="M38.85 30.9 Q38.95 30.25 39.6 29.75 40.3 29.25 41 29.35 41.8 29.55 42.2 30.25 42.75 30.95 42.6 31.6 42.45 32.35 41.7 32.8 41.1 33.3 40.3 33.15 39.6 33.05 39.1 32.35 38.7 31.65 38.85 30.9 M34.35 25.1 L29.7 25.1 0 25.1 0 21.05 25.9 21.05 Q30.25 21.05 33.35 24.1 L34.35 25.1 M31.15 32.75 L33.6 32.45 34.1 32.5 34.3 32.7 35 35.2 34.95 35.45 34.85 35.55 32.15 37.85 31.95 37.95 31.1 38.5 28.4 39.9 27.8 40.05 27.25 39.95 Q26.15 39.2 25.65 38.25 L25.55 37.95 Q25.25 37.2 25.3 36.35 25.3 35.45 25.75 34.4 L25.95 34.15 26.3 34 Q28.7 33.15 31.15 32.75"/>
    <path stroke="none" fill="#788383" d="M32.15 37.95 L35.7 37.95 Q40.85 37.95 44.4 36.05 48.2 34.15 48.2 31.55 48.2 28.9 44.4 27 40.85 25.1 35.7 25.1 L34.35 25.1 33.35 24.1 Q30.25 21.05 25.9 21.05 L0 21.05 0 19.05 25.9 19.05 Q31 19.05 34.65 22.55 L35.25 23.1 35.7 23.1 Q41.4 23.1 45.3 25.2 L45.35 25.25 Q50.45 27.8 50.2 31.55 50.45 35.25 45.35 37.85 L45.3 37.85 Q41.4 39.95 35.7 39.95 L32.55 39.95 32.2 40.2 32.15 40.25 29.25 41.75 29.2 41.75 27.8 42.05 Q26.6 42.05 26.15 41.65 L26.15 41.6 Q25 40.85 24.35 39.95 L0 39.95 0 37.95 25.55 37.95 25.65 38.25 Q26.15 39.2 27.25 39.95 L27.8 40.05 28.4 39.9 31.1 38.5 31.95 37.95 32.15 37.95"/>
    <path stroke="none" fill="#ACC0C1" d="M32.15 37.95 L31.95 37.95 32.15 37.85 32.15 37.95 M29.7 25.1 Q27.1 27.5 31.15 32.75 28.7 33.15 26.3 34 L25.95 34.15 25.75 34.4 Q25.3 35.45 25.3 36.35 25.25 37.2 25.55 37.95 L0 37.95 0 25.1 29.7 25.1"/>
  </g>
</svg>