<svg width="64" height="64" xmlns="http://www.w3.org/2000/svg" xmlns:xlink="http://www.w3.org/1999/xlink">
  <defs/>
  <g>
    <path stroke="none" fill="#775129" d="M12.6 35.75 L10.8 34.45 5.65 29.4 Q3.7 27.5 3.85 25.6 3.7 23.7 5.65 21.85 L10.8 16.8 Q14.45 13.15 18.2 16.55 L19.35 15.35 20.05 14.65 19.15 12.9 18.95 12.45 18.85 11.55 18.9 11.25 Q19 10.4 19.35 10 L19.8 9.5 Q20.7 8.8 21.6 9 L22.75 9.25 22.75 9.3 25.7 10.75 Q28.8 9.2 32.35 8.65 L33.05 6.4 33.15 6.1 Q33.45 5.5 33.9 5.15 34.45 4.65 35.2 4.5 L36.25 4.55 37.05 4.95 37.45 5.25 38.05 6.1 38.15 6.4 38.8 8.5 42.75 9.2 42.8 9.2 Q44.9 9.75 46.85 10.7 L49.7 9.3 49.7 9.25 Q50.25 8.95 50.85 9 51.75 8.8 52.65 9.5 L53.15 10 53.6 11.25 53.6 11.55 53.5 12.45 53.35 12.9 52.45 14.6 53.25 15.35 Q58.9 21 60 28.7 L58.1 29.6 Q57.25 22.2 51.8 16.75 L49.95 15.05 51.55 11.95 51.6 11.55 51.45 11.1 51.05 11 50.6 11.05 46.85 12.95 Q44.65 11.75 42.25 11.1 L37.35 10.4 36.25 7 36 6.65 35.6 6.45 Q35.35 6.5 35.2 6.7 L34.95 7 33.85 10.5 Q29.4 10.9 25.7 13 L21.85 11.05 21.4 11 21 11.1 20.85 11.55 20.9 11.95 22.6 15.15 20.75 16.75 18.4 19.55 17.05 18.2 Q14.6 15.85 12.2 18.2 L7.05 23.25 Q4.6 25.6 7.05 27.95 L12.2 33 Q13.3 34.1 14.45 34.2 L14.7 36.35 12.6 35.75"/>
    <path stroke="none" fill="#A16E39" d="M14.45 34.2 Q13.3 34.1 12.2 33 L7.05 27.95 Q4.6 25.6 7.05 23.25 L12.2 18.2 Q14.6 15.85 17.05 18.2 L18.4 19.55 Q15.55 23.45 14.7 28.25 L14.65 28.6 Q14.35 30.35 14.35 32.3 L14.45 34.2 M22.6 15.15 L20.9 11.95 20.85 11.55 21 11.1 21.4 11 21.85 11.05 25.7 13 22.6 15.15 M33.85 10.5 L34.95 7 35.2 6.7 Q35.35 6.5 35.6 6.45 L36 6.65 36.25 7 37.35 10.4 36.3 10.35 33.85 10.5 M46.85 12.95 L50.6 11.05 51.05 11 51.45 11.1 51.6 11.55 51.55 11.95 49.95 15.05 Q48.45 13.85 46.85 12.95 M28.85 26 Q29.15 24.1 29.95 22.2 L30.25 21.8 30.75 21.6 Q34.95 21 39.2 22.5 L39.7 22.85 39.85 23.45 39.85 29.2 39.75 29.75 39.6 29.9 Q35.85 33.85 31.2 35.4 L30.45 35.4 29.95 34.85 Q28.05 30.4 28.85 26 M50.95 23.1 Q50.95 23.8 50.35 24.35 49.9 24.9 49.15 24.9 48.45 24.9 47.9 24.35 47.4 23.8 47.4 23.1 47.4 22.45 47.9 21.9 48.45 21.35 49.15 21.35 49.9 21.35 50.35 21.9 50.95 22.45 50.95 23.1"/>
    <path stroke="none" fill="#C48647" d="M50.95 23.1 Q50.95 22.45 50.35 21.9 49.9 21.35 49.15 21.35 48.45 21.35 47.9 21.9 47.4 22.45 47.4 23.1 47.4 23.8 47.9 24.35 48.45 24.9 49.15 24.9 49.9 24.9 50.35 24.35 50.95 23.8 50.95 23.1 M18.4 19.55 L20.75 16.75 22.6 15.15 25.7 13 Q29.4 10.9 33.85 10.5 L36.3 10.35 37.35 10.4 42.25 11.1 Q44.65 11.75 46.85 12.95 48.45 13.85 49.95 15.05 L51.8 16.75 Q57.25 22.2 58.1 29.6 48.95 33.3 39.75 29.75 L39.85 29.2 39.85 23.45 39.7 22.85 39.2 22.5 Q34.95 21 30.75 21.6 L30.25 21.8 29.95 22.2 Q29.15 24.1 28.85 26 26.1 25.6 23.35 25.9 19.05 26.3 14.7 28.25 15.55 23.45 18.4 19.55"/>
    <path stroke="none" fill="#EEE4B7" d="M14.7 36.35 L14.45 34.2 14.35 32.3 Q14.35 30.35 14.65 28.6 L14.7 28.25 Q19.05 26.3 23.35 25.9 26.1 25.6 28.85 26 28.05 30.4 29.95 34.85 L30.45 35.4 31.2 35.4 Q35.85 33.85 39.6 29.9 L39.75 29.75 Q48.95 33.3 58.1 29.6 L58.25 32.3 58.15 34.6 Q57.45 41.55 52.7 46.85 L51.8 47.8 50.35 49.15 Q44.85 53.85 37.55 54.25 L36.3 54.25 34.4 54.2 Q26.5 53.55 20.75 47.8 L20.05 47.05 17.85 44.3 Q15.45 40.65 14.7 36.35"/>
    <path stroke="none" fill="#ADA585" d="M14.7 36.35 Q15.45 40.65 17.85 44.3 L16.15 47.65 Q16.05 47.85 16.1 48.1 L16.2 48.5 16.65 48.65 17.05 48.6 20.05 47.05 20.75 47.8 Q26.5 53.55 34.4 54.2 L35.35 57.1 35.6 57.45 36 57.6 36.4 57.45 36.65 57.1 37.55 54.25 Q44.85 53.85 50.35 49.15 L53.25 50.6 53.7 50.65 54.1 50.55 54.25 50.1 54.2 49.7 52.7 46.85 Q57.45 41.55 58.15 34.6 L58.25 32.3 58.1 29.6 60 28.7 60.1 29.4 60.25 32.3 60.15 34.8 Q59.45 41.7 55.1 47.15 L56 48.8 56.15 49.25 56.25 50.1 56.25 50.45 55.8 51.65 55.3 52.15 Q54.4 52.85 53.5 52.7 L52.35 52.4 50.6 51.55 Q45.5 55.45 39.05 56.15 L38.55 57.7 38.45 58 37.85 58.9 37.6 59.05 Q36.8 59.65 36 59.6 34.85 59.6 34.2 58.9 33.55 58.3 33.4 57.6 L32.9 56.05 Q25.35 55.05 19.65 49.55 L18 50.4 17.55 50.55 16.65 50.65 16.35 50.65 Q15.5 50.5 15.1 50.2 L14.6 49.7 Q13.9 48.8 14.1 47.9 14.05 47.3 14.35 46.75 L14.4 46.75 15.55 44.45 Q13.2 40.45 12.6 35.75 L14.7 36.35"/>
    <path stroke="none" fill="#E2D9AE" d="M52.7 46.85 L54.2 49.7 54.25 50.1 54.1 50.55 53.7 50.65 53.25 50.6 50.35 49.15 51.8 47.8 52.7 46.85 M37.55 54.25 L36.65 57.1 36.4 57.45 36 57.6 35.6 57.45 35.35 57.1 34.4 54.2 36.3 54.25 37.55 54.25 M20.05 47.05 L17.05 48.6 16.65 48.65 16.2 48.5 16.1 48.1 Q16.05 47.85 16.15 47.65 L17.85 44.3 20.05 47.05"/>
  </g>
</svg>