<svg width="64" height="64" xmlns="http://www.w3.org/2000/svg" xmlns:xlink="http://www.w3.org/1999/xlink">
  <defs/>
  <g>
    <path stroke="none" fill="#98A9AA" d="M36.65 37.95 Q36.1 40.75 31.35 41.45 L27.8 41.45 Q18.1 40 15.95 34.75 15.55 33.45 15.5 32 16.4 23 28.05 21.05 L64 21.05 64 25.1 30.4 25.1 Q26 25.1 23 27 20 28.9 20 31.55 20 34.15 23 36.05 26 37.95 30.4 37.95 L36.65 37.95"/>
    <path stroke="none" fill="#ACC0C1" d="M36.65 37.95 L30.4 37.95 Q26 37.95 23 36.05 20 34.15 20 31.55 20 28.9 23 27 26 25.1 30.4 25.1 L64 25.1 64 37.95 36.65 37.95"/>
  </g>
</svg>