<svg width="64" height="64" xmlns="http://www.w3.org/2000/svg" xmlns:xlink="http://www.w3.org/1999/xlink">
  <defs/>
  <g>
    <path stroke="none" fill="#BF3D31" d="M25.3 24 L23.55 20.25 Q23.35 19.7 23.5 19.25 23.55 18.75 24 18.4 35 10.35 49.25 10.25 49.9 10.25 50.35 10.65 50.75 11.05 50.75 11.7 L50.75 18.4 49.15 18.45 46.7 18.6 Q35.85 19.35 27.55 22.9 L25.3 24 M48 49.6 L47.6 52.15 47.1 53.1 46.2 53.5 Q34.45 54.65 25.9 50.05 25.4 49.8 25.25 49.25 24.95 48.8 25.1 48.4 L25.9 44.35 27.55 45.1 Q35.85 48.7 46.7 49.55 L48 49.6 M20.6 40.95 L17.1 43.9 Q15.25 45.45 13.3 45.45 12.05 45.45 10.75 43.9 L5.45 36.95 Q2.95 33.7 5.45 30.55 L10.75 23.55 Q12.05 21.9 13.3 21.9 15.25 21.9 17.1 23.55 L20.95 26.85 Q17.05 30.05 17.05 34.05 17.05 37.85 20.6 40.95 M55.4 32.25 Q54.9 32.9 54.05 32.9 53.3 32.9 52.7 32.25 52.15 31.7 52.15 30.9 52.15 30.15 52.7 29.55 53.3 28.95 54.05 28.95 54.9 28.95 55.4 29.55 56.05 30.15 56.05 30.9 56.05 31.7 55.4 32.25 M41.85 36.3 L40.2 41.1 Q40.1 41.65 39.7 41.85 L38.65 42.1 Q30.45 40.9 23.35 37.25 L22.7 36.65 22.6 35.8 22.95 32.9 23.35 32.2 24.05 31.75 24.85 31.75 Q32.65 34.1 40.55 34.5 40.95 34.45 41.3 34.75 L41.9 35.5 41.85 36.3"/>
    <path stroke="none" fill="#872A21" d="M50.75 18.4 L50.75 11.7 Q50.75 11.05 50.35 10.65 49.9 10.25 49.25 10.25 35 10.35 24 18.4 23.55 18.75 23.5 19.25 23.35 19.7 23.55 20.25 L25.3 24 Q22.7 25.3 20.95 26.85 L17.1 23.55 Q15.25 21.9 13.3 21.9 12.05 21.9 10.75 23.55 L5.45 30.55 Q2.95 33.7 5.45 36.95 L10.75 43.9 Q12.05 45.45 13.3 45.45 15.25 45.45 17.1 43.9 L20.6 40.95 Q22.65 42.75 25.9 44.35 L25.1 48.4 Q24.95 48.8 25.25 49.25 25.4 49.8 25.9 50.05 34.45 54.65 46.2 53.5 L47.1 53.1 47.6 52.15 48 49.6 49.15 49.65 51.15 49.7 52.1 49.7 52.15 49.7 52.4 49.7 Q55.35 49.45 57.55 45.1 59.85 40.55 59.85 34.05 59.85 27.5 57.55 22.9 55.35 18.65 52.4 18.4 L52.4 18.35 52.15 18.35 52.1 18.35 51.15 18.4 50.75 18.4 M51.7 9.15 L51.8 9.25 Q52.75 10.15 52.75 11.7 L52.75 16.4 53 16.45 Q56.65 16.8 59.35 22 61.85 26.95 61.85 34.05 61.85 41.1 59.35 46 56.5 51.55 52.6 51.7 L52.4 51.7 52.15 51.7 52.1 51.7 51.15 51.7 49.7 51.7 49.6 52.45 49.6 52.5 Q49.35 53.85 48.45 54.6 47.55 55.4 46.4 55.5 34 56.7 24.95 51.8 L25 51.85 Q23.9 51.3 23.45 50.15 22.7 48.9 23.2 47.75 L23.65 45.45 Q21.95 44.55 20.65 43.55 L18.4 45.45 Q15.9 47.5 13.3 47.45 11.25 47.6 9.25 45.2 L9.15 45.15 3.85 38.2 3.9 38.2 Q0.4 33.65 3.9 29.3 L3.85 29.35 9.15 22.35 9.2 22.3 Q11.2 19.7 13.3 19.9 15.95 19.85 18.4 22.05 L18.45 22.05 21 24.25 22.7 23.15 21.75 21.1 21.7 20.95 Q21.25 19.8 21.55 18.9 21.7 17.65 22.8 16.85 L22.85 16.8 Q34.35 8.35 49.25 8.25 50.7 8.25 51.7 9.15"/>
    <path stroke="none" fill="#F5503F" d="M46.7 18.6 L49.15 18.45 50.75 18.4 51.15 18.4 52.1 18.35 52.15 18.35 52.4 18.35 52.4 18.4 Q55.35 18.65 57.55 22.9 59.85 27.5 59.85 34.05 59.85 40.55 57.55 45.1 55.35 49.45 52.4 49.7 L52.15 49.7 52.1 49.7 51.15 49.7 49.15 49.65 48 49.6 46.7 49.55 45.65 43.55 Q44.55 35.15 45.45 26.6 45.85 22.6 46.7 18.6 M55.4 32.25 Q56.05 31.7 56.05 30.9 56.05 30.15 55.4 29.55 54.9 28.95 54.05 28.95 53.3 28.95 52.7 29.55 52.15 30.15 52.15 30.9 52.15 31.7 52.7 32.25 53.3 32.9 54.05 32.9 54.9 32.9 55.4 32.25"/>
    <path stroke="none" fill="#E74C3C" d="M25.3 24 L27.55 22.9 Q35.85 19.35 46.7 18.6 45.85 22.6 45.45 26.6 44.55 35.15 45.65 43.55 L46.7 49.55 Q35.85 48.7 27.55 45.1 L25.9 44.35 Q22.65 42.75 20.6 40.95 17.05 37.85 17.05 34.05 17.05 30.05 20.95 26.85 22.7 25.3 25.3 24 M41.85 36.3 L41.9 35.5 41.3 34.75 Q40.95 34.45 40.55 34.5 32.65 34.1 24.85 31.75 L24.05 31.75 23.35 32.2 22.95 32.9 22.6 35.8 22.7 36.65 23.35 37.25 Q30.45 40.9 38.65 42.1 L39.7 41.85 Q40.1 41.65 40.2 41.1 L41.85 36.3"/>
  </g>
</svg>