<svg width="64" height="64" xmlns="http://www.w3.org/2000/svg" xmlns:xlink="http://www.w3.org/1999/xlink">
  <defs/>
  <g>
    <path stroke="none" fill="#EEE4B7" d="M42.3 32 Q40.55 27.6 40.55 22.7 45.95 21.5 50 22.7 51.45 23.15 52.75 23.85 L54.95 25.35 Q57.25 27.2 58.35 29.85 59.8 33.4 54.95 37.9 L53.85 38.85 50.55 41.4 49.5 42 Q46.15 38.9 44.05 35.45 L42.5 32.5 42.3 32 M39.7 35.25 L42 43.85 40 43.8 37.5 43.5 35.9 35.05 35.3 32 33.9 24.7 36.7 23.8 38.85 32 39.7 35.25 M31.8 34.9 L33 42.6 29.1 41.2 28.1 34.7 27.65 32 26.85 26.95 30.45 25.8 31.4 32 31.8 34.9 M21.1 34.4 Q21.5 35.8 22.75 37.1 L20.25 39.75 Q19.1 40.9 17.95 40.9 16.2 40.9 14.55 39.75 L14 39.4 Q17.7 32.6 12.95 26.2 L12.85 26 12.95 25.95 14.55 24.8 Q16.2 23.55 17.95 23.55 19.1 23.55 20.25 24.8 L23.65 28.4 Q21.35 29.85 21 32 L20.9 33.2 21.1 34.4 M53.65 32 Q53.65 31.35 53.05 30.8 52.6 30.25 51.85 30.25 51.15 30.25 50.6 30.8 50.1 31.35 50.1 32 50.1 32.7 50.6 33.25 51.15 33.8 51.85 33.8 52.6 33.8 53.05 33.25 53.65 32.7 53.65 32"/>
    <path stroke="none" fill="#A39C7D" d="M53.65 32 Q53.65 32.7 53.05 33.25 52.6 33.8 51.85 33.8 51.15 33.8 50.6 33.25 50.1 32.7 50.1 32 50.1 31.35 50.6 30.8 51.15 30.25 51.85 30.25 52.6 30.25 53.05 30.8 53.65 31.35 53.65 32"/>
    <path stroke="none" fill="#C2B995" d="M44.05 35.45 L39.7 35.25 38.85 32 42.3 32 42.5 32.5 44.05 35.45 M35.9 35.05 L31.8 34.9 31.4 32 35.3 32 35.9 35.05 M28.1 34.7 L21.1 34.4 20.9 33.2 21 32 27.65 32 28.1 34.7"/>
  </g>
</svg>