<svg width="64" height="64" xmlns="http://www.w3.org/2000/svg" xmlns:xlink="http://www.w3.org/1999/xlink">
  <defs/>
  <g>
    <path stroke="none" fill="#EEE4B7" d="M50.75 16.25 Q43.1 15.7 35.9 17.5 32.35 18.35 28.95 19.8 L25.2 21.6 24.4 22 23.55 20.25 Q23.35 19.7 23.5 19.25 23.55 18.75 24 18.4 L25.35 17.45 29.05 15.25 Q32.4 13.4 36.05 12.3 42.25 10.3 49.25 10.25 49.9 10.25 50.35 10.65 50.75 11.05 50.75 11.7 L50.75 16.25 M45.15 30.4 L45.45 26.6 Q45.85 22.95 46.55 19.35 L46.7 18.6 49.15 18.45 50.75 18.4 51.15 18.4 52.1 18.35 52.15 18.35 52.4 18.35 52.4 18.4 Q55.35 18.65 57.55 22.9 59.85 27.5 59.85 34.05 59.85 40.55 57.55 45.1 55.35 49.45 52.4 49.7 L52.15 49.7 52.1 49.7 51.15 49.7 49.15 49.65 48 49.6 46.7 49.55 45.65 43.55 Q45.05 39.1 45.05 34.6 L45.15 30.4 M39.2 34.9 L39.2 48.6 35.15 47.7 35.45 35.1 35.55 30.85 35.85 20.2 39.2 19.5 39.2 30.7 39.2 34.9 M28.6 35.45 L28.4 45.45 27.55 45.1 25.9 44.35 24.4 43.55 24.7 35.65 24.85 31.4 25.1 24.1 25.3 24 27.55 22.9 28.9 22.35 28.7 31.2 28.6 35.45 M17.3 36 Q18 38.65 20.6 40.95 L17.1 43.9 Q15.25 45.45 13.3 45.45 12.05 45.45 10.75 43.9 L9.35 42.05 Q15.15 33.5 9.7 24.95 L10.75 23.55 Q12.05 21.9 13.3 21.9 15.25 21.9 17.1 23.55 L20.95 26.85 Q18.2 29.1 17.4 31.8 17.05 32.9 17.05 34.05 L17.3 36 M55.4 32.25 Q56.05 31.7 56.05 30.9 56.05 30.15 55.4 29.55 54.9 28.95 54.05 28.95 53.3 28.95 52.7 29.55 52.15 30.15 52.15 30.9 52.15 31.7 52.7 32.25 53.3 32.9 54.05 32.9 54.9 32.9 55.4 32.25"/>
    <path stroke="none" fill="#C2B995" d="M45.05 34.6 L39.2 34.9 39.2 30.7 45.15 30.4 45.05 34.6 M35.45 35.1 L28.6 35.45 28.7 31.2 35.55 30.85 35.45 35.1 M24.7 35.65 L17.3 36 17.05 34.05 Q17.05 32.9 17.4 31.8 L24.85 31.4 24.7 35.65"/>
    <path stroke="none" fill="#A39C7D" d="M55.4 32.25 Q54.9 32.9 54.05 32.9 53.3 32.9 52.7 32.25 52.15 31.7 52.15 30.9 52.15 30.15 52.7 29.55 53.3 28.95 54.05 28.95 54.9 28.95 55.4 29.55 56.05 30.15 56.05 30.9 56.05 31.7 55.4 32.25"/>
  </g>
</svg>