<svg width="64" height="64" xmlns="http://www.w3.org/2000/svg" xmlns:xlink="http://www.w3.org/1999/xlink">
  <defs/>
  <g>
    <path stroke="none" fill="#2CC66D" d="M12.85 26.2 Q15.8 23.3 18.8 26.2 L25.1 32.4 Q28.1 35.3 25.1 38.2 L18.8 44.4 Q15.8 47.3 12.85 44.4 L6.5 38.2 Q3.5 35.3 6.5 32.4 L12.85 26.2"/>
    <path stroke="none" fill="#2CC66D" d="M50.45 44.85 L49.55 50.7 49.15 51.45 48.35 51.8 Q38.5 52.7 31.3 48.85 L30.75 48.2 Q30.5 47.85 30.6 47.45 L31.75 41.8 32.15 41.1 Q32.4 40.85 32.8 40.75 L33.55 40.85 Q41.3 43.9 48.95 43.35 L49.75 43.55 50.3 44.1 50.45 44.85"/>
    <path stroke="none" fill="#2CC66D" d="M49.2 27.4 L48.45 27.85 30.25 31.9 29.35 31.8 28.7 31.15 24.9 23 Q24.75 22.55 24.85 22.1 24.95 21.65 25.35 21.35 35.25 14.05 48.1 14 48.7 14 49.1 14.35 49.45 14.7 49.45 15.3 L49.45 26.6 49.2 27.4"/>
    <path stroke="none" fill="#25A65B" d="M40.3 22.55 L45.5 22.3 45.9 22.3 Q51.3 22.4 55.1 26.1 59 29.9 59 35.3 59 40.65 55.1 44.45 51.3 48.2 45.9 48.25 L45.5 48.25 41.3 48.15 40.7 47.4 Q36.65 42.15 36.65 34.7 36.65 27.65 40.3 22.55"/>
    <path stroke="none" fill="#27AE60" d="M40.3 22.55 Q36.65 27.65 36.65 34.7 36.65 42.15 40.7 47.4 L41.3 48.15 Q33 47.5 26.8 44.45 19.1 40.65 19.1 35.3 19.1 29.9 26.8 26.1 32.65 23.25 40.3 22.55"/>
    <path stroke="none" fill="#1D8548" d="M52.55 35.15 Q51.75 35.95 50.65 35.95 49.55 35.95 48.75 35.15 47.95 34.4 47.95 33.3 47.95 32.25 48.75 31.45 49.55 30.65 50.65 30.65 51.75 30.65 52.55 31.45 53.35 32.25 53.35 33.3 53.35 34.4 52.55 35.15"/>
    <path stroke="none" fill="#2CC66D" d="M43.5 38.1 L43.45 38.85 42 43.25 41.45 43.9 40.55 44.1 Q33.05 43.05 26.6 39.7 L26.05 39.15 25.95 38.45 26.3 35.75 Q26.35 35.35 26.6 35.1 L27.25 34.7 28 34.7 Q35.1 36.85 42.3 37.2 42.65 37.2 43 37.45 L43.5 38.1"/>
  </g>
</svg>