<svg width="64" height="64" xmlns="http://www.w3.org/2000/svg" xmlns:xlink="http://www.w3.org/1999/xlink">
  <defs/>
  <g>
    <path stroke="none" fill="#EC8D00" d="M14.55 24.8 Q16.2 23.55 17.95 23.55 19.1 23.55 20.25 24.8 L25.05 29.95 Q27.3 32.25 25.05 34.65 L20.25 39.75 Q19.1 40.9 17.95 40.9 16.2 40.9 14.55 39.75 L7.15 34.65 Q3.55 32.25 7.15 29.95 L14.55 24.8"/>
    <path stroke="none" fill="#FCB245" d="M43.95 38.9 L43 45.05 42.55 45.85 Q42.2 46.2 41.75 46.2 31.35 47.25 23.8 43.15 L23.2 42.45 Q22.95 42.05 23.1 41.7 L24.3 35.75 24.75 34.95 Q24.95 34.75 25.35 34.6 L26.2 34.7 Q34.35 37.9 42.35 37.35 L43.2 37.55 43.8 38.1 43.95 38.9"/>
    <path stroke="none" fill="#FCB245" d="M48.65 17.6 Q49.25 17.6 49.65 17.95 50 18.3 50 18.9 L50 29.85 49.7 30.55 49 31.05 31.4 34.95 30.5 34.8 29.9 34.2 26.25 26.35 Q26.05 25.85 26.2 25.45 26.25 25.05 26.65 24.7 36.25 17.7 48.65 17.6"/>
    <path stroke="none" fill="#EC8D00" d="M40.55 22.7 Q47.85 21.1 52.75 23.85 56.75 26.05 58.35 29.85 59.95 33.75 53.85 38.85 L50.55 41.4 49.5 42 Q40.5 33.75 40.55 22.7 M53.05 33.25 Q53.65 32.7 53.65 32 53.65 31.35 53.05 30.8 52.6 30.25 51.85 30.25 51.15 30.25 50.6 30.8 50.1 31.35 50.1 32 50.1 32.7 50.6 33.25 51.15 33.8 51.85 33.8 52.6 33.8 53.05 33.25"/>
    <path stroke="none" fill="#CD7B00" d="M53.05 33.25 Q52.6 33.8 51.85 33.8 51.15 33.8 50.6 33.25 50.1 32.7 50.1 32 50.1 31.35 50.6 30.8 51.15 30.25 51.85 30.25 52.6 30.25 53.05 30.8 53.65 31.35 53.65 32 53.65 32.7 53.05 33.25"/>
    <path stroke="none" fill="#FF9900" d="M49.5 42 Q45.3 44.15 40 43.8 33.15 43.2 28 40.7 21.15 37.4 20.9 33.2 20.65 28.95 26.85 26.95 L38.65 23.2 39.65 22.9 40.55 22.7 Q40.5 33.75 49.5 42"/>
    <path stroke="none" fill="#EC8D00" d="M38.9 39.85 L38.6 40.3 37.95 40.45 Q33.1 39.75 28.95 37.55 L28.55 37.2 28.5 36.7 28.7 35 28.95 34.6 29.35 34.3 29.8 34.3 Q34.4 35.7 39.1 35.95 L39.55 36.1 39.9 36.55 39.85 37 38.9 39.85"/>
  </g>
</svg>