<svg width="64" height="64" xmlns="http://www.w3.org/2000/svg" xmlns:xlink="http://www.w3.org/1999/xlink">
  <defs/>
  <g>
    <path stroke="none" fill="#E2D9AE" d="M38.05 52.2 L38.05 52.65 36.65 57.1 36.4 57.45 36 57.6 35.6 57.45 35.35 57.1 33.9 52.65 33.9 52.2 Q33.95 52 34.15 51.9 35.85 50.6 37.8 51.85 L38.05 52.2"/>
    <path stroke="none" fill="#A16E39" d="M34.95 7 L35.2 6.7 Q35.35 6.5 35.6 6.45 L36 6.65 36.25 7 37.65 11.4 37.7 11.9 37.4 12.25 Q35.4 13.5 33.75 12.2 L33.55 11.9 33.5 11.45 34.95 7"/>
    <path stroke="none" fill="#A16E39" d="M22.15 23.25 Q24.6 25.6 22.15 27.95 L17.05 33 Q14.6 35.35 12.2 33 L7.05 27.95 Q4.6 25.6 7.05 23.25 L12.2 18.2 Q14.6 15.85 17.05 18.2 L22.15 23.25"/>
    <path stroke="none" fill="#C48647" d="M58.1 29.6 Q48.05 33.65 37.9 28.95 L37.2 28.6 Q26.15 23.1 14.7 28.25 15.85 21.7 20.75 16.75 27.2 10.35 36.3 10.35 L42.25 11.1 Q47.6 12.55 51.8 16.75 57.25 22.2 58.1 29.6"/>
    <path stroke="none" fill="#EEE4B7" d="M58.1 29.6 L58.25 32.3 58.15 34.6 Q57.4 42.2 51.8 47.8 45.4 54.25 36.3 54.25 27.2 54.25 20.75 47.8 14.35 41.4 14.35 32.3 14.35 30.35 14.65 28.6 L14.7 28.25 Q26.15 23.1 37.2 28.6 L37.9 28.95 Q48.05 33.65 58.1 29.6"/>
    <path stroke="none" fill="#A16E39" d="M50.35 21.9 Q50.95 22.45 50.95 23.1 50.95 23.8 50.35 24.35 49.9 24.9 49.15 24.9 48.45 24.9 47.9 24.35 47.4 23.8 47.4 23.1 47.4 22.45 47.9 21.9 48.45 21.35 49.15 21.35 49.9 21.35 50.35 21.9"/>
    <path stroke="none" fill="#A16E39" d="M30.25 21.8 L30.75 21.6 Q34.95 21 39.2 22.5 L39.7 22.85 39.85 23.45 39.85 29.2 39.6 29.9 Q35.85 33.85 31.2 35.4 L30.45 35.4 29.95 34.85 Q27.25 28.5 29.95 22.2 L30.25 21.8"/>
    <path stroke="none" fill="#E2D9AE" d="M48.75 47.8 Q49 45.7 51.3 45.15 L51.75 45.25 52.05 45.6 54.2 49.7 54.25 50.1 54.1 50.55 53.7 50.65 53.25 50.6 49.1 48.5 48.8 48.15 48.75 47.8"/>
    <path stroke="none" fill="#E2D9AE" d="M18.25 43.5 L18.6 43.2 18.95 43.15 Q21.05 43.4 21.6 45.7 L21.5 46.15 21.15 46.45 17.05 48.6 16.65 48.65 16.2 48.5 16.1 48.1 Q16.05 47.85 16.15 47.65 L18.25 43.5"/>
    <path stroke="none" fill="#A16E39" d="M26.3 13.5 L26.35 13.85 Q26.1 15.95 23.8 16.5 L23.35 16.4 23.05 16.05 20.9 11.95 20.85 11.55 21 11.1 21.4 11 21.85 11.05 26 13.15 26.3 13.5"/>
    <path stroke="none" fill="#A16E39" d="M51.45 11.1 L51.6 11.55 51.55 11.95 49.4 16.05 49.1 16.4 48.65 16.5 Q46.35 15.95 46.1 13.85 46.05 13.65 46.15 13.5 L46.45 13.15 50.6 11.05 51.05 11 51.45 11.1"/>
  </g>
</svg>