<svg width="64" height="64" xmlns="http://www.w3.org/2000/svg" xmlns:xlink="http://www.w3.org/1999/xlink">
  <defs/>
  <g>
    <path stroke="none" fill="#A39C7D" d="M51.45 15.3 L51.45 21.4 54.35 22.9 54.3 22.9 56.55 24.7 56.5 24.7 Q61 29.05 61 35.3 61 41.5 56.5 45.9 L56.55 45.9 Q53.9 48.45 50.65 49.5 L50.7 49.5 Q48.45 50.25 45.9 50.25 L45.5 50.25 41.2 50.15 41.05 50.15 35.25 49.35 35.15 49.35 31.45 48.45 31.3 48.4 27.65 47.05 27.55 47 25.95 46.25 25.9 46.25 24.15 45.3 23.95 45.2 22.2 43.9 20.2 45.85 Q15.8 50.1 11.45 45.85 L7.25 41.7 12.7 35.35 7.15 29 11.45 24.8 Q15.8 20.5 20.2 24.75 L20.2 24.8 22.15 26.7 23.1 25.95 23.2 25.9 23.75 25.55 23.55 24.8 23.1 23.9 23 23.65 Q22.65 22.65 22.9 21.7 23.15 20.5 24.15 19.75 L27.05 17.8 Q36.4 12.05 48.1 12 49.5 12 50.45 12.85 L50.55 12.95 Q51.45 13.8 51.45 15.3 M36.7 35.9 L36.75 37.1 Q37 39.85 37.9 42.3 38.9 45.05 40.7 47.4 L41.3 48.15 45.5 48.25 45.9 48.25 50.05 47.6 Q52.85 46.7 55.1 44.45 59 40.65 59 35.3 59 29.9 55.1 26.1 54.2 25.2 53.2 24.55 51.45 23.35 49.45 22.8 L45.9 22.3 45.5 22.3 40.3 22.55 Q39.65 23.45 39.15 24.4 37.6 27.15 37.05 30.4 L36.75 32.65 34.35 32.85 33.6 23.65 31 24.4 31.4 33.1 27.65 33.45 27.2 25.9 26.8 26.1 26.45 26.3 Q25.25 26.9 24.3 27.55 L24.65 33.7 19.2 34.2 Q19.6 31.55 21.95 29.3 L18.8 26.2 Q17.15 24.6 15.5 24.8 14.15 24.9 12.85 26.2 L10.1 28.95 15.5 35.3 10.1 41.75 12.85 44.4 Q14.15 45.7 15.5 45.85 17.15 46 18.8 44.4 L22 41.3 Q20 39.45 19.4 37.35 L24.8 36.9 25.1 43.55 26.8 44.45 28.35 45.15 27.85 36.65 31.55 36.3 32 46.5 35.5 47.35 34.6 36.05 36.7 35.9 M49.1 14.35 Q48.7 14 48.1 14 37 14.05 28.1 19.5 L25.35 21.35 Q24.95 21.65 24.85 22.1 24.75 22.55 24.9 23 L25.4 24 28.1 22.85 Q37.85 19.1 49.45 19.85 L49.45 15.3 Q49.45 14.7 49.1 14.35 M52.55 31.45 L53.2 32.45 53.35 33.3 53.2 34.2 52.55 35.15 Q51.75 35.95 50.65 35.95 49.55 35.95 48.75 35.15 47.95 34.4 47.95 33.3 47.95 32.25 48.75 31.45 49.55 30.65 50.65 30.65 51.75 30.65 52.55 31.45"/>
    <path stroke="none" fill="#EEE4B7" d="M52.55 31.45 Q51.75 30.65 50.65 30.65 49.55 30.65 48.75 31.45 47.95 32.25 47.95 33.3 47.95 34.4 48.75 35.15 49.55 35.95 50.65 35.95 51.75 35.95 52.55 35.15 L53.2 34.2 53.35 33.3 53.2 32.45 52.55 31.45 M49.1 14.35 Q49.45 14.7 49.45 15.3 L49.45 19.85 Q37.85 19.1 28.1 22.85 L25.4 24 24.9 23 Q24.75 22.55 24.85 22.1 24.95 21.65 25.35 21.35 L28.1 19.5 Q37 14.05 48.1 14 48.7 14 49.1 14.35 M36.75 32.65 L37.05 30.4 Q37.6 27.15 39.15 24.4 39.65 23.45 40.3 22.55 L45.5 22.3 45.9 22.3 49.45 22.8 Q51.45 23.35 53.2 24.55 54.2 25.2 55.1 26.1 59 29.9 59 35.3 59 40.65 55.1 44.45 52.85 46.7 50.05 47.6 L45.9 48.25 45.5 48.25 41.3 48.15 40.7 47.4 Q38.9 45.05 37.9 42.3 37 39.85 36.75 37.1 L36.7 35.9 36.65 34.7 36.75 32.65 M34.6 36.05 L35.5 47.35 32 46.5 31.55 36.3 31.4 33.1 31 24.4 33.6 23.65 34.35 32.85 34.6 36.05 M27.85 36.65 L28.35 45.15 26.8 44.45 25.1 43.55 24.8 36.9 24.65 33.7 24.3 27.55 Q25.25 26.9 26.45 26.3 L26.8 26.1 27.2 25.9 27.65 33.45 27.85 36.65 M19.4 37.35 Q20 39.45 22 41.3 L18.8 44.4 Q17.15 46 15.5 45.85 14.15 45.7 12.85 44.4 L10.1 41.75 15.5 35.3 10.1 28.95 12.85 26.2 Q14.15 24.9 15.5 24.8 17.15 24.6 18.8 26.2 L21.95 29.3 Q19.6 31.55 19.2 34.2 L19.1 35.3 Q19.1 36.35 19.4 37.35"/>
    <path stroke="none" fill="#C2B995" d="M19.4 37.35 Q19.1 36.35 19.1 35.3 L19.2 34.2 24.65 33.7 24.8 36.9 19.4 37.35 M36.7 35.9 L34.6 36.05 34.35 32.85 36.75 32.65 36.65 34.7 36.7 35.9 M31.55 36.3 L27.85 36.65 27.65 33.45 31.4 33.1 31.55 36.3"/>
  </g>
</svg>