<svg width="64" height="64" xmlns="http://www.w3.org/2000/svg" xmlns:xlink="http://www.w3.org/1999/xlink">
  <defs/>
  <g>
    <path stroke="none" fill="#A39C7D" d="M24.25 15.8 L28.1 13.5 28.15 13.5 Q31.65 11.55 35.5 10.4 L35.45 10.4 Q41.9 8.3 49.25 8.25 50.7 8.25 51.7 9.15 L51.8 9.25 Q52.75 10.15 52.75 11.7 L52.75 16.4 53 16.45 Q56.65 16.8 59.35 22 61.85 26.95 61.85 34.05 61.85 41.1 59.35 46 56.5 51.55 52.6 51.7 L52.4 51.7 52.15 51.7 52.1 51.7 51.15 51.7 49.15 51.65 49.05 51.65 47.85 51.6 46.55 51.55 Q45.9 51.5 45.4 51.05 44.9 50.6 44.75 50 L43.7 43.85 Q43.2 40.3 43.1 36.7 L41.2 36.8 41.2 48.6 40.9 49.7 40 50.45 38.85 50.6 34.65 49.65 Q33.95 49.45 33.55 48.9 33.15 48.35 33.15 47.65 L33.4 37.2 30.6 37.35 30.4 45.5 Q30.4 46.15 30 46.65 L29 47.35 Q28.4 47.55 27.8 47.35 L26.65 46.9 25 46.15 23.4 45.3 22.65 44.55 22.4 43.5 22.5 41.6 21.9 42.5 18.4 45.45 Q15.9 47.5 13.3 47.45 11.25 47.6 9.25 45.2 L9.15 45.1 7.75 43.25 Q7.35 42.75 7.35 42.1 7.35 41.45 7.7 40.95 12.75 33.45 8.05 26.05 7.7 25.5 7.7 24.9 7.75 24.25 8.1 23.75 L9.15 22.35 9.2 22.3 Q11.2 19.7 13.3 19.9 15.95 19.85 18.4 22.05 L18.45 22.05 22.25 25.35 22.9 26.3 22.85 27.45 22.25 28.4 20.95 29.6 22.95 29.5 23.1 24.4 22.55 22.8 21.75 21.15 21.7 20.95 Q21.25 19.8 21.55 18.9 21.7 17.65 22.8 16.85 23.5 16.25 24.3 15.8 L24.25 15.8 M45.05 34.6 Q45.05 39.1 45.65 43.55 L46.7 49.55 48 49.6 49.15 49.65 51.15 49.7 52.1 49.7 52.15 49.7 52.4 49.7 Q55.35 49.45 57.55 45.1 59.85 40.55 59.85 34.05 59.85 27.5 57.55 22.9 55.35 18.65 52.4 18.4 L52.4 18.35 52.15 18.35 52.1 18.35 51.15 18.4 50.75 18.4 49.15 18.45 46.7 18.6 46.55 19.35 Q45.85 22.95 45.45 26.6 L45.15 30.4 39.2 30.7 39.2 19.5 35.85 20.2 35.55 30.85 28.7 31.2 28.9 22.35 27.55 22.9 25.3 24 25.1 24.1 24.85 31.4 17.4 31.8 Q18.2 29.1 20.95 26.85 L17.1 23.55 Q15.25 21.9 13.3 21.9 12.05 21.9 10.75 23.55 L9.7 24.95 Q15.15 33.5 9.35 42.05 L10.75 43.9 Q12.05 45.45 13.3 45.45 15.25 45.45 17.1 43.9 L20.6 40.95 Q18 38.65 17.3 36 L24.7 35.65 24.4 43.55 25.9 44.35 27.55 45.1 28.4 45.45 28.6 35.45 35.45 35.1 35.15 47.7 39.2 48.6 39.2 34.9 45.05 34.6 M24 18.4 Q23.55 18.75 23.5 19.25 23.35 19.7 23.55 20.25 L24.4 22 25.2 21.6 28.95 19.8 Q32.35 18.35 35.9 17.5 43.1 15.7 50.75 16.25 L50.75 11.7 Q50.75 11.05 50.35 10.65 49.9 10.25 49.25 10.25 42.25 10.3 36.05 12.3 32.4 13.4 29.05 15.25 L25.35 17.45 24 18.4 M33.6 28.95 L33.65 26.95 30.8 27.2 30.75 29.1 33.6 28.95 M41.2 26.3 L41.2 28.6 43.3 28.5 43.45 26.4 43.5 26.1 41.2 26.3 M54.05 28.95 Q54.9 28.95 55.4 29.55 56.05 30.15 56.05 30.9 56.05 31.7 55.4 32.25 54.9 32.9 54.05 32.9 53.3 32.9 52.7 32.25 52.15 31.7 52.15 30.9 52.15 30.15 52.7 29.55 53.3 28.95 54.05 28.95 M20.45 37.85 L21.95 39.45 22.55 40.4 22.65 37.75 20.45 37.85"/>
    <path stroke="none" fill="#EEE4B7" d="M24 18.4 L25.35 17.45 29.05 15.25 Q32.4 13.4 36.05 12.3 42.25 10.3 49.25 10.25 49.9 10.25 50.35 10.65 50.75 11.05 50.75 11.7 L50.75 16.25 Q43.1 15.7 35.9 17.5 32.35 18.35 28.95 19.8 L25.2 21.6 24.4 22 23.55 20.25 Q23.35 19.7 23.5 19.25 23.55 18.75 24 18.4 M45.15 30.4 L45.45 26.6 Q45.85 22.95 46.55 19.35 L46.7 18.6 49.15 18.45 50.75 18.4 51.15 18.4 52.1 18.35 52.15 18.35 52.4 18.35 52.4 18.4 Q55.35 18.65 57.55 22.9 59.85 27.5 59.85 34.05 59.85 40.55 57.55 45.1 55.35 49.45 52.4 49.7 L52.15 49.7 52.1 49.7 51.15 49.7 49.15 49.65 48 49.6 46.7 49.55 45.65 43.55 Q45.05 39.1 45.05 34.6 L45.15 30.4 M39.2 34.9 L39.2 48.6 35.15 47.7 35.45 35.1 35.55 30.85 35.85 20.2 39.2 19.5 39.2 30.7 39.2 34.9 M28.6 35.45 L28.4 45.45 27.55 45.1 25.9 44.35 24.4 43.55 24.7 35.65 24.85 31.4 25.1 24.1 25.3 24 27.55 22.9 28.9 22.35 28.7 31.2 28.6 35.45 M17.3 36 Q18 38.65 20.6 40.95 L17.1 43.9 Q15.25 45.45 13.3 45.45 12.05 45.45 10.75 43.9 L9.35 42.05 Q15.15 33.5 9.7 24.95 L10.75 23.55 Q12.05 21.9 13.3 21.9 15.25 21.9 17.1 23.55 L20.95 26.85 Q18.2 29.1 17.4 31.8 17.05 32.9 17.05 34.05 L17.3 36 M54.05 28.95 Q53.3 28.95 52.7 29.55 52.15 30.15 52.15 30.9 52.15 31.7 52.7 32.25 53.3 32.9 54.05 32.9 54.9 32.9 55.4 32.25 56.05 31.7 56.05 30.9 56.05 30.15 55.4 29.55 54.9 28.95 54.05 28.95"/>
    <path stroke="none" fill="#C2B995" d="M45.05 34.6 L39.2 34.9 39.2 30.7 45.15 30.4 45.05 34.6 M35.45 35.1 L28.6 35.45 28.7 31.2 35.55 30.85 35.45 35.1 M24.7 35.65 L17.3 36 17.05 34.05 Q17.05 32.9 17.4 31.8 L24.85 31.4 24.7 35.65"/>
  </g>
</svg>