<svg width="64" height="64" xmlns="http://www.w3.org/2000/svg" xmlns:xlink="http://www.w3.org/1999/xlink">
  <defs/>
  <g>
    <path stroke="none" fill="#98A9AA" d="M50.6 29.75 Q51.3 29.25 52 29.35 52.8 29.55 53.2 30.25 53.75 30.95 53.6 31.6 53.45 32.35 52.7 32.8 52.1 33.3 51.3 33.15 50.6 33.05 50.1 32.35 49.7 31.65 49.85 30.9 49.95 30.25 50.6 29.75 M45.35 25.1 L40.7 25.1 19.9 25.1 Q15.5 25.1 12.5 27 9.5 28.9 9.5 31.55 9.5 34.15 12.5 36.05 15.5 37.95 19.9 37.95 L26.15 37.95 Q25.6 40.75 20.85 41.45 L17.3 41.45 Q7.6 40 5.45 34.75 5.05 33.45 5 32 5.9 23 17.55 21.05 L36.9 21.05 Q41.25 21.05 44.35 24.1 L45.35 25.1 M42.15 32.75 L44.6 32.45 45.1 32.5 45.3 32.7 46 35.2 45.95 35.45 45.85 35.55 43.15 37.85 42.95 37.95 42.1 38.5 39.4 39.9 38.8 40.05 38.25 39.95 Q37.15 39.2 36.65 38.25 L36.55 37.95 Q36.25 37.2 36.3 36.35 36.3 35.45 36.75 34.4 L36.95 34.15 37.3 34 Q39.7 33.15 42.15 32.75"/>
    <path stroke="none" fill="#788383" d="M43.15 37.95 L46.7 37.95 Q51.85 37.95 55.4 36.05 59.2 34.15 59.2 31.55 59.2 28.9 55.4 27 51.85 25.1 46.7 25.1 L45.35 25.1 44.35 24.1 Q41.25 21.05 36.9 21.05 L17.55 21.05 Q5.9 23 5 32 5.05 33.45 5.45 34.75 7.6 40 17.3 41.45 L20.85 41.45 Q25.6 40.75 26.15 37.95 L36.55 37.95 36.65 38.25 Q37.15 39.2 38.25 39.95 L38.8 40.05 39.4 39.9 42.1 38.5 42.95 37.95 43.15 37.95 M17.55 19.05 L36.9 19.05 Q42 19.05 45.65 22.55 L46.25 23.1 46.7 23.1 Q52.4 23.1 56.3 25.2 L56.35 25.25 Q61.45 27.8 61.2 31.55 61.45 35.25 56.35 37.85 L56.3 37.85 Q52.4 39.95 46.7 39.95 L43.55 39.95 43.2 40.2 43.15 40.25 Q41.8 41.05 40.25 41.75 L40.2 41.75 38.8 42.05 Q37.6 42.05 37.15 41.65 L37.15 41.6 Q36 40.85 35.35 39.95 L27.65 39.95 Q26.25 42.65 21.15 43.45 L20.85 43.45 17.3 43.45 17 43.45 Q5.9 41.75 3.6 35.5 L3.55 35.35 Q3.05 33.8 3 32.1 L3 31.8 Q3.9 21.3 17.25 19.1 L17.55 19.05"/>
    <path stroke="none" fill="#B5CACB" d="M50.6 29.75 Q49.95 30.25 49.85 30.9 49.7 31.65 50.1 32.35 50.6 33.05 51.3 33.15 52.1 33.3 52.7 32.8 53.45 32.35 53.6 31.6 53.75 30.95 53.2 30.25 52.8 29.55 52 29.35 51.3 29.25 50.6 29.75 M45.35 25.1 L46.7 25.1 Q51.85 25.1 55.4 27 59.2 28.9 59.2 31.55 59.2 34.15 55.4 36.05 51.85 37.95 46.7 37.95 L43.15 37.95 43.15 37.85 45.85 35.55 45.95 35.45 46 35.2 45.3 32.7 45.1 32.5 44.6 32.45 42.15 32.75 Q38.1 27.5 40.7 25.1 L45.35 25.1"/>
    <path stroke="none" fill="#ACC0C1" d="M40.7 25.1 Q38.1 27.5 42.15 32.75 39.7 33.15 37.3 34 L36.95 34.15 36.75 34.4 Q36.3 35.45 36.3 36.35 36.25 37.2 36.55 37.95 L26.15 37.95 19.9 37.95 Q15.5 37.95 12.5 36.05 9.5 34.15 9.5 31.55 9.5 28.9 12.5 27 15.5 25.1 19.9 25.1 L40.7 25.1 M43.15 37.85 L43.15 37.95 42.95 37.95 43.15 37.85"/>
  </g>
</svg>