<svg width="64" height="64" xmlns="http://www.w3.org/2000/svg" xmlns:xlink="http://www.w3.org/1999/xlink">
  <defs/>
  <g>
    <path stroke="none" fill="#C985D0" d="M28.35 29.6 Q30.7 31.6 28.35 33.55 L23.45 37.8 Q21.15 39.75 18.85 37.8 L13.9 33.55 Q11.55 31.6 13.9 29.6 L18.85 25.35 Q21.15 23.4 23.45 25.35 L28.35 29.6"/>
    <path stroke="none" fill="#C985D0" d="M40.2 36.45 Q37.05 41.35 32.85 43.15 L32.35 43.15 Q32.1 43.15 31.95 42.95 L29.95 40.15 29.8 39.7 29.9 39.25 30.2 38.95 Q34.25 36.55 36.8 32.75 L37.15 32.45 37.6 32.45 37.95 32.65 40.15 35.45 40.35 35.95 40.2 36.45"/>
    <path stroke="none" fill="#C985D0" d="M29.2 22.25 L29.3 21.7 29.65 21.4 Q35.9 19.6 42.65 22.5 L43.1 22.9 43.15 23.5 41.5 29.85 41.25 30.25 40.8 30.3 30.7 28.45 30.25 28.15 30 27.7 29.2 22.25"/>
    <path stroke="none" fill="#D890E0" d="M44.1 25 L44.5 24.95 Q47.3 24.95 49.25 26.9 51.25 28.9 51.25 31.7 51.25 34.5 49.25 36.5 47.3 38.5 44.5 38.5 L44.1 38.5 37.35 31.75 44.1 25"/>
    <path stroke="none" fill="#E599EE" d="M44.1 25 L37.35 31.75 44.1 38.5 Q37.25 38.35 31.85 37.2 L28.9 36.5 Q22.1 34.5 22.1 31.7 22.1 28.9 28.9 26.9 35.3 25.1 44.1 25"/>
    <path stroke="none" fill="#AF75B6" d="M47.1 33.05 Q46.3 33.05 45.7 32.4 45.1 31.85 45.1 31 45.1 30.2 45.7 29.6 46.3 29 47.1 29 47.95 29 48.5 29.6 49.15 30.2 49.15 31 49.15 31.85 48.5 32.4 47.95 33.05 47.1 33.05"/>
  </g>
</svg>