<svg width="64" height="64" xmlns="http://www.w3.org/2000/svg" xmlns:xlink="http://www.w3.org/1999/xlink">
  <defs/>
  <g>
    <path stroke="none" fill="#CCCCCC" d="M38.7 37.25 Q40.45 38.35 41.4 40.2 L41.5 40.4 Q42.3 42.3 42.1 44.4 L42.1 44.45 42.1 44.8 Q41.7 47 40.1 48.75 38.8 50.35 36.85 51.35 34.8 52.35 32.55 52.4 L32.5 52.4 32.35 52.4 32.3 52.4 Q29.7 52.35 27.95 51.2 25.9 49.95 24.95 48 L24.9 47.95 Q23.8 45.85 24.3 43.4 L24.3 43.45 Q24.55 41.6 25.75 39.95 L26.65 38.9 Q27.85 37.7 29.45 36.9 L29.9 36.7 Q31.75 35.8 33.9 35.8 36.55 35.8 38.45 37.1 L38.7 37.25 M39.6 41.1 Q38.85 39.65 37.4 38.8 L37.35 38.75 Q35.9 37.8 33.9 37.8 32 37.8 30.35 38.7 L30.35 38.65 Q28.8 39.45 27.7 40.7 L27.65 40.75 Q26.5 42.2 26.25 43.75 25.9 45.55 26.75 47.1 L26.7 47.05 Q27.45 48.55 29 49.5 30.35 50.35 32.35 50.4 L32.5 50.4 Q34.3 50.35 35.95 49.55 37.55 48.75 38.6 47.4 L38.55 47.5 Q39.8 46.1 40.1 44.45 L40.1 44.4 Q40.3 42.7 39.65 41.2 L39.6 41.1"/>
    <path stroke="none" fill="#FFCC00" d="M33.9 39.8 Q35.3 39.8 36.3 40.45 37.3 41.05 37.8 42 38.25 43 38.1 44.1 37.9 45.2 37.05 46.15 36.25 47.15 35.05 47.75 33.8 48.35 32.4 48.4 31 48.35 30 47.75 29 47.15 28.5 46.15 28 45.2 28.2 44.1 28.4 43 29.2 42 30.05 41.05 31.25 40.45 32.5 39.8 33.9 39.8"/>
    <path stroke="none" fill="#FFFFFF" d="M33.9 39.8 Q32.5 39.8 31.25 40.45 30.05 41.05 29.2 42 28.4 43 28.2 44.1 28 45.2 28.5 46.15 29 47.15 30 47.75 31 48.35 32.4 48.4 33.8 48.35 35.05 47.75 36.25 47.15 37.05 46.15 37.9 45.2 38.1 44.1 38.25 43 37.8 42 37.3 41.05 36.3 40.45 35.3 39.8 33.9 39.8 M39.6 41.1 L39.65 41.2 Q40.3 42.7 40.1 44.4 L40.1 44.45 Q39.8 46.1 38.55 47.5 L38.6 47.4 Q37.55 48.75 35.95 49.55 34.3 50.35 32.5 50.4 L32.35 50.4 Q30.35 50.35 29 49.5 27.45 48.55 26.7 47.05 L26.75 47.1 Q25.9 45.55 26.25 43.75 26.5 42.2 27.65 40.75 L27.7 40.7 Q28.8 39.45 30.35 38.65 L30.35 38.7 Q32 37.8 33.9 37.8 35.9 37.8 37.35 38.75 L37.4 38.8 Q38.85 39.65 39.6 41.1"/>
  </g>
</svg>