<svg width="64" height="64" xmlns="http://www.w3.org/2000/svg" xmlns:xlink="http://www.w3.org/1999/xlink">
  <defs/>
  <g>
    <path stroke="none" fill="#CCCCCC" d="M47.05 17.65 L46.85 16.55 46.1 15.7 Q45.6 15.4 45 15.4 L22.95 15.85 Q22.2 15.85 21.65 16.4 21.1 16.85 21.05 17.6 L20.05 25.8 Q19.95 26.4 20.2 26.95 L20.95 27.75 22.05 28.05 29.95 27.9 18.25 44.2 Q17.85 44.65 17.85 45.3 17.85 45.9 18.15 46.4 L19.05 47.2 26.65 50.65 28 50.75 Q28.65 50.55 29.1 49.95 L45.65 26.75 46 25.85 47.05 17.65 M49.05 17.9 L48 26.1 47.95 26.25 47.35 27.8 47.3 27.9 30.75 51.1 30.7 51.15 Q29.85 52.3 28.6 52.65 L28.45 52.7 25.95 52.55 25.85 52.5 18.25 49.05 18.15 49 Q17 48.4 16.45 47.45 15.85 46.45 15.85 45.3 15.85 43.95 16.65 43.05 L26 30 22.05 30.05 Q20.9 30.05 19.95 29.5 18.9 28.85 18.4 27.85 L18.4 27.8 Q17.85 26.7 18.1 25.5 L19.1 17.35 19.05 17.5 Q19.15 15.95 20.25 15 21.35 13.85 22.9 13.85 L45 13.4 Q46.15 13.4 47.15 14 48.15 14.6 48.7 15.75 49.15 16.75 49.05 17.85 L49.05 17.9"/>
    <path stroke="none" fill="#FFFFFF" d="M47.05 17.65 L46 25.85 45.65 26.75 29.1 49.95 Q28.65 50.55 28 50.75 L26.65 50.65 19.05 47.2 18.15 46.4 Q17.85 45.9 17.85 45.3 17.85 44.65 18.25 44.2 L29.95 27.9 22.05 28.05 20.95 27.75 20.2 26.95 Q19.95 26.4 20.05 25.8 L21.05 17.6 Q21.1 16.85 21.65 16.4 22.2 15.85 22.95 15.85 L45 15.4 Q45.6 15.4 46.1 15.7 L46.85 16.55 47.05 17.65 M45.05 17.4 L23 17.85 22 26.05 33.65 25.8 33.6 26.25 19.85 45.35 27.45 48.8 44 25.6 45.05 17.4"/>
    <path stroke="none" fill="#FFCC00" d="M45.05 17.4 L44 25.6 27.45 48.8 19.85 45.35 33.6 26.25 33.65 25.8 22 26.05 23 17.85 45.05 17.4"/>
  </g>
</svg>