<svg width="64" height="64" xmlns="http://www.w3.org/2000/svg" xmlns:xlink="http://www.w3.org/1999/xlink">
  <defs/>
  <g>
    <path stroke="none" fill="#CCCCCC" d="M21.45 19.95 L21.35 20.05 32.6 13.6 Q33.75 12.9 35 13 L35.1 13 42.65 13.85 Q43.75 13.95 44.65 14.7 L44.8 14.8 45.95 16.35 46 16.5 Q46.35 17.55 46.2 18.6 L46.2 18.65 42.65 36.7 44.05 37.2 Q45 37.7 45.6 38.8 L45.7 38.95 Q46.15 39.95 46.05 41.1 L46.05 41.15 45.2 48.45 45.2 48.5 Q45 49.95 43.9 50.95 L43.85 51 Q42.65 51.95 41.2 51.95 L21.45 51.95 Q20.3 51.95 19.35 51.4 L19.2 51.3 Q18.25 50.6 17.85 49.6 17.3 48.45 17.55 47.35 L18.8 40.05 Q18.95 38.5 20.15 37.6 21.2 36.65 22.7 36.65 L25.05 36.65 25.8 33 Q24.3 33.3 23 32.55 L23.05 32.6 Q21.55 31.75 21.15 30.15 L19.55 24.55 19.55 24.6 Q19.15 23.3 19.65 22 20.15 20.6 21.45 19.95 M22.35 21.75 Q21.75 22.05 21.5 22.7 21.25 23.35 21.45 24 L23.05 29.6 Q23.25 30.4 24 30.8 L25.5 31 28.45 30.15 26.65 38.65 22.7 38.65 Q21.95 38.65 21.4 39.15 20.85 39.6 20.75 40.35 L19.5 47.65 Q19.4 48.2 19.65 48.75 19.85 49.3 20.35 49.65 L21.45 49.95 41.2 49.95 Q41.95 49.95 42.55 49.45 L43.2 48.2 44.05 40.9 43.85 39.75 43.05 38.95 41.95 38.65 40.2 38.75 44.2 18.25 44.1 17.15 43.45 16.3 Q43 15.9 42.45 15.85 L34.85 15 33.6 15.3 22.35 21.75"/>
    <path stroke="none" fill="#FFFFFF" d="M22.35 21.75 L33.6 15.3 34.85 15 42.45 15.85 Q43 15.9 43.45 16.3 L44.1 17.15 44.2 18.25 40.2 38.75 41.95 38.65 43.05 38.95 43.85 39.75 44.05 40.9 43.2 48.2 42.55 49.45 Q41.95 49.95 41.2 49.95 L21.45 49.95 20.35 49.65 Q19.85 49.3 19.65 48.75 19.4 48.2 19.5 47.65 L20.75 40.35 Q20.85 39.6 21.4 39.15 21.95 38.65 22.7 38.65 L26.65 38.65 28.45 30.15 25.5 31 24 30.8 Q23.25 30.4 23.05 29.6 L21.45 24 Q21.25 23.35 21.5 22.7 21.75 22.05 22.35 21.75 M31.1 27.3 L28.25 40.65 22.7 40.65 21.45 47.95 41.2 47.95 42.05 40.65 37.75 40.85 42.2 17.85 34.6 17 23.35 23.45 24.95 29.05 31.1 27.3"/>
    <path stroke="none" fill="#FFCC00" d="M31.1 27.3 L24.95 29.05 23.35 23.45 34.6 17 42.2 17.85 37.75 40.85 42.05 40.65 41.2 47.95 21.45 47.95 22.7 40.65 28.25 40.65 31.1 27.3"/>
  </g>
</svg>