<svg width="64" height="64" xmlns="http://www.w3.org/2000/svg" xmlns:xlink="http://www.w3.org/1999/xlink">
  <defs/>
  <g>
    <path stroke="none" fill="#CCCCCC" d="M39.55 22.9 Q41.5 24 42.55 26 L42.65 26.2 Q43.45 28.1 43.25 30.2 L43.25 30.25 43.25 30.6 Q42.85 32.8 41.2 34.65 L41.25 34.55 Q40 36.15 38 37.15 L37.55 37.35 Q39.2 38.45 40.1 40.2 L40.2 40.4 Q41 42.3 40.8 44.4 L40.8 44.45 40.8 44.8 Q40.4 47 38.75 48.85 L38.8 48.75 Q37.55 50.35 35.55 51.35 33.5 52.35 31.25 52.4 L31.2 52.4 31.05 52.4 31 52.4 Q28.4 52.35 26.65 51.2 24.55 49.95 23.65 48 L23.7 48.05 Q22.5 45.9 23 43.4 L23 43.45 Q23.25 41.6 24.45 39.95 L25.35 38.9 Q26.55 37.7 28.15 36.9 L28.55 36.75 28.65 36.7 Q26.9 35.5 26.1 33.8 L26.15 33.85 Q24.95 31.7 25.45 29.2 L25.45 29.25 Q25.7 27.4 26.9 25.75 L27.8 24.7 Q29 23.5 30.6 22.7 L31.05 22.5 Q31.85 22.1 32.8 21.9 L32.75 21.9 35.05 21.6 35.1 21.6 36.35 21.7 Q38.15 21.95 39.65 22.95 L39.55 22.9 M40.85 27 L40.8 26.9 Q40.05 25.45 38.6 24.6 L38.55 24.55 Q37.1 23.6 35.1 23.6 33.2 23.6 31.55 24.5 L31.55 24.45 Q30 25.25 28.9 26.5 L28.85 26.55 Q27.7 28 27.5 29.65 L27.5 29.55 Q27.15 31.3 27.9 32.8 L27.9 32.85 Q28.65 34.35 30.1 35.25 31.6 36.2 33.6 36.2 35.5 36.2 37.2 35.35 L37.15 35.35 Q38.75 34.55 39.8 33.2 L39.75 33.3 Q41 31.9 41.3 30.25 L41.3 30.2 Q41.5 28.5 40.85 27 M38.35 41.2 L38.3 41.1 Q37.55 39.65 36.1 38.8 L36.05 38.75 Q34.6 37.8 32.6 37.8 30.7 37.8 29.05 38.7 L29.05 38.65 Q27.5 39.45 26.4 40.7 L26.35 40.75 Q25.2 42.2 24.95 43.75 24.6 45.55 25.45 47.1 L25.4 47.05 Q26.15 48.55 27.7 49.5 29.05 50.35 31.05 50.4 L31.2 50.4 Q33 50.35 34.65 49.55 36.25 48.75 37.3 47.4 L37.25 47.5 Q38.5 46.1 38.8 44.45 L38.8 44.4 Q39 42.7 38.35 41.2"/>
    <path stroke="none" fill="#FFFFFF" d="M38.35 41.2 Q39 42.7 38.8 44.4 L38.8 44.45 Q38.5 46.1 37.25 47.5 L37.3 47.4 Q36.25 48.75 34.65 49.55 33 50.35 31.2 50.4 L31.05 50.4 Q29.05 50.35 27.7 49.5 26.15 48.55 25.4 47.05 L25.45 47.1 Q24.6 45.55 24.95 43.75 25.2 42.2 26.35 40.75 L26.4 40.7 Q27.5 39.45 29.05 38.65 L29.05 38.7 Q30.7 37.8 32.6 37.8 34.6 37.8 36.05 38.75 L36.1 38.8 Q37.55 39.65 38.3 41.1 L38.35 41.2 M40.85 27 Q41.5 28.5 41.3 30.2 L41.3 30.25 Q41 31.9 39.75 33.3 L39.8 33.2 Q38.75 34.55 37.15 35.35 L37.2 35.35 Q35.5 36.2 33.6 36.2 31.6 36.2 30.1 35.25 28.65 34.35 27.9 32.85 L27.9 32.8 Q27.15 31.3 27.5 29.55 L27.5 29.65 Q27.7 28 28.85 26.55 L28.9 26.5 Q30 25.25 31.55 24.45 L31.55 24.5 Q33.2 23.6 35.1 23.6 37.1 23.6 38.55 24.55 L38.6 24.6 Q40.05 25.45 40.8 26.9 L40.85 27 M37.5 26.25 Q36.5 25.6 35.1 25.6 33.7 25.6 32.45 26.25 31.25 26.85 30.4 27.8 29.6 28.8 29.45 29.9 29.25 31 29.7 31.95 30.2 32.95 31.15 33.55 32.2 34.2 33.6 34.2 35 34.2 36.25 33.55 37.45 32.95 38.25 31.95 39.1 31 39.3 29.9 39.45 28.8 39 27.8 38.5 26.85 37.5 26.25 M32.6 39.8 Q31.2 39.8 29.95 40.45 28.75 41.05 27.9 42 27.1 43 26.9 44.1 26.7 45.2 27.2 46.15 27.7 47.15 28.7 47.75 29.7 48.35 31.1 48.4 L33.75 47.75 Q34.95 47.15 35.75 46.15 36.6 45.2 36.8 44.1 36.95 43 36.5 42 36 41.05 35 40.45 34 39.8 32.6 39.8"/>
    <path stroke="none" fill="#FFCC00" d="M32.6 39.8 Q34 39.8 35 40.45 36 41.05 36.5 42 36.95 43 36.8 44.1 36.6 45.2 35.75 46.15 34.95 47.15 33.75 47.75 L31.1 48.4 Q29.7 48.35 28.7 47.75 27.7 47.15 27.2 46.15 26.7 45.2 26.9 44.1 27.1 43 27.9 42 28.75 41.05 29.95 40.45 31.2 39.8 32.6 39.8 M37.5 26.25 Q38.5 26.85 39 27.8 39.45 28.8 39.3 29.9 39.1 31 38.25 31.95 37.45 32.95 36.25 33.55 35 34.2 33.6 34.2 32.2 34.2 31.15 33.55 30.2 32.95 29.7 31.95 29.25 31 29.45 29.9 29.6 28.8 30.4 27.8 31.25 26.85 32.45 26.25 33.7 25.6 35.1 25.6 36.5 25.6 37.5 26.25"/>
  </g>
</svg>