<svg width="64" height="64" xmlns="http://www.w3.org/2000/svg" xmlns:xlink="http://www.w3.org/1999/xlink">
  <defs/>
  <g>
    <path stroke="none" fill="#CCCCCC" d="M34.65 18.35 L38.9 13 Q39.8 11.9 41.2 11.6 42.45 11.3 43.75 11.9 L51.5 15.75 51.55 15.8 Q52.6 16.4 53.2 17.45 53.8 18.55 53.7 19.75 53.6 20.9 52.8 21.9 L52.8 21.95 47.35 28.4 Q49.5 28.85 51.15 30.1 L51.2 30.1 Q53.85 32 55.05 35.15 L55.1 35.2 55.1 35.25 Q56.25 38.2 55.6 41.7 L55.5 42 Q54.9 44.95 53.1 47.35 L53.1 47.4 Q51.1 49.9 48.15 51.35 45.2 52.8 41.5 52.8 37.7 52.8 35.2 51.15 32.8 49.55 31.6 47 L28.65 50.55 27.3 51.6 27.1 51.7 25.55 51.95 15.85 51.95 Q14.25 51.95 13.15 50.95 11.95 49.85 11.85 48.25 11.75 46.65 12.75 45.45 L12.8 45.45 19.75 36.8 Q17.1 36.45 15.25 35.25 12.45 33.45 11.35 30.5 L11.35 30.45 Q10.25 27.75 10.85 24.25 11.35 21.35 13.2 18.65 15 15.95 17.7 14.25 20.65 12.2 24.4 12.15 L24.5 12.15 24.55 12.15 Q28.45 12.2 31.1 14.15 L31.15 14.15 Q33.4 15.8 34.65 18.35 M40.45 14.25 L33.8 22.55 33.2 20 33.2 20.05 Q32.2 17.4 30 15.8 L29.95 15.75 Q27.75 14.2 24.5 14.15 L24.4 14.15 Q21.3 14.2 18.8 15.9 L18.85 15.85 Q16.45 17.4 14.85 19.75 13.25 22.1 12.8 24.6 12.3 27.5 13.2 29.7 L13.2 29.75 Q14.1 32.15 16.35 33.55 18.35 34.85 21.45 34.9 L21.55 34.9 24 34.7 14.3 46.7 Q13.8 47.3 13.85 48.1 13.9 48.9 14.5 49.45 15.05 49.95 15.85 49.95 L25.55 49.95 26.4 49.8 27.1 49.25 32.6 42.7 Q32.65 44.3 33.2 45.7 34.15 48.05 36.25 49.45 L36.3 49.45 Q38.35 50.8 41.5 50.8 44.7 50.8 47.25 49.55 49.8 48.3 51.45 46.2 L51.5 46.15 Q53.15 43.95 53.6 41.2 L53.6 41.3 53.7 40.45 Q54 38.05 53.2 35.9 L53.2 35.85 Q52.2 33.3 50 31.7 L49.95 31.65 Q47.75 30.1 44.5 30.05 L44.4 30.05 43.25 30.15 51.25 20.65 51.7 19.55 Q51.75 18.95 51.45 18.4 L50.6 17.55 42.9 13.7 41.6 13.55 Q40.9 13.7 40.45 14.25"/>
    <path stroke="none" fill="#FFFFFF" d="M40.45 14.25 Q40.9 13.7 41.6 13.55 L42.9 13.7 50.6 17.55 51.45 18.4 Q51.75 18.95 51.7 19.55 L51.25 20.65 43.25 30.15 44.4 30.05 44.5 30.05 Q47.75 30.1 49.95 31.65 L50 31.7 Q52.2 33.3 53.2 35.85 L53.2 35.9 Q54 38.05 53.7 40.45 L53.6 41.3 53.6 41.2 Q53.15 43.95 51.5 46.15 L51.45 46.2 Q49.8 48.3 47.25 49.55 44.7 50.8 41.5 50.8 38.35 50.8 36.3 49.45 L36.25 49.45 Q34.15 48.05 33.2 45.7 32.65 44.3 32.6 42.7 L27.1 49.25 26.4 49.8 25.55 49.95 15.85 49.95 Q15.05 49.95 14.5 49.45 13.9 48.9 13.85 48.1 13.8 47.3 14.3 46.7 L24 34.7 21.55 34.9 21.45 34.9 Q18.35 34.85 16.35 33.55 14.1 32.15 13.2 29.75 L13.2 29.7 Q12.3 27.5 12.8 24.6 13.25 22.1 14.85 19.75 16.45 17.4 18.85 15.85 L18.8 15.9 Q21.3 14.2 24.4 14.15 L24.5 14.15 Q27.75 14.2 29.95 15.75 L30 15.8 Q32.2 17.4 33.2 20.05 L33.2 20 33.8 22.55 40.45 14.25 M42 15.5 L15.85 47.95 25.55 47.95 49.7 19.35 42 15.5 M44.45 32.05 Q41.95 32.1 39.9 33.4 37.85 34.75 36.5 36.75 35.25 38.55 34.85 40.45 L34.75 40.85 Q34.35 43.15 35.05 44.95 35.75 46.7 37.35 47.75 39 48.8 41.5 48.8 44.2 48.8 46.35 47.75 48.5 46.7 49.9 44.95 51.25 43.15 51.6 40.9 L51.7 40.45 Q52 38.4 51.3 36.55 50.55 34.55 48.8 33.3 47.05 32.1 44.45 32.05 M44.7 40.45 L44.65 40.85 43.9 42.6 Q43.4 43.25 42.95 43.25 42.25 43.2 41.95 42.55 41.65 41.85 41.85 40.85 L41.95 40.45 Q42.1 39.7 42.55 39.15 43 38.5 43.5 38.5 44.3 38.5 44.55 39.15 L44.7 40.45 M24.45 16.15 Q21.95 16.2 19.9 17.55 17.85 18.85 16.5 20.85 15.15 22.85 14.75 24.95 14.35 27.25 15.05 29 15.7 30.8 17.4 31.85 19 32.85 21.5 32.9 24.2 32.85 26.35 31.85 28.5 30.8 29.9 29.05 31.25 27.25 31.65 25 32.05 22.65 31.3 20.7 30.55 18.65 28.8 17.4 27.05 16.2 24.45 16.15 M24.65 24.95 Q24.45 26.1 23.95 26.7 23.4 27.3 22.9 27.3 22.25 27.3 21.95 26.6 21.7 25.95 21.85 24.95 22.05 23.95 22.55 23.3 23.05 22.6 23.55 22.6 24.35 22.6 24.6 23.3 24.8 23.95 24.65 24.95"/>
    <path stroke="none" fill="#FFCC00" d="M24.65 24.95 Q24.8 23.95 24.6 23.3 24.35 22.6 23.55 22.6 23.05 22.6 22.55 23.3 22.05 23.95 21.85 24.95 21.7 25.95 21.95 26.6 22.25 27.3 22.9 27.3 23.4 27.3 23.95 26.7 24.45 26.1 24.65 24.95 M24.45 16.15 Q27.05 16.2 28.8 17.4 30.55 18.65 31.3 20.7 32.05 22.65 31.65 25 31.25 27.25 29.9 29.05 28.5 30.8 26.35 31.85 24.2 32.85 21.5 32.9 19 32.85 17.4 31.85 15.7 30.8 15.05 29 14.35 27.25 14.75 24.95 15.15 22.85 16.5 20.85 17.85 18.85 19.9 17.55 21.95 16.2 24.45 16.15 M44.7 40.45 L44.55 39.15 Q44.3 38.5 43.5 38.5 43 38.5 42.55 39.15 42.1 39.7 41.95 40.45 L41.85 40.85 Q41.65 41.85 41.95 42.55 42.25 43.2 42.95 43.25 43.4 43.25 43.9 42.6 L44.65 40.85 44.7 40.45 M44.45 32.05 Q47.05 32.1 48.8 33.3 50.55 34.55 51.3 36.55 52 38.4 51.7 40.45 L51.6 40.9 Q51.25 43.15 49.9 44.95 48.5 46.7 46.35 47.75 44.2 48.8 41.5 48.8 39 48.8 37.35 47.75 35.75 46.7 35.05 44.95 34.35 43.15 34.75 40.85 L34.85 40.45 Q35.25 38.55 36.5 36.75 37.85 34.75 39.9 33.4 41.95 32.1 44.45 32.05 M42 15.5 L49.7 19.35 25.55 47.95 15.85 47.95 42 15.5"/>
  </g>
</svg>