<svg width="64" height="64" xmlns="http://www.w3.org/2000/svg" xmlns:xlink="http://www.w3.org/1999/xlink">
  <defs/>
  <g>
    <path stroke="none" fill="#CCCCCC" d="M36.6 13 Q44.3 13 47.35 16.2 L47.45 16.25 Q51.45 19.6 50.25 26.3 L50.25 26.35 Q49.6 29.65 47.75 32.55 L45.15 35.9 Q45.85 36.05 46.5 36.55 L46.4 36.5 Q47.45 37.15 47.95 38.35 L48 38.5 Q48.4 39.65 48.1 40.8 L46.05 48.95 46 49.05 Q45.65 50.2 44.75 51.05 L44.6 51.2 Q43.5 51.95 42.15 51.95 L19.6 51.95 Q18.4 51.95 17.55 51.4 L17.45 51.35 Q16.45 50.7 16 49.65 L16 49.7 Q15.45 48.6 15.7 47.4 L15.7 47.55 16.65 39.4 16.6 39.45 Q16.65 38.5 17.1 37.8 L17.75 37 19.65 35.7 19.7 35.7 20.05 35.5 22.4 34.1 22.6 34 24.15 32.95 22.95 31.2 22.9 31.15 22.75 30.9 19.25 25.1 19.25 25.05 Q18.55 23.85 18.75 22.5 L18.7 22.6 Q18.8 21.1 19.9 20.15 L21.5 18.85 25.05 16.6 Q27.25 15.3 30 14.35 L30.15 14.25 Q33.3 13 36.6 13 M36.6 15 Q33.65 15 30.85 16.1 L30.9 16.1 Q28.2 17.05 26.05 18.3 23.9 19.55 22.7 20.45 L21.25 21.6 Q20.75 22.05 20.7 22.75 20.6 23.45 20.95 24.05 L24.45 29.85 25.3 30.6 26.4 30.8 27.4 30.35 28.2 29.7 28.15 29.75 30.1 28.45 Q31.2 27.7 32.45 27.2 L34.1 26.8 33.2 28.15 33.15 28.2 30.5 30.8 26.95 33.45 23.4 35.85 23.4 35.8 20.7 37.4 20.65 37.45 19.15 38.4 Q18.65 38.9 18.6 39.6 L17.65 47.75 Q17.55 48.3 17.8 48.8 L18.55 49.65 19.6 49.95 42.15 49.95 Q42.85 49.95 43.4 49.55 L44.1 48.45 46.15 40.3 46.1 39.1 45.3 38.15 Q44.75 37.75 44.15 37.8 L39.95 37.95 42.5 35.75 Q44.5 33.85 46.05 31.45 47.7 28.9 48.25 25.95 49.25 20.5 46.1 17.75 L46.05 17.75 Q43.4 15 36.6 15"/>
    <path stroke="none" fill="#FFFFFF" d="M36.6 15 Q43.4 15 46.05 17.75 L46.1 17.75 Q49.25 20.5 48.25 25.95 47.7 28.9 46.05 31.45 44.5 33.85 42.5 35.75 L39.95 37.95 44.15 37.8 Q44.75 37.75 45.3 38.15 L46.1 39.1 46.15 40.3 44.1 48.45 43.4 49.55 Q42.85 49.95 42.15 49.95 L19.6 49.95 18.55 49.65 17.8 48.8 Q17.55 48.3 17.65 47.75 L18.6 39.6 Q18.65 38.9 19.15 38.4 L20.65 37.45 20.7 37.4 23.4 35.8 23.4 35.85 26.95 33.45 30.5 30.8 33.15 28.2 33.2 28.15 34.1 26.8 32.45 27.2 Q31.2 27.7 30.1 28.45 L28.15 29.75 28.2 29.7 27.4 30.35 26.4 30.8 25.3 30.6 24.45 29.85 20.95 24.05 Q20.6 23.45 20.7 22.75 20.75 22.05 21.25 21.6 L22.7 20.45 Q23.9 19.55 26.05 18.3 28.2 17.05 30.9 16.1 L30.85 16.1 Q33.65 15 36.6 15 M31.55 17.95 Q29.05 18.85 27.05 20 25.05 21.2 23.9 22.05 L22.65 23 26.15 28.8 26.95 28.15 29 26.75 31.65 25.35 Q33.1 24.75 34.4 24.75 35.4 24.75 35.85 25.3 36.3 25.9 36.15 26.85 35.95 28.05 34.7 29.45 33.5 30.9 31.75 32.35 L28.05 35.1 24.45 37.5 21.65 39.15 20.55 39.8 19.6 47.95 42.15 47.95 44.2 39.8 33.35 40.2 33.4 39.8 34.6 39.15 Q35.75 38.5 37.5 37.25 L41.1 34.3 Q42.95 32.55 44.35 30.35 45.8 28.15 46.25 25.6 47.05 21.35 44.7 19.2 42.4 17 36.6 17 34 17 31.55 17.95"/>
    <path stroke="none" fill="#FFCC00" d="M31.55 17.95 Q34 17 36.6 17 42.4 17 44.7 19.2 47.05 21.35 46.25 25.6 45.8 28.15 44.35 30.35 42.95 32.55 41.1 34.3 L37.5 37.25 Q35.75 38.5 34.6 39.15 L33.4 39.8 33.35 40.2 44.2 39.8 42.15 47.95 19.6 47.95 20.55 39.8 21.65 39.15 24.45 37.5 28.05 35.1 31.75 32.35 Q33.5 30.9 34.7 29.45 35.95 28.05 36.15 26.85 36.3 25.9 35.85 25.3 35.4 24.75 34.4 24.75 33.1 24.75 31.65 25.35 L29 26.75 26.95 28.15 26.15 28.8 22.65 23 23.9 22.05 Q25.05 21.2 27.05 20 29.05 18.85 31.55 17.95"/>
  </g>
</svg>