<svg width="64" height="64" xmlns="http://www.w3.org/2000/svg" xmlns:xlink="http://www.w3.org/1999/xlink">
  <defs/>
  <g>
    <path stroke="none" fill="#CCCCCC" d="M29.1 16.2 L29.15 16.2 Q25.9 17.35 23.85 19.35 L23.8 19.4 Q21.45 21.6 21 24.4 L21 24.45 Q20.6 27 21.15 28.55 L21.15 28.5 Q21.65 30.15 22.55 31.15 L21.75 31.65 21.7 31.7 Q20.25 32.8 18.95 34.5 L18.9 34.55 Q17.65 36.35 17.1 38.95 L17.1 39.05 Q16.5 42.8 18.25 45.65 L18.3 45.7 Q19.95 48.35 23.2 49.85 26.25 51.2 30.2 51.25 L30.25 51.25 Q34.05 51.2 37.5 49.9 41.1 48.5 43.55 46 46.15 43.3 46.85 39.7 47.25 36.9 46.55 35 45.8 33 44.55 31.85 L44.2 31.55 44.3 31.45 46.6 29.1 46.6 29.05 Q47.7 27.45 48.15 25.1 48.6 22.05 46.75 19.6 45.15 17.4 42.15 16.2 L42.2 16.2 Q39.3 15 35.9 15 32.2 15 29.1 16.2 M28.5 14.35 Q31.85 13 35.9 13 39.7 13 43 14.35 L43.3 14.5 Q46.55 15.9 48.35 18.4 L48.4 18.45 Q50.7 21.55 50.15 25.4 L50.15 25.5 Q49.6 28.1 48.45 29.95 L48.2 30.35 47.45 31.25 Q47.15 31.75 47.45 32.3 L48.45 34.3 Q49.3 36.6 48.85 40 L48.85 40.1 Q48 44.25 45 47.4 42.25 50.2 38.25 51.8 L38.2 51.8 Q34.45 53.2 30.3 53.25 L30.2 53.25 Q25.8 53.2 22.4 51.7 L22.35 51.7 Q18.7 49.95 16.75 47 L16.55 46.7 Q14.45 43.3 15.1 38.9 L15.15 38.55 Q15.8 35.5 17.25 33.4 L17.35 33.3 Q18.45 31.85 19.3 31.25 20.15 30.65 19.85 30.1 L19.3 29.25 19.25 29.1 Q18.55 27.25 19 24.3 L19.05 24.1 Q19.55 20.7 22.4 18 L22.45 17.95 Q24.75 15.65 28.5 14.35"/>
    <path stroke="none" fill="#FFFFFF" d="M29.1 16.2 Q32.2 15 35.9 15 39.3 15 42.2 16.2 L42.15 16.2 Q45.15 17.4 46.75 19.6 48.6 22.05 48.15 25.1 47.7 27.45 46.6 29.05 L46.6 29.1 44.3 31.45 44.2 31.55 44.55 31.85 Q45.8 33 46.55 35 47.25 36.9 46.85 39.7 46.15 43.3 43.55 46 41.1 48.5 37.5 49.9 34.05 51.2 30.25 51.25 L30.2 51.25 Q26.25 51.2 23.2 49.85 19.95 48.35 18.3 45.7 L18.25 45.65 Q16.5 42.8 17.1 39.05 L17.1 38.95 Q17.65 36.35 18.9 34.55 L18.95 34.5 Q20.25 32.8 21.7 31.7 L21.75 31.65 22.55 31.15 Q21.65 30.15 21.15 28.5 L21.15 28.55 Q20.6 27 21 24.45 L21 24.4 Q21.45 21.6 23.8 19.4 L23.85 19.35 Q25.9 17.35 29.15 16.2 L29.1 16.2 M25.2 20.8 Q23.35 22.55 22.95 24.75 22.65 26.7 23.05 27.9 23.45 29.2 24.15 29.9 L25.45 30.9 26.05 31.15 26.05 31.6 25.1 32 22.9 33.3 Q21.65 34.25 20.55 35.7 19.5 37.2 19.05 39.35 18.6 42.35 19.95 44.6 21.35 46.8 24 48 26.7 49.2 30.2 49.25 33.65 49.2 36.8 48 39.95 46.8 42.1 44.6 44.3 42.35 44.85 39.35 45.2 37.2 44.65 35.7 44.1 34.2 43.15 33.3 L41.45 32 40.65 31.6 40.7 31.15 41.4 30.9 43.1 29.85 44.95 27.9 Q45.8 26.65 46.15 24.75 46.5 22.55 45.15 20.8 43.85 19.05 41.4 18.05 38.9 17 35.9 17 32.6 17 29.8 18.05 27 19.05 25.2 20.8 M36.85 26.2 Q36.7 27.25 35.95 27.9 35.25 28.55 33.65 28.6 32.4 28.55 31.75 27.9 31.1 27.25 31.3 26.2 31.4 25.25 32.15 24.55 32.9 23.9 34.45 23.85 36.05 23.9 36.55 24.55 37.05 25.25 36.85 26.2 M35.1 36.75 Q35.75 37.55 35.5 38.7 L35 40.2 33.8 41.4 31.5 41.9 Q30 41.9 29.35 41.4 28.7 40.95 28.55 40.2 L28.6 38.7 Q28.8 37.55 29.75 36.75 30.65 35.95 32.55 35.9 34.45 35.95 35.1 36.75"/>
    <path stroke="none" fill="#FFCC00" d="M35.1 36.75 Q34.45 35.95 32.55 35.9 30.65 35.95 29.75 36.75 28.8 37.55 28.6 38.7 L28.55 40.2 Q28.7 40.95 29.35 41.4 30 41.9 31.5 41.9 L33.8 41.4 35 40.2 35.5 38.7 Q35.75 37.55 35.1 36.75 M36.85 26.2 Q37.05 25.25 36.55 24.55 36.05 23.9 34.45 23.85 32.9 23.9 32.15 24.55 31.4 25.25 31.3 26.2 31.1 27.25 31.75 27.9 32.4 28.55 33.65 28.6 35.25 28.55 35.95 27.9 36.7 27.25 36.85 26.2 M25.2 20.8 Q27 19.05 29.8 18.05 32.6 17 35.9 17 38.9 17 41.4 18.05 43.85 19.05 45.15 20.8 46.5 22.55 46.15 24.75 45.8 26.65 44.95 27.9 L43.1 29.85 41.4 30.9 40.7 31.15 40.65 31.6 41.45 32 43.15 33.3 Q44.1 34.2 44.65 35.7 45.2 37.2 44.85 39.35 44.3 42.35 42.1 44.6 39.95 46.8 36.8 48 33.65 49.2 30.2 49.25 26.7 49.2 24 48 21.35 46.8 19.95 44.6 18.6 42.35 19.05 39.35 19.5 37.2 20.55 35.7 21.65 34.25 22.9 33.3 L25.1 32 26.05 31.6 26.05 31.15 25.45 30.9 24.15 29.9 Q23.45 29.2 23.05 27.9 22.65 26.7 22.95 24.75 23.35 22.55 25.2 20.8"/>
  </g>
</svg>