<svg width="64" height="64" xmlns="http://www.w3.org/2000/svg" xmlns:xlink="http://www.w3.org/1999/xlink">
  <defs/>
  <g>
    <path stroke="none" fill="#CCCCCC" d="M46.95 19.15 Q48.4 21.95 47.85 25.45 L47.65 26 Q47.1 28.35 45.95 30.05 L44.8 31.5 Q45.65 32.55 46.3 33.95 47.55 36.4 47 40 L47 40.05 Q46.35 43.75 43.65 46.8 41.15 49.55 37.15 51.2 33.45 52.75 28.5 52.8 L28.45 52.8 26.85 52.7 23.8 52.15 21.6 51.4 20.85 51.15 Q19.85 50.7 18.55 49.85 L15.65 47.7 15.7 47.7 Q15.45 47.5 15.65 47.5 15.2 47.35 14.85 47 13.6 45.75 13.65 44.2 13.65 42.65 14.65 41.55 L14.65 41.5 23.15 31.45 19.5 23.1 19.45 23.1 Q17.55 20 21.65 17.4 L21.9 17.3 21.85 17.3 22.2 17.1 24.75 15.65 25.05 15.5 Q26.85 14.55 29.1 13.85 L29.35 13.8 31.45 13.3 34.35 13 34.45 13 Q39.2 13 42.05 14.5 L42.1 14.55 Q45.5 16.2 46.9 19.05 L46.95 19.15 M45.15 20.05 L45.15 20.1 Q44.05 17.7 41.15 16.3 L41.2 16.3 Q38.65 15 34.45 15 L34.4 15 Q32 15.05 29.75 15.75 L29.7 15.75 Q27.45 16.45 25.7 17.4 L25.65 17.4 23 18.95 22.9 19 Q20.4 20.5 21 21.3 L21.25 22.2 24.1 27.8 Q24.35 28.4 24.95 28.7 L26.05 28.9 24.3 37 24.1 36.85 Q23.45 36.25 22.65 36.3 21.8 36.35 21.25 37 L16.15 42.8 Q15.65 43.4 15.65 44.2 15.65 44.95 16.25 45.55 L17.15 46.3 17.05 46.25 19.6 48.15 21.35 49.15 23.35 50 23.45 50 Q25.65 50.75 28.35 50.8 L28.45 50.8 Q33 50.75 36.4 49.35 39.95 47.9 42.15 45.45 44.45 42.85 45 39.7 45.45 36.8 44.55 34.85 L44.5 34.8 Q43.6 32.9 42.3 31.85 L42.25 31.8 41.9 31.5 42 31.4 44.3 28.9 Q45.35 27.35 45.8 25.15 L45.85 25.1 Q46.3 22.3 45.15 20.05"/>
    <path stroke="none" fill="#FFFFFF" d="M45.15 20.05 Q46.3 22.3 45.85 25.1 L45.8 25.15 Q45.35 27.35 44.3 28.9 L42 31.4 41.9 31.5 42.25 31.8 42.3 31.85 Q43.6 32.9 44.5 34.8 L44.55 34.85 Q45.45 36.8 45 39.7 44.45 42.85 42.15 45.45 39.95 47.9 36.4 49.35 33 50.75 28.45 50.8 L28.35 50.8 Q25.65 50.75 23.45 50 L23.35 50 21.35 49.15 19.6 48.15 17.05 46.25 17.15 46.3 16.25 45.55 Q15.65 44.95 15.65 44.2 15.65 43.4 16.15 42.8 L21.25 37 Q21.8 36.35 22.65 36.3 23.45 36.25 24.1 36.85 L24.3 37 26.05 28.9 24.95 28.7 Q24.35 28.4 24.1 27.8 L21.25 22.2 21 21.3 Q20.4 20.5 22.9 19 L23 18.95 25.65 17.4 25.7 17.4 Q27.45 16.45 29.7 15.75 L29.75 15.75 Q32 15.05 34.4 15 L34.45 15 Q38.65 15 41.2 16.3 L41.15 16.3 Q44.05 17.7 45.15 20.1 L45.15 20.05 M23 21.3 L25.85 26.9 26.8 26.2 29.05 25 Q30.45 24.35 31.85 24.3 33.3 24.35 33.8 24.85 34.3 25.35 34.15 26.05 33.95 27 33 27.6 L30.95 28.5 28.95 28.95 28.05 29.05 26.65 35.7 29.9 35.7 Q31.8 35.7 32.65 36.45 33.5 37.2 33.25 38.5 33.05 39.65 31.95 40.45 30.85 41.25 28.9 41.3 L26.55 40.85 24.6 39.8 23.75 39.2 23.25 38.75 22.75 38.3 17.65 44.1 18.45 44.8 20.65 46.45 21.85 47.15 24.05 48.1 28.4 48.8 Q32.55 48.75 35.65 47.5 38.75 46.25 40.65 44.1 42.55 41.95 43 39.35 43.35 37.15 42.7 35.65 42 34.2 41 33.35 39.95 32.5 39.1 32.15 L38.2 31.8 38.25 31.35 39 31 40.75 29.85 42.65 27.75 Q43.5 26.5 43.85 24.75 44.2 22.65 43.35 20.95 42.5 19.15 40.3 18.1 38.1 17 34.45 17 32.3 17.05 30.3 17.65 28.25 18.3 26.6 19.15 L24 20.65 23 21.3"/>
    <path stroke="none" fill="#FFCC00" d="M23 21.3 L24 20.65 26.6 19.15 Q28.25 18.3 30.3 17.65 32.3 17.05 34.45 17 38.1 17 40.3 18.1 42.5 19.15 43.35 20.95 44.2 22.65 43.85 24.75 43.5 26.5 42.65 27.75 L40.75 29.85 39 31 38.25 31.35 38.2 31.8 39.1 32.15 Q39.95 32.5 41 33.35 42 34.2 42.7 35.65 43.35 37.15 43 39.35 42.55 41.95 40.65 44.1 38.75 46.25 35.65 47.5 32.55 48.75 28.4 48.8 L24.05 48.1 21.85 47.15 20.65 46.45 18.45 44.8 17.65 44.1 22.75 38.3 23.25 38.75 23.75 39.2 24.6 39.8 26.55 40.85 28.9 41.3 Q30.85 41.25 31.95 40.45 33.05 39.65 33.25 38.5 33.5 37.2 32.65 36.45 31.8 35.7 29.9 35.7 L26.65 35.7 28.05 29.05 28.95 28.95 30.95 28.5 33 27.6 Q33.95 27 34.15 26.05 34.3 25.35 33.8 24.85 33.3 24.35 31.85 24.3 30.45 24.35 29.05 25 L26.8 26.2 25.85 26.9 23 21.3"/>
  </g>
</svg>