<svg width="64" height="64" xmlns="http://www.w3.org/2000/svg" xmlns:xlink="http://www.w3.org/1999/xlink">
  <defs/>
  <g>
    <path stroke="none" fill="#CCCCCC" d="M48.15 21.8 Q49.75 25.6 48.85 31.05 47.15 41.05 40 46.65 33.3 52.05 20.85 52.8 L20.8 52.8 Q19.55 52.9 18.65 52.35 L18.6 52.35 Q17.65 51.8 17.15 50.95 L17.1 50.9 Q16.5 49.9 16.5 48.8 L16.5 41.5 Q16.5 39.85 17.65 38.75 L17.75 38.65 Q18.2 38.15 18.8 37.9 17.65 36.45 17 34.6 15.75 31.4 16.45 27 L16.5 26.8 Q17.15 22.9 19.85 19.75 L19.9 19.7 Q22.4 16.65 26.15 14.85 29.9 13.05 34.3 13 39.15 13 42.75 15.25 L42.7 15.25 Q46.25 17.4 48 21.45 L48.15 21.8 M46.3 22.55 L46.25 22.5 Q44.8 18.85 41.65 16.95 38.55 15 34.3 15 30.35 15.05 27 16.65 23.65 18.25 21.4 21 19.05 23.75 18.45 27.15 L18.45 27.2 Q17.8 31.1 18.85 33.9 19.9 36.8 22.35 38.45 L23.75 39.25 23.7 39.3 21.5 39.45 21.4 39.45 20.5 39.5 Q19.65 39.5 19.1 40.1 18.5 40.65 18.5 41.5 L18.5 48.8 Q18.5 49.35 18.8 49.85 L19.6 50.6 20.65 50.8 Q32.4 50.1 38.75 45.05 45.3 39.9 46.85 30.7 47.65 25.9 46.3 22.55"/>
    <path stroke="none" fill="#FFFFFF" d="M46.3 22.55 Q47.65 25.9 46.85 30.7 45.3 39.9 38.75 45.05 32.4 50.1 20.65 50.8 L19.6 50.6 18.8 49.85 Q18.5 49.35 18.5 48.8 L18.5 41.5 Q18.5 40.65 19.1 40.1 19.65 39.5 20.5 39.5 L21.4 39.45 21.5 39.45 23.7 39.3 23.75 39.25 22.35 38.45 Q19.9 36.8 18.85 33.9 17.8 31.1 18.45 27.2 L18.45 27.15 Q19.05 23.75 21.4 21 23.65 18.25 27 16.65 30.35 15.05 34.3 15 38.55 15 41.65 16.95 44.8 18.85 46.25 22.5 L46.3 22.55 M44.4 23.25 Q43.2 20.25 40.6 18.65 37.95 17 34.3 17 30.8 17.05 27.85 18.45 24.9 19.85 22.95 22.25 20.95 24.6 20.4 27.5 19.85 30.85 20.7 33.2 21.55 35.5 23.45 36.8 25.3 38.1 27.8 38.2 30.25 38.35 32.9 37.2 L32.85 37.65 Q31.8 38.8 30.3 39.55 L27.1 40.65 23.95 41.25 21.5 41.45 20.5 41.5 20.5 48.8 Q31.55 48.15 37.5 43.45 43.45 38.75 44.85 30.35 45.55 26.2 44.4 23.25 M33.45 24.3 Q34.75 24.35 35.45 25.2 36.1 26.05 35.85 27.5 35.6 29 34.6 29.85 33.65 30.75 32.3 30.75 31 30.75 30.3 29.85 29.6 29 29.85 27.5 30.15 26.05 31.15 25.2 32.1 24.35 33.45 24.3 M32.15 27.3 L32.15 27.1 32.1 27.2 32.15 27.3"/>
    <path stroke="none" fill="#FFCC00" d="M44.4 23.25 Q45.55 26.2 44.85 30.35 43.45 38.75 37.5 43.45 31.55 48.15 20.5 48.8 L20.5 41.5 21.5 41.45 23.95 41.25 27.1 40.65 30.3 39.55 Q31.8 38.8 32.85 37.65 L32.9 37.2 Q30.25 38.35 27.8 38.2 25.3 38.1 23.45 36.8 21.55 35.5 20.7 33.2 19.85 30.85 20.4 27.5 20.95 24.6 22.95 22.25 24.9 19.85 27.85 18.45 30.8 17.05 34.3 17 37.95 17 40.6 18.65 43.2 20.25 44.4 23.25 M33.45 24.3 Q32.1 24.35 31.15 25.2 30.15 26.05 29.85 27.5 29.6 29 30.3 29.85 31 30.75 32.3 30.75 33.65 30.75 34.6 29.85 35.6 29 35.85 27.5 36.1 26.05 35.45 25.2 34.75 24.35 33.45 24.3"/>
  </g>
</svg>