<svg width="64" height="64" xmlns="http://www.w3.org/2000/svg" xmlns:xlink="http://www.w3.org/1999/xlink">
  <defs/>
  <g>
    <path stroke="none" fill="#CCCCCC" d="M30.3 17.95 L30.25 18.05 Q31.45 17 32.95 17.1 L40.8 17.5 40.9 17.5 Q42 17.6 42.95 18.25 43.85 18.85 44.35 20.05 L44.4 20.15 Q44.8 21.25 44.5 22.45 L43.85 25.45 47.05 25.45 Q48.25 25.45 49.25 26.15 50.2 26.8 50.7 28 L50.75 28.1 Q51.15 29.15 50.85 30.35 L49.05 38.3 Q48.75 39.65 47.7 40.55 L47.5 40.7 Q46.4 41.4 45.1 41.4 L40.55 41.25 39.7 45.35 39.7 45.4 Q39.4 46.7 38.35 47.6 37.2 48.5 35.8 48.5 L28.5 48.5 Q27.35 48.5 26.4 47.95 L26.25 47.85 Q25.3 47.15 24.9 46.15 24.35 45.05 24.6 43.85 L24.6 43.8 25.15 40.7 21.8 40.55 21.7 40.55 Q20.55 40.55 19.55 39.85 18.55 39.15 18.2 38.2 17.65 37.05 17.95 35.85 L19.25 28.55 19.25 28.65 Q19.4 27.2 20.65 26.2 L20.65 26.15 Q21.7 25.25 23.2 25.25 L27.95 25.35 28.85 20.4 28.85 20.5 Q29.05 18.9 30.3 17.95 M31.5 19.55 Q30.9 20 30.8 20.75 L29.6 27.35 23.2 27.25 Q22.45 27.25 21.9 27.7 21.3 28.2 21.2 28.9 L19.9 36.2 Q19.75 36.8 20 37.35 20.2 37.85 20.7 38.2 21.2 38.55 21.8 38.55 L27.5 38.8 26.55 44.15 Q26.45 44.75 26.7 45.3 26.9 45.85 27.4 46.2 L28.5 46.5 35.8 46.5 37.05 46.05 Q37.6 45.6 37.75 44.95 L38.95 39.2 45.1 39.4 46.4 39 Q46.95 38.55 47.1 37.85 L48.9 29.9 48.85 28.75 48.1 27.8 Q47.6 27.45 47 27.45 L41.4 27.4 42.55 21.9 42.5 20.8 Q42.25 20.2 41.8 19.9 41.3 19.55 40.7 19.5 L32.85 19.1 Q32.1 19.05 31.5 19.55"/>
    <path stroke="none" fill="#FFFFFF" d="M31.5 19.55 Q32.1 19.05 32.85 19.1 L40.7 19.5 Q41.3 19.55 41.8 19.9 42.25 20.2 42.5 20.8 L42.55 21.9 41.4 27.4 47 27.45 Q47.6 27.45 48.1 27.8 L48.85 28.75 48.9 29.9 47.1 37.85 Q46.95 38.55 46.4 39 L45.1 39.4 38.95 39.2 37.75 44.95 Q37.6 45.6 37.05 46.05 L35.8 46.5 28.5 46.5 27.4 46.2 Q26.9 45.85 26.7 45.3 26.45 44.75 26.55 44.15 L27.5 38.8 21.8 38.55 Q21.2 38.55 20.7 38.2 20.2 37.85 20 37.35 19.75 36.8 19.9 36.2 L21.2 28.9 Q21.3 28.2 21.9 27.7 22.45 27.25 23.2 27.25 L29.6 27.35 30.8 20.75 Q30.9 20 31.5 19.55 M31.25 29.35 L23.15 29.25 21.85 36.55 29.85 36.85 28.5 44.5 35.8 44.5 37.35 37.15 45.15 37.4 46.95 29.45 38.95 29.35 40.6 21.5 32.75 21.1 31.25 29.35"/>
    <path stroke="none" fill="#FFCC00" d="M31.25 29.35 L32.75 21.1 40.6 21.5 38.95 29.35 46.95 29.45 45.15 37.4 37.35 37.15 35.8 44.5 28.5 44.5 29.85 36.85 21.85 36.55 23.15 29.25 31.25 29.35"/>
  </g>
</svg>