<svg width="64" height="64" xmlns="http://www.w3.org/2000/svg" xmlns:xlink="http://www.w3.org/1999/xlink">
  <defs/>
  <g>
    <path stroke="none" fill="#CCCCCC" d="M49.05 26.7 Q49.4 30.05 48.85 33.6 L48.85 33.65 48.8 33.75 Q48.2 37.15 46.55 40.45 44.85 43.75 42.35 46.5 L42.3 46.55 Q39.6 49.35 36.2 51 32.65 52.75 28.4 52.8 L28.3 52.8 Q23.85 52.75 20.9 51.2 L20.5 51 Q17.3 49.25 15.5 46.25 L15.35 46.05 Q13.55 43.15 13.15 39.5 L13.2 39.5 Q12.75 36.2 13.3 32.8 L13.35 32.6 Q14.05 28.8 15.7 25.45 17.45 21.9 20.1 19.2 L20.15 19.15 Q22.75 16.35 26.2 14.7 29.75 13 33.9 13 38.55 13 41.8 15 L42 15.15 Q45.1 17 46.85 20.15 L46.85 20.1 Q48.5 23 49.05 26.65 L49.05 26.7 M27.05 16.5 Q23.9 18 21.55 20.55 L21.5 20.6 Q19.1 23.05 17.5 26.3 15.95 29.45 15.3 32.95 L15.3 33 Q14.75 36.2 15.15 39.25 15.5 42.45 17.05 45 L17.05 44.95 Q18.6 47.7 21.45 49.25 L21.45 49.2 Q24.15 50.75 28.3 50.8 L28.35 50.8 Q32.15 50.75 35.3 49.2 38.4 47.7 40.85 45.15 43.2 42.6 44.75 39.55 46.3 36.45 46.85 33.25 L46.85 33.3 Q47.4 30 47.05 26.9 46.6 23.7 45.1 21.1 43.55 18.3 40.7 16.7 L40.75 16.7 Q37.95 15 33.9 15 30.2 15 27.05 16.5 M33.45 29.2 L33.45 29.25 Q33.55 30.9 33.25 32.55 L32.2 35.9 32.25 35.85 Q31.55 37.35 30.65 38.4 L30.6 38.45 29.7 39.05 29.2 38.8 Q28.75 38 28.7 36.85 28.6 35.3 28.95 33.65 29.25 31.8 29.95 30.05 30.6 28.45 31.55 27.4 L31.6 27.35 Q32.05 26.8 32.6 26.75 L33 27 Q33.4 27.9 33.45 29.2"/>
    <path stroke="none" fill="#FFFFFF" d="M33.45 29.2 Q33.4 27.9 33 27 L32.6 26.75 Q32.05 26.8 31.6 27.35 L31.55 27.4 Q30.6 28.45 29.95 30.05 29.25 31.8 28.95 33.65 28.6 35.3 28.7 36.85 28.75 38 29.2 38.8 L29.7 39.05 30.6 38.45 30.65 38.4 Q31.55 37.35 32.25 35.85 L32.2 35.9 33.25 32.55 Q33.55 30.9 33.45 29.25 L33.45 29.2 M27.05 16.5 Q30.2 15 33.9 15 37.95 15 40.75 16.7 L40.7 16.7 Q43.55 18.3 45.1 21.1 46.6 23.7 47.05 26.9 47.4 30 46.85 33.3 L46.85 33.25 Q46.3 36.45 44.75 39.55 43.2 42.6 40.85 45.15 38.4 47.7 35.3 49.2 32.15 50.75 28.35 50.8 L28.3 50.8 Q24.15 50.75 21.45 49.2 L21.45 49.25 Q18.6 47.7 17.05 44.95 L17.05 45 Q15.5 42.45 15.15 39.25 14.75 36.2 15.3 33 L15.3 32.95 Q15.95 29.45 17.5 26.3 19.1 23.05 21.5 20.6 L21.55 20.55 Q23.9 18 27.05 16.5 M22.95 21.95 Q20.75 24.2 19.3 27.15 17.85 30.1 17.25 33.3 16.75 36.25 17.1 39 17.45 41.75 18.75 43.95 20.05 46.2 22.4 47.45 24.75 48.75 28.3 48.8 31.65 48.75 34.4 47.4 37.2 46.05 39.4 43.75 41.55 41.45 42.95 38.65 44.35 35.85 44.85 32.9 45.4 29.95 45.05 27.15 44.65 24.35 43.35 22.05 42.05 19.75 39.7 18.4 37.35 17 33.9 17 30.65 17 27.9 18.3 25.1 19.65 22.95 21.95 M28.1 29.3 Q28.9 27.35 30.05 26.05 31.15 24.75 32.6 24.75 34.05 24.75 34.75 26.05 35.4 27.3 35.45 29.15 L35.2 32.9 34.05 36.65 Q33.25 38.5 32.1 39.75 31 41 29.7 41.05 28.2 41 27.5 39.85 26.8 38.7 26.7 36.95 26.6 35.2 26.95 33.3 27.3 31.25 28.1 29.3"/>
    <path stroke="none" fill="#FFCC00" d="M28.1 29.3 Q27.3 31.25 26.95 33.3 26.6 35.2 26.7 36.95 26.8 38.7 27.5 39.85 28.2 41 29.7 41.05 31 41 32.1 39.75 33.25 38.5 34.05 36.65 L35.2 32.9 35.45 29.15 Q35.4 27.3 34.75 26.05 34.05 24.75 32.6 24.75 31.15 24.75 30.05 26.05 28.9 27.35 28.1 29.3 M22.95 21.95 Q25.1 19.65 27.9 18.3 30.65 17 33.9 17 37.35 17 39.7 18.4 42.05 19.75 43.35 22.05 44.65 24.35 45.05 27.15 45.4 29.95 44.85 32.9 44.35 35.85 42.95 38.65 41.55 41.45 39.4 43.75 37.2 46.05 34.4 47.4 31.65 48.75 28.3 48.8 24.75 48.75 22.4 47.45 20.05 46.2 18.75 43.95 17.45 41.75 17.1 39 16.75 36.25 17.25 33.3 17.85 30.1 19.3 27.15 20.75 24.2 22.95 21.95"/>
  </g>
</svg>