<svg width="64" height="64" xmlns="http://www.w3.org/2000/svg" xmlns:xlink="http://www.w3.org/1999/xlink">
  <defs/>
  <g>
    <path stroke="none" fill="#CCCCCC" d="M46.2 17.05 L45.45 16.2 Q44.95 15.85 44.35 15.85 L35.75 15.85 Q34.9 15.85 34.35 16.45 L18.05 33.2 Q17.75 33.5 17.6 33.9 L17.45 34.7 17.8 41.6 Q17.85 42.35 18.4 42.95 18.95 43.5 19.75 43.5 L29.45 43.85 28.95 47.7 Q28.85 48.25 29.1 48.8 L29.85 49.65 30.9 49.95 39.5 49.95 Q40.25 49.95 40.8 49.5 41.35 49 41.5 48.3 L42.2 44.15 43.65 44.35 Q44.45 44.45 45.15 43.95 45.8 43.4 45.9 42.6 L46.85 34.85 46.65 33.75 45.95 32.9 44.85 32.6 44.2 32.6 46.35 18.15 46.2 17.05 M48.35 18.45 L46.5 30.95 47 31.2 47.05 31.25 Q47.95 31.8 48.5 32.95 48.95 33.95 48.85 35.05 L48.85 35.1 47.9 42.85 Q47.7 44.4 46.45 45.5 L46.35 45.6 Q45.15 46.4 43.85 46.4 L43.5 48.65 43.45 48.75 Q43.2 50.05 42.15 51 L42.1 51.05 Q41 51.95 39.5 51.95 L30.9 51.95 Q29.65 51.95 28.75 51.35 L28.7 51.3 Q27.75 50.65 27.3 49.7 L27.3 49.65 Q26.75 48.5 27 47.35 L27 47.45 27.2 45.8 19.7 45.5 Q18.1 45.5 17 44.4 L16.95 44.3 Q15.9 43.15 15.8 41.75 L15.45 34.8 15.45 34.7 Q15.45 33.95 15.75 33.2 16 32.4 16.65 31.8 L32.9 15.1 32.95 15.05 Q34.05 13.85 35.75 13.85 L44.35 13.85 Q45.6 13.85 46.6 14.55 47.55 15.15 48.05 16.25 L48.05 16.3 Q48.45 17.2 48.35 18.35 L48.35 18.45"/>
    <path stroke="none" fill="#FFFFFF" d="M46.2 17.05 L46.35 18.15 44.2 32.6 44.85 32.6 45.95 32.9 46.65 33.75 46.85 34.85 45.9 42.6 Q45.8 43.4 45.15 43.95 44.45 44.45 43.65 44.35 L42.2 44.15 41.5 48.3 Q41.35 49 40.8 49.5 40.25 49.95 39.5 49.95 L30.9 49.95 29.85 49.65 29.1 48.8 Q28.85 48.25 28.95 47.7 L29.45 43.85 19.75 43.5 Q18.95 43.5 18.4 42.95 17.85 42.35 17.8 41.6 L17.45 34.7 17.6 33.9 Q17.75 33.5 18.05 33.2 L34.35 16.45 Q34.9 15.85 35.75 15.85 L44.35 15.85 Q44.95 15.85 45.45 16.2 L46.2 17.05 M33.9 29.4 L33.25 34.6 28.95 34.6 29 34.2 33.5 29.4 33.9 29.4 M41.85 34.6 L44.35 17.85 35.75 17.85 19.45 34.6 19.8 41.5 31.7 41.9 30.9 47.95 39.5 47.95 40.55 41.9 43.9 42.35 44.85 34.6 41.85 34.6"/>
    <path stroke="none" fill="#FFCC00" d="M41.85 34.6 L44.85 34.6 43.9 42.35 40.55 41.9 39.5 47.95 30.9 47.95 31.7 41.9 19.8 41.5 19.45 34.6 35.75 17.85 44.35 17.85 41.85 34.6 M33.9 29.4 L33.5 29.4 29 34.2 28.95 34.6 33.25 34.6 33.9 29.4"/>
  </g>
</svg>