<svg width="64" height="64" xmlns="http://www.w3.org/2000/svg" xmlns:xlink="http://www.w3.org/1999/xlink">
  <defs/>
  <g>
    <path stroke="none" fill="#CCCCCC" d="M40.1 10.4 Q41.15 10.5 42 11.1 43.05 11.75 43.5 12.9 L43.55 13 43.85 14.65 44.7 15.05 45.45 15.45 48 17.25 48.35 17.5 Q51.85 20.6 50.75 22.05 L50.7 22.2 49.7 23.8 49.65 23.9 44.9 29.65 Q46.3 30.95 47.15 32.8 L47.3 33.05 Q48.5 35.55 47.9 39.4 L47.9 39.45 47.65 40.45 Q47 42.7 45.55 44.85 43.9 47.2 41.2 49.15 L41.15 49.2 37.45 51.15 37.25 52.3 37.2 52.4 Q36.95 53.6 36.05 54.55 L35.95 54.6 Q34.95 55.5 33.55 55.6 L25.3 56.25 25.25 56.25 Q24.1 56.35 23 55.75 L22.9 55.7 Q21.8 55 21.35 53.95 L21.35 54 Q20.7 52.7 21.05 51.45 L20.1 51 19.85 50.85 16.75 49 16.7 48.95 14.6 47.2 13.9 46.5 Q13.45 46.05 13.35 45.5 12.55 41.9 13.9 40.95 L19.25 35.15 18.45 32.4 Q17.45 29.9 18.05 26 L18.05 25.95 Q18.5 23.4 20.1 20.95 L20.05 20.95 Q21.55 18.55 24.2 16.7 L24.15 16.8 Q25.2 15.95 26.45 15.35 L26.4 15.4 27.55 14.85 27.85 13.3 27.85 13.4 Q28 11.75 29.4 10.8 30.5 9.9 31.95 10 L40 10.4 40.1 10.4 M25.35 18.35 Q23.05 19.95 21.75 22 L21.7 22.05 Q20.4 24.1 20 26.3 L20 26.35 Q19.5 29.65 20.35 31.75 L20.35 31.7 Q21.1 33.8 22.7 35.2 L22.6 35.2 Q21.75 35.25 21.25 35.85 L15.35 42.3 Q14.8 42.9 14.8 43.65 14.35 44.1 16 45.75 L17.9 47.35 21.05 49.2 21 49.2 Q22.05 49.75 23.3 50.1 L23 51.9 Q22.85 52.5 23.15 53.1 23.4 53.65 23.95 54 L25.1 54.25 33.4 53.6 Q34.1 53.55 34.6 53.1 L35.25 51.95 35.65 49.65 Q38.1 48.8 40.05 47.5 42.45 45.8 43.9 43.7 45 42.1 45.55 40.45 L45.9 39.05 Q46.4 35.95 45.45 33.9 L45.45 33.95 Q44.55 31.8 42.75 30.45 L42.7 30.4 41.85 29.8 42.6 29.25 48.1 22.6 48.55 21.3 Q49.05 20.8 47 18.95 L46.95 18.95 44.2 17.05 44.1 17 Q42.95 16.35 41.6 15.9 L41.8 14.75 41.65 13.65 Q41.45 13.1 40.95 12.8 40.5 12.45 39.9 12.4 L31.85 12 Q31.1 11.95 30.55 12.45 29.9 12.9 29.8 13.65 L29.3 16.25 Q27.05 17.05 25.35 18.35"/>
    <path stroke="none" fill="#FFFFFF" d="M25.35 18.35 Q27.05 17.05 29.3 16.25 L29.8 13.65 Q29.9 12.9 30.55 12.45 31.1 11.95 31.85 12 L39.9 12.4 Q40.5 12.45 40.95 12.8 41.45 13.1 41.65 13.65 L41.8 14.75 41.6 15.9 Q42.95 16.35 44.1 17 L44.2 17.05 46.95 18.95 47 18.95 Q49.05 20.8 48.55 21.3 L48.1 22.6 42.6 29.25 41.85 29.8 42.7 30.4 42.75 30.45 Q44.55 31.8 45.45 33.95 L45.45 33.9 Q46.4 35.95 45.9 39.05 L45.55 40.45 Q45 42.1 43.9 43.7 42.45 45.8 40.05 47.5 38.1 48.8 35.65 49.65 L35.25 51.95 34.6 53.1 Q34.1 53.55 33.4 53.6 L25.1 54.25 23.95 54 Q23.4 53.65 23.15 53.1 22.85 52.5 23 51.9 L23.3 50.1 Q22.05 49.75 21 49.2 L21.05 49.2 17.9 47.35 16 45.75 Q14.35 44.1 14.8 43.65 14.8 42.9 15.35 42.3 L21.25 35.85 Q21.75 35.25 22.6 35.2 L22.7 35.2 Q21.1 33.8 20.35 31.7 L20.35 31.75 Q19.5 29.65 20 26.35 L20 26.3 Q20.4 24.1 21.7 22.05 L21.75 22 Q23.05 19.95 25.35 18.35 M24.2 33.85 Q25.55 34.95 27.15 35.6 L30.2 36.75 Q31.65 37.25 32.55 37.8 33.4 38.3 33.3 39.15 33.2 39.7 32.4 40.25 L32.05 40.45 29.8 40.85 27.8 40.45 27.4 40.3 25.1 39.05 23.35 37.75 22.7 37.2 16.8 43.65 17.4 44.3 19.1 45.75 21.9 47.4 Q23.5 48.2 25.6 48.6 L24.95 52.25 33.25 51.6 33.85 48.1 Q36.75 47.3 38.9 45.85 41 44.4 42.25 42.55 L43.4 40.45 43.9 38.7 Q44.3 36.3 43.6 34.7 42.9 33.05 41.5 32 40.15 30.95 38.5 30.25 L35.45 29.05 33.05 28 Q32.15 27.45 32.3 26.65 32.4 26 33.1 25.5 33.85 24.95 35.15 24.95 36.3 24.95 37.35 25.4 38.4 25.85 39.25 26.45 L40.55 27.5 41.05 27.95 46.55 21.3 45.65 20.45 43.15 18.75 Q41.5 17.85 39.3 17.3 L39.8 14.4 31.75 14 31.05 17.75 Q28.4 18.55 26.5 19.95 24.55 21.35 23.4 23.1 22.3 24.85 21.95 26.65 21.55 29.3 22.2 31 22.85 32.75 24.2 33.85"/>
    <path stroke="none" fill="#FFCC00" d="M24.2 33.85 Q22.85 32.75 22.2 31 21.55 29.3 21.95 26.65 22.3 24.85 23.4 23.1 24.55 21.35 26.5 19.95 28.4 18.55 31.05 17.75 L31.75 14 39.8 14.4 39.3 17.3 Q41.5 17.85 43.15 18.75 L45.65 20.45 46.55 21.3 41.05 27.95 40.55 27.5 39.25 26.45 Q38.4 25.85 37.35 25.4 36.3 24.95 35.15 24.95 33.85 24.95 33.1 25.5 32.4 26 32.3 26.65 32.15 27.45 33.05 28 L35.45 29.05 38.5 30.25 Q40.15 30.95 41.5 32 42.9 33.05 43.6 34.7 44.3 36.3 43.9 38.7 L43.4 40.45 42.25 42.55 Q41 44.4 38.9 45.85 36.75 47.3 33.85 48.1 L33.25 51.6 24.95 52.25 25.6 48.6 Q23.5 48.2 21.9 47.4 L19.1 45.75 17.4 44.3 16.8 43.65 22.7 37.2 23.35 37.75 25.1 39.05 27.4 40.3 27.8 40.45 29.8 40.85 32.05 40.45 32.4 40.25 Q33.2 39.7 33.3 39.15 33.4 38.3 32.55 37.8 31.65 37.25 30.2 36.75 L27.15 35.6 Q25.55 34.95 24.2 33.85"/>
  </g>
</svg>