<svg width="64" height="64" xmlns="http://www.w3.org/2000/svg" xmlns:xlink="http://www.w3.org/1999/xlink">
  <defs/>
  <g>
    <path stroke="none" fill="#CCCCCC" d="M47.65 15 Q48.2 15.9 48.2 17 L48.2 24.3 Q48.2 25.95 47.15 27.1 L47 27.25 46 27.95 Q47.1 29.35 47.8 31.25 L47.8 31.3 Q48.95 34.45 48.3 38.9 L48.3 38.95 Q47.6 42.9 44.9 46.2 42.45 49.15 38.55 51 L38.55 50.95 Q34.8 52.75 30.55 52.8 L30.45 52.8 Q25.5 52.8 22 50.55 18.3 48.25 16.65 44.1 15 40.2 16 34.9 17.6 24.75 24.75 19.25 L24.8 19.25 Q31.45 13.75 43.95 13 L44 13 Q45.1 12.9 46.15 13.5 L46.2 13.55 Q47 14 47.6 14.9 L47.65 15 M45.9 16 L45.15 15.25 Q44.65 14.95 44.1 15 32.3 15.7 26 20.8 19.45 25.9 17.95 35.2 17.1 39.9 18.5 43.35 19.9 46.9 23.05 48.85 26.15 50.8 30.45 50.8 L30.5 50.8 Q34.35 50.75 37.7 49.15 41.15 47.55 43.35 44.9 45.7 42.05 46.3 38.6 46.9 34.7 45.9 31.95 44.8 28.95 42.45 27.35 L41 26.55 41.1 26.55 43.25 26.35 43.35 26.35 44.2 26.3 Q45.05 26.3 45.65 25.75 46.2 25.15 46.2 24.3 L46.2 17 45.9 16"/>
    <path stroke="none" fill="#FFFFFF" d="M45.9 16 L46.2 17 46.2 24.3 Q46.2 25.15 45.65 25.75 45.05 26.3 44.2 26.3 L43.35 26.35 43.25 26.35 41.1 26.55 41 26.55 42.45 27.35 Q44.8 28.95 45.9 31.95 46.9 34.7 46.3 38.6 45.7 42.05 43.35 44.9 41.15 47.55 37.7 49.15 34.35 50.75 30.5 50.8 L30.45 50.8 Q26.15 50.8 23.05 48.85 19.9 46.9 18.5 43.35 17.1 39.9 17.95 35.2 19.45 25.9 26 20.8 32.3 15.7 44.1 15 44.65 14.95 45.15 15.25 L45.9 16 M43.25 24.35 L44.2 24.3 44.2 17 Q33.15 17.65 27.25 22.35 21.3 27.05 19.9 35.5 19.2 39.6 20.35 42.6 21.5 45.55 24.1 47.15 26.75 48.8 30.45 48.8 33.9 48.75 36.85 47.35 39.85 45.95 41.8 43.6 43.8 41.2 44.3 38.25 44.85 34.95 44 32.6 43.15 30.25 41.3 29 39.45 27.75 36.95 27.6 34.5 27.5 31.85 28.6 L31.95 28.15 Q32.95 27 34.45 26.3 35.95 25.55 37.65 25.15 L40.8 24.55 43.25 24.35 M33.6 40.6 Q32.65 41.5 31.3 41.5 30 41.5 29.3 40.6 28.6 39.75 28.85 38.25 29.15 36.8 30.1 35.95 31.1 35.1 32.4 35.05 33.75 35.1 34.4 35.95 35.1 36.8 34.85 38.25 34.6 39.75 33.6 40.6"/>
    <path stroke="none" fill="#FFCC00" d="M33.6 40.6 Q34.6 39.75 34.85 38.25 35.1 36.8 34.4 35.95 33.75 35.1 32.4 35.05 31.1 35.1 30.1 35.95 29.15 36.8 28.85 38.25 28.6 39.75 29.3 40.6 30 41.5 31.3 41.5 32.65 41.5 33.6 40.6 M43.25 24.35 L40.8 24.55 37.65 25.15 Q35.95 25.55 34.45 26.3 32.95 27 31.95 28.15 L31.85 28.6 Q34.5 27.5 36.95 27.6 39.45 27.75 41.3 29 43.15 30.25 44 32.6 44.85 34.95 44.3 38.25 43.8 41.2 41.8 43.6 39.85 45.95 36.85 47.35 33.9 48.75 30.45 48.8 26.75 48.8 24.1 47.15 21.5 45.55 20.35 42.6 19.2 39.6 19.9 35.5 21.3 27.05 27.25 22.35 33.15 17.65 44.2 17 L44.2 24.3 43.25 24.35"/>
  </g>
</svg>