<svg width="64" height="64" xmlns="http://www.w3.org/2000/svg" xmlns:xlink="http://www.w3.org/1999/xlink">
  <defs/>
  <g>
    <path stroke="none" fill="#CCCCCC" d="M23.85 14.9 L24 14.75 Q25.1 13.85 26.45 13.85 L45.35 13.85 Q46.5 13.85 47.5 14.45 L47.55 14.5 Q48.45 15.05 49 16.2 49.45 17.2 49.35 18.3 L49.35 18.35 48.4 26.1 48.4 26.15 Q48.2 27.55 47.05 28.65 L47 28.7 45.9 29.35 Q47 30.8 47.6 32.75 L47.65 32.8 Q48.4 35.3 47.85 39.05 L47.85 39.15 47.8 39.3 Q46.95 43.5 44.4 46.6 L44.35 46.65 Q41.8 49.55 38.2 51.1 L37.9 51.25 Q34.2 52.8 29.6 52.8 L29.55 52.8 24.1 52.1 24.05 52.1 20.05 50.65 19.7 50.5 17.1 49 16.8 48.85 15.95 48.25 Q14.5 47.2 14.35 45.55 L14.35 45.65 Q14.05 43.9 15.1 42.6 L15.05 42.65 19.65 36.2 Q19.3 35.25 19.55 34.3 L22.55 17.15 22.55 17.25 Q22.7 15.8 23.85 14.9 M26.45 15.85 Q25.75 15.85 25.2 16.35 24.6 16.8 24.5 17.5 L21.5 34.65 Q21.35 35.25 21.65 35.85 L22.1 36.5 21.45 37.1 16.65 43.8 Q16.15 44.45 16.3 45.3 16.4 46.1 17.1 46.6 L17.95 47.2 18.05 47.25 20.6 48.7 20.65 48.7 Q22.3 49.5 24.6 50.15 L29.55 50.8 29.6 50.8 Q33.75 50.8 37.1 49.4 L37.05 49.4 Q40.5 48 42.85 45.3 45.1 42.6 45.85 38.9 L45.85 38.85 Q46.35 35.55 45.7 33.35 44.95 31 43.35 29.5 L43.3 29.5 Q41.9 28.15 40.25 27.45 L44.35 27.6 Q45.1 27.65 45.7 27.15 46.3 26.6 46.4 25.85 L47.35 18.1 47.15 17 46.45 16.15 Q45.95 15.85 45.35 15.85 L26.45 15.85"/>
    <path stroke="none" fill="#FFFFFF" d="M26.45 15.85 L45.35 15.85 Q45.95 15.85 46.45 16.15 L47.15 17 47.35 18.1 46.4 25.85 Q46.3 26.6 45.7 27.15 45.1 27.65 44.35 27.6 L40.25 27.45 Q41.9 28.15 43.3 29.5 L43.35 29.5 Q44.95 31 45.7 33.35 46.35 35.55 45.85 38.85 L45.85 38.9 Q45.1 42.6 42.85 45.3 40.5 48 37.05 49.4 L37.1 49.4 Q33.75 50.8 29.6 50.8 L29.55 50.8 24.6 50.15 Q22.3 49.5 20.65 48.7 L20.6 48.7 18.05 47.25 17.95 47.2 17.1 46.6 Q16.4 46.1 16.3 45.3 16.15 44.45 16.65 43.8 L21.45 37.1 22.1 36.5 21.65 35.85 Q21.35 35.25 21.5 34.65 L24.5 17.5 Q24.6 16.8 25.2 16.35 25.75 15.85 26.45 15.85 M33.75 25.15 L44.4 25.6 45.35 17.85 26.45 17.85 23.45 35 Q28 34.6 30.45 35.05 32.9 35.5 33.75 36.45 34.65 37.4 34.4 38.5 34.25 39.5 33.4 40.25 32.55 41 30.95 41.05 28.8 41 27 40.35 25.2 39.7 24.15 39 L23.05 38.25 18.25 44.95 19.1 45.55 21.5 46.9 Q23.05 47.65 25.1 48.2 L29.6 48.8 Q33.3 48.8 36.3 47.55 39.3 46.35 41.3 44 43.25 41.7 43.85 38.5 44.3 35.75 43.75 33.9 43.2 32.1 41.95 30.95 40.75 29.8 39.3 29.2 L36.45 28.4 34.15 28.15 33.25 28.15 33.75 25.15"/>
    <path stroke="none" fill="#FFCC00" d="M33.75 25.15 L33.25 28.15 34.15 28.15 36.45 28.4 39.3 29.2 Q40.75 29.8 41.95 30.95 43.2 32.1 43.75 33.9 44.3 35.75 43.85 38.5 43.25 41.7 41.3 44 39.3 46.35 36.3 47.55 33.3 48.8 29.6 48.8 L25.1 48.2 Q23.05 47.65 21.5 46.9 L19.1 45.55 18.25 44.95 23.05 38.25 24.15 39 Q25.2 39.7 27 40.35 28.8 41 30.95 41.05 32.55 41 33.4 40.25 34.25 39.5 34.4 38.5 34.65 37.4 33.75 36.45 32.9 35.5 30.45 35.05 28 34.6 23.45 35 L26.45 17.85 45.35 17.85 44.4 25.6 33.75 25.15"/>
  </g>
</svg>