<svg width="64" height="64" xmlns="http://www.w3.org/2000/svg" xmlns:xlink="http://www.w3.org/1999/xlink">
  <defs/>
  <g>
    <path stroke="none" fill="#BCCBCB" d="M50.4 51.35 L56.8 53 Q57.35 53.15 57.8 53.6 L58.35 54.65 58.2 55.75 57.2 58.3 47.2 56.6 47.9 51.75 50.4 51.35 M5.65 54.2 L5.65 53.75 Q5.7 53.05 6.15 52.55 L22.4 34.65 Q22.8 34.2 23.35 34.05 L25.3 40.6 5.65 54.2 M38.75 38.05 L42 38.9 Q42.8 39.1 43.2 39.8 L44.9 42.5 37.65 47.3 38.75 38.05"/>
    <path stroke="none" fill="#C5D4D4" d="M38.75 38.05 L37.65 47.3 25.3 40.6 23.35 34.05 Q23.9 33.9 24.55 34.05 L38.75 38.05 M47.9 51.75 L47.2 56.6 41.15 55.55 39.55 53.25 47.9 51.75"/>
    <path stroke="none" fill="#ACC0C1" d="M47.9 51.75 L39.55 53.25 41.15 55.55 47.2 56.6 57.2 58.3 54.95 64 11.1 64 5.9 55 Q5.65 54.6 5.65 54.2 L25.3 40.6 37.65 47.3 44.9 42.5 50.4 51.35 47.9 51.75 M32.25 50.35 L33.95 53.3 36.95 51.6 35.2 48.65 32.25 50.35 M33.3 54.55 L31.45 55.65 32.5 57.55 34.35 56.45 33.3 54.55 M14.45 58.75 L12.7 55.8 9.7 57.5 11.45 60.45 14.45 58.75"/>
    <path stroke="none" fill="#A0B3B4" d="M14.45 58.75 L11.45 60.45 9.7 57.5 12.7 55.8 14.45 58.75 M32.25 50.35 L35.2 48.65 36.95 51.6 33.95 53.3 32.25 50.35 M33.3 54.55 L34.35 56.45 32.5 57.55 31.45 55.65 33.3 54.55"/>
  </g>
</svg>