<svg width="64" height="64" xmlns="http://www.w3.org/2000/svg" xmlns:xlink="http://www.w3.org/1999/xlink">
  <defs/>
  <g>
    <path stroke="none" fill="#929F9F" d="M11.1 64 L8.8 64 4.2 56.05 4.2 56 Q3.65 55.15 3.65 54.3 3.6 53.8 3.7 53.4 3.85 52.15 4.7 51.2 L20.95 33.3 Q21.75 32.4 22.85 32.15 L25 32.1 25.1 32.15 42.55 37 42.5 36.95 Q44.1 37.35 44.9 38.75 L44.95 38.8 51.7 49.65 57.3 51.1 57.35 51.1 Q58.35 51.35 59.25 52.2 L59.35 52.35 Q60.05 53.2 60.3 54.15 L60.35 54.35 Q60.55 55.6 60 56.65 L60.05 56.5 57.1 64 54.95 64 57.2 58.3 58.2 55.75 58.35 54.65 57.8 53.6 Q57.35 53.15 56.8 53 L50.4 51.35 44.9 42.5 43.2 39.8 Q42.8 39.1 42 38.9 L38.75 38.05 24.55 34.05 Q23.9 33.9 23.35 34.05 22.8 34.2 22.4 34.65 L6.15 52.55 Q5.7 53.05 5.65 53.75 L5.65 54.2 Q5.65 54.6 5.9 55 L11.1 64"/>
    <path stroke="none" fill="#BCCBCB" d="M5.65 54.2 L5.65 53.75 Q5.7 53.05 6.15 52.55 L22.4 34.65 Q22.8 34.2 23.35 34.05 L25.3 40.6 5.65 54.2 M38.75 38.05 L42 38.9 Q42.8 39.1 43.2 39.8 L44.9 42.5 37.65 47.3 38.75 38.05 M50.4 51.35 L56.8 53 Q57.35 53.15 57.8 53.6 L58.35 54.65 58.2 55.75 57.2 58.3 47.2 56.6 47.9 51.75 50.4 51.35"/>
    <path stroke="none" fill="#ACC0C1" d="M50.4 51.35 L47.9 51.75 39.55 53.25 41.15 55.55 47.2 56.6 57.2 58.3 54.95 64 11.1 64 5.9 55 Q5.65 54.6 5.65 54.2 L25.3 40.6 37.65 47.3 44.9 42.5 50.4 51.35 M33.3 54.55 L31.45 55.65 32.5 57.55 34.35 56.45 33.3 54.55 M36.95 51.6 L35.2 48.65 32.25 50.35 33.95 53.3 36.95 51.6 M14.45 58.75 L12.7 55.8 9.7 57.5 11.45 60.45 14.45 58.75"/>
    <path stroke="none" fill="#A0B3B4" d="M14.45 58.75 L11.45 60.45 9.7 57.5 12.7 55.8 14.45 58.75 M36.95 51.6 L33.95 53.3 32.25 50.35 35.2 48.65 36.95 51.6 M33.3 54.55 L34.35 56.45 32.5 57.55 31.45 55.65 33.3 54.55"/>
    <path stroke="none" fill="#C5D4D4" d="M23.35 34.05 Q23.9 33.9 24.55 34.05 L38.75 38.05 37.65 47.3 25.3 40.6 23.35 34.05 M47.2 56.6 L41.15 55.55 39.55 53.25 47.9 51.75 47.2 56.6"/>
  </g>
</svg>