<svg width="64" height="64" xmlns="http://www.w3.org/2000/svg" xmlns:xlink="http://www.w3.org/1999/xlink">
  <defs/>
  <g>
    <path stroke="none" fill="#C5D4D4" d="M27.2 34.75 L27.25 34.7 Q27.55 34.35 28 34.35 L41.65 31.9 42.5 31.95 39.6 39.5 31.5 39.5 27.2 34.75 M10.55 54.95 L11.25 53.15 11.65 52.6 Q11.85 52.35 12.2 52.3 L22.15 48.5 23.85 52.95 10.55 54.95"/>
    <path stroke="none" fill="#BCCBCB" d="M42.5 31.95 L42.85 32.1 Q43.35 32.45 43.55 33.05 L46.25 42.7 39.6 39.5 42.5 31.95 M49 52.4 L56.5 55.7 57.25 56.3 57.5 57.2 57.5 61.75 39.8 51.75 39.8 48.5 49 52.4 M22.15 48.5 L26.75 35.35 27.2 34.75 31.5 39.5 23.85 52.95 22.15 48.5"/>
    <path stroke="none" fill="#ACC0C1" d="M46.25 42.7 L49 52.4 39.8 48.5 39.8 51.75 57.5 61.75 57.5 64.2 6.55 64.2 10.55 54.95 23.85 52.95 31.5 39.5 39.6 39.5 46.25 42.7 M29.5 58.45 L33.6 56 31.2 51.9 27.1 54.35 29.5 58.45 M34.65 61.55 L36.55 60.5 35.5 58.65 33.6 59.7 34.65 61.55 M34.45 54.5 L36.15 57.4 39.1 55.7 37.4 52.8 34.45 54.5"/>
    <path stroke="none" fill="#A0B3B4" d="M34.45 54.5 L37.4 52.8 39.1 55.7 36.15 57.4 34.45 54.5 M34.65 61.55 L33.6 59.7 35.5 58.65 36.55 60.5 34.65 61.55 M29.5 58.45 L27.1 54.35 31.2 51.9 33.6 56 29.5 58.45"/>
  </g>
</svg>