<svg width="64" height="64" xmlns="http://www.w3.org/2000/svg" xmlns:xlink="http://www.w3.org/1999/xlink">
  <defs/>
  <g>
    <path stroke="none" fill="#929F9F" d="M6.7 63.85 L4.6 63.85 4.7 63.45 9.4 52.4 9.45 52.25 Q9.7 51.75 10.1 51.35 10.6 50.65 11.5 50.45 L20.6 46.95 24.85 34.7 25.4 33.75 25.8 33.35 26.4 32.85 Q27 32.4 27.75 32.35 L41.2 29.95 43.15 30.05 43.75 30.3 44 30.45 Q45.05 31.2 45.45 32.45 L45.5 32.5 50.7 50.95 57.3 53.9 Q58.25 54.3 58.85 55.1 L58.95 55.25 Q59.5 56.1 59.5 57.2 L59.5 63.85 57.5 63.85 57.5 61.75 57.5 57.2 57.25 56.3 56.5 55.7 49 52.4 46.25 42.7 43.55 33.05 Q43.35 32.45 42.85 32.1 L42.5 31.95 41.65 31.9 28 34.35 Q27.55 34.35 27.25 34.7 L27.2 34.75 26.75 35.35 22.15 48.5 12.2 52.3 Q11.85 52.35 11.65 52.6 L11.25 53.15 10.55 54.95 6.7 63.85"/>
    <path stroke="none" fill="#C5D4D4" d="M10.55 54.95 L11.25 53.15 11.65 52.6 Q11.85 52.35 12.2 52.3 L22.15 48.5 23.85 52.95 10.55 54.95 M27.2 34.75 L27.25 34.7 Q27.55 34.35 28 34.35 L41.65 31.9 42.5 31.95 39.6 39.5 31.5 39.5 27.2 34.75"/>
    <path stroke="none" fill="#BCCBCB" d="M27.2 34.75 L31.5 39.5 23.85 52.95 22.15 48.5 26.75 35.35 27.2 34.75 M42.5 31.95 L42.85 32.1 Q43.35 32.45 43.55 33.05 L46.25 42.7 39.6 39.5 42.5 31.95 M49 52.4 L56.5 55.7 57.25 56.3 57.5 57.2 57.5 61.75 39.8 51.75 39.8 48.5 49 52.4"/>
    <path stroke="none" fill="#ACC0C1" d="M49 52.4 L39.8 48.5 39.8 51.75 57.5 61.75 57.5 63.85 57.5 64.2 6.55 64.2 6.7 63.85 10.55 54.95 23.85 52.95 31.5 39.5 39.6 39.5 46.25 42.7 49 52.4 M34.45 54.5 L36.15 57.4 39.1 55.7 37.4 52.8 34.45 54.5 M33.6 59.7 L34.65 61.55 36.55 60.5 35.5 58.65 33.6 59.7 M29.5 58.45 L33.6 56 31.2 51.9 27.1 54.35 29.5 58.45"/>
    <path stroke="none" fill="#A0B3B4" d="M29.5 58.45 L27.1 54.35 31.2 51.9 33.6 56 29.5 58.45 M34.45 54.5 L37.4 52.8 39.1 55.7 36.15 57.4 34.45 54.5 M33.6 59.7 L35.5 58.65 36.55 60.5 34.65 61.55 33.6 59.7"/>
  </g>
</svg>