<svg width="64" height="64" xmlns="http://www.w3.org/2000/svg" xmlns:xlink="http://www.w3.org/1999/xlink">
  <defs/>
  <g>
    <path stroke="none" fill="#27AE60" d="M34.2 45.1 Q35.95 37.65 39.2 30.15 L39.5 29.85 39.9 29.7 43.55 29.7 44 29.85 44.25 30.25 44.2 30.75 43.8 31.75 Q38.2 45.45 38.5 58.7 38.5 61.35 38.8 64 L34.2 64 34.2 45.1"/>
    <path stroke="none" fill="#2CC66D" d="M34.2 45.1 L34.2 64 26.95 64 27.4 56.3 Q27.55 39 20.2 21.2 L19.85 20.4 19.8 19.75 20.15 19.2 20.75 19 25.5 19 26.05 19.2 26.45 19.6 Q32 32.35 34.2 45.1"/>
  </g>
</svg>