<svg width="64" height="64" xmlns="http://www.w3.org/2000/svg" xmlns:xlink="http://www.w3.org/1999/xlink">
  <defs/>
  <g>
    <path stroke="none" fill="#27AE60" d="M25.4 24.3 Q26.9 23.75 28.3 24.3 29.85 24.85 30.55 26.4 35.75 38.2 30.35 48.9 26.7 56 28 64 L22.7 64 Q23.35 57.95 26.1 51.6 31.05 40.25 27.05 28.55 L25.4 24.3 M41.8 33.5 L43.4 33.9 Q44.9 34.7 45.5 36.55 46.05 38.35 45.4 40.15 L44.6 42.45 Q41.1 53.4 44.45 64 L42.65 64 42.1 62.75 Q36.4 50.75 41.8 33.5"/>
    <path stroke="none" fill="#2CC66D" d="M41.8 33.5 Q36.4 50.75 42.1 62.75 L42.65 64 38.8 64 38.3 62.75 Q32.85 50.2 38.1 36.3 38.8 34.5 40.35 33.85 41.05 33.5 41.8 33.5 M22.7 64 L19.7 64 Q20.35 58.45 23.1 52.65 28.05 42.3 24.05 31.6 L23.25 29.65 Q22.6 28.1 23.15 26.6 23.75 25.05 25.25 24.35 L25.4 24.3 27.05 28.55 Q31.05 40.25 26.1 51.6 23.35 57.95 22.7 64"/>
  </g>
</svg>