<svg width="64" height="64" xmlns="http://www.w3.org/2000/svg" xmlns:xlink="http://www.w3.org/1999/xlink">
  <defs/>
  <g>
    <path stroke="none" fill="#98659F" d="M19.7 64 L17.7 64 17.75 63.8 Q18.4 57.9 21.3 51.8 25.9 42.2 22.2 32.3 L22.15 32.25 21.45 30.5 21.4 30.45 Q20.45 28.15 21.3 25.9 22.15 23.6 24.4 22.55 L24.35 22.55 25.1 22.3 29 22.45 Q31.3 23.25 32.4 25.6 35.4 32.5 35.1 39.05 L36.25 35.6 Q37.25 33 39.45 32.05 40.6 31.5 41.8 31.5 L44.3 32.1 44.35 32.15 Q46.55 33.25 47.4 35.95 L47.45 36 Q48.15 38.4 47.3 40.85 L47.3 40.9 Q46.85 41.95 46.55 43.05 L46.5 43.05 Q43.2 53.4 46.35 63.4 L46.45 64 44.45 64 Q41.1 53.4 44.6 42.45 L45.4 40.15 Q46.05 38.35 45.5 36.55 44.9 34.7 43.4 33.9 L41.8 33.5 Q41.05 33.5 40.35 33.85 38.8 34.5 38.1 36.3 32.85 50.2 38.3 62.75 L38.8 64 36.65 64 36.45 63.55 36.5 63.55 Q32.8 55.1 33.7 46.15 L32.15 49.8 32.15 49.85 Q28.8 56.35 30 63.7 L30 64 28 64 Q26.7 56 30.35 48.9 35.75 38.2 30.55 26.4 29.85 24.85 28.3 24.3 26.9 23.75 25.4 24.3 L25.25 24.35 Q23.75 25.05 23.15 26.6 22.6 28.1 23.25 29.65 L24.05 31.6 Q28.05 42.3 23.1 52.65 20.35 58.45 19.7 64"/>
    <path stroke="none" fill="#E599EE" d="M19.7 64 Q20.35 58.45 23.1 52.65 28.05 42.3 24.05 31.6 L23.25 29.65 Q22.6 28.1 23.15 26.6 23.75 25.05 25.25 24.35 L25.4 24.3 27.05 28.55 Q31.05 40.25 26.1 51.6 23.35 57.95 22.7 64 L19.7 64 M38.8 64 L38.3 62.75 Q32.85 50.2 38.1 36.3 38.8 34.5 40.35 33.85 41.05 33.5 41.8 33.5 36.4 50.75 42.1 62.75 L42.65 64 38.8 64"/>
    <path stroke="none" fill="#D58EDE" d="M25.4 24.3 Q26.9 23.75 28.3 24.3 29.85 24.85 30.55 26.4 35.75 38.2 30.35 48.9 26.7 56 28 64 L22.7 64 Q23.35 57.95 26.1 51.6 31.05 40.25 27.05 28.55 L25.4 24.3 M41.8 33.5 L43.4 33.9 Q44.9 34.7 45.5 36.55 46.05 38.35 45.4 40.15 L44.6 42.45 Q41.1 53.4 44.45 64 L42.65 64 42.1 62.75 Q36.4 50.75 41.8 33.5"/>
  </g>
</svg>