<svg width="64" height="64" xmlns="http://www.w3.org/2000/svg" xmlns:xlink="http://www.w3.org/1999/xlink">
  <defs/>
  <g>
    <path stroke="none" fill="#27AE60" d="M38.8 64 L34.2 64 34.2 45.1 Q35.95 37.65 39.2 30.15 L39.5 29.85 39.9 29.7 43.55 29.7 44 29.85 44.25 30.25 44.2 30.75 43.8 31.75 Q38.2 45.45 38.5 58.7 38.5 61.35 38.8 64"/>
    <path stroke="none" fill="#1B7E44" d="M38.8 64 Q38.5 61.35 38.5 58.7 38.2 45.45 43.8 31.75 L44.2 30.75 44.25 30.25 44 29.85 43.55 29.7 39.9 29.7 39.5 29.85 39.2 30.15 Q35.95 37.65 34.2 45.1 32 32.35 26.45 19.6 L26.05 19.2 25.5 19 20.75 19 20.15 19.2 19.8 19.75 19.85 20.4 20.2 21.2 Q27.55 39 27.4 56.3 L26.95 64 24.95 64 24.95 63.8 25.4 56.3 Q25.55 39.45 18.4 22.1 L18.05 21.3 Q17.55 20.35 17.9 19.2 18.1 18.25 18.9 17.65 L18.95 17.6 19.05 17.55 Q19.8 17 20.75 17 L25.5 17 Q26.45 17 27.2 17.6 L27.1 17.5 28.2 18.6 28.3 18.8 Q32.2 27.8 34.5 36.85 L37.4 29.35 37.4 29.25 Q37.8 28.45 38.6 28.05 39.25 27.65 39.9 27.7 L43.55 27.7 Q44.45 27.7 45.2 28.25 45.9 28.8 46.15 29.65 46.55 30.9 45.95 31.8 L45.65 32.5 Q40.2 45.8 40.5 58.65 L40.5 58.7 Q40.5 61.25 40.8 63.8 L40.8 64 38.8 64"/>
    <path stroke="none" fill="#2CC66D" d="M34.2 64 L26.95 64 27.4 56.3 Q27.55 39 20.2 21.2 L19.85 20.4 19.8 19.75 20.15 19.2 20.75 19 25.5 19 26.05 19.2 26.45 19.6 Q32 32.35 34.2 45.1 L34.2 64"/>
  </g>
</svg>