<svg width="64" height="64" xmlns="http://www.w3.org/2000/svg" xmlns:xlink="http://www.w3.org/1999/xlink">
  <defs/>
  <g>
    <path stroke="none" fill="#D58EDE" d="M39.7 24.5 L43.85 22.45 Q45.2 21.9 46.1 23.1 L46.9 24.5 Q52.9 35.8 45.7 47.5 L45.7 47.65 Q40.45 55.65 44.15 64 L40.1 64 Q35.4 52.95 40.25 42.35 40.25 42.25 40.1 42.45 44.1 33.15 39.7 24.5 M24.95 39.1 Q20.55 47.75 24.55 57.05 L24.4 56.95 Q26 60.45 26.55 63.95 L20 63.95 18.95 62.25 18.95 62.1 Q11.75 50.4 17.75 39.1 L18.55 37.7 Q19.45 36.5 20.8 37.05 L24.95 39.1"/>
    <path stroke="none" fill="#E599EE" d="M24.95 39.1 L26.85 40 Q28.1 40.65 27.4 42.35 23.4 50.5 28.8 59.25 L28.65 59.15 Q30.2 61.55 31.15 63.95 L26.55 63.95 Q26 60.45 24.4 56.95 L24.55 57.05 Q20.55 47.75 24.95 39.1 M40.1 64 L33.2 64 Q29.85 54.1 36 44.55 L35.85 44.65 Q41.25 35.9 37.25 27.75 36.55 26.05 37.8 25.4 L39.7 24.5 Q44.1 33.15 40.1 42.45 40.25 42.25 40.25 42.35 35.4 52.95 40.1 64"/>
  </g>
</svg>