<svg width="64" height="64" xmlns="http://www.w3.org/2000/svg" xmlns:xlink="http://www.w3.org/1999/xlink">
  <defs/>
  <g>
    <path stroke="none" fill="#A36000" d="M43.5 45.9 L41.75 30.45 41.25 29.35 Q40.85 28.9 40.25 28.75 L39.1 28.8 Q38.5 29 38.15 29.5 L29.35 41.9 16.95 37.5 15.45 37.55 Q14.8 37.8 14.5 38.4 L14.4 38.6 Q14.1 39.35 14.4 40.1 L19.75 53.9 13.05 55.75 Q12.25 55.95 11.85 56.65 L11.8 56.65 Q11.4 57.35 11.6 58.1 L11.85 58.65 12.45 59.35 19.55 64 15.9 64 11.35 61.05 11.25 60.95 Q10.45 60.35 10.05 59.55 L9.65 58.45 Q9.3 57 10.1 55.65 L10.4 55.25 Q11.2 54.15 12.6 53.8 L12.55 53.85 17.1 52.6 12.55 40.85 Q11.95 39.35 12.55 37.85 L12.6 37.7 12.7 37.5 Q13.3 36.3 14.55 35.75 L17.65 35.65 28.6 39.55 36.55 28.35 36.5 28.35 Q37.15 27.4 38.3 27 L40.75 26.8 Q41.95 27.1 42.75 28.05 43.55 28.9 43.75 30.15 L43.75 30.25 45.3 44.25 51.25 45.4 51.2 45.4 Q52.4 45.55 53.35 46.5 L53.5 46.7 53.8 47.1 54 47.4 54.4 48.55 54.45 48.85 Q54.55 49.9 54.1 50.95 L54.1 51 54 51.15 47.9 64 45.7 64 52.2 50.3 52.25 50.15 52.45 49 52.2 48.3 51.9 47.9 Q51.45 47.45 50.85 47.35 L43.5 45.9"/>
    <path stroke="none" fill="#FF9900" d="M43.5 45.9 L44.9 64 24.1 64 19.75 53.9 14.4 40.1 Q14.1 39.35 14.4 38.6 L14.5 38.4 Q14.8 37.8 15.45 37.55 L16.95 37.5 29.35 41.9 38.15 29.5 Q38.5 29 39.1 28.8 L40.25 28.75 Q40.85 28.9 41.25 29.35 L41.75 30.45 43.5 45.9"/>
    <path stroke="none" fill="#EE8E00" d="M43.5 45.9 L50.85 47.35 Q51.45 47.45 51.9 47.9 L52.2 48.3 52.45 49 52.25 50.15 52.2 50.3 45.7 64 44.9 64 43.5 45.9 M19.75 53.9 L24.1 64 19.55 64 12.45 59.35 11.85 58.65 11.6 58.1 Q11.4 57.35 11.8 56.65 L11.85 56.65 Q12.25 55.95 13.05 55.75 L19.75 53.9"/>
  </g>
</svg>