<svg width="64" height="64" xmlns="http://www.w3.org/2000/svg" xmlns:xlink="http://www.w3.org/1999/xlink">
  <defs/>
  <g>
    <path stroke="none" fill="#1B7E44" d="M39.35 64 Q39 59.2 38.95 54.4 38.8 34.05 44.4 13.15 L46.15 7.05 Q45.95 6.75 45.6 6.75 L40.85 6.75 Q40.55 6.75 40.3 7.05 L39.9 7.55 38.15 13.15 Q32.15 33.85 31 54.55 29.8 42.35 25.9 30.2 L25.8 30 25.05 29.05 25.2 29.25 Q24.7 28.75 24.15 28.75 L21.3 28.75 Q20.5 28.75 20.15 29.3 L19.75 29.85 Q24.35 44.85 24.1 59.45 L23.9 64 21.9 64 21.9 63.9 22.1 59.45 22.1 59.4 Q22.35 45.1 17.85 30.45 L17.8 29.65 Q17.8 29.2 18.05 28.85 L18.65 28 Q19.5 26.75 21.3 26.75 L24.15 26.75 Q25.05 26.7 25.85 27.2 L25.95 27.25 Q26.75 27.55 27.4 28.75 L27.8 29.6 Q29.35 34.45 30.5 39.3 32.35 25.95 36.25 12.6 L38 6.95 38.1 6.65 Q38.4 6.05 38.95 5.6 39.8 4.65 40.85 4.75 L45.6 4.75 Q47 4.75 47.85 5.95 L48.15 6.8 48.05 7.65 46.35 13.65 46.35 13.7 Q40.8 34.3 40.95 54.4 41 59.1 41.35 63.85 L41.35 64 39.35 64 M50.4 64 L50.25 60.65 Q50 48.5 53.75 36.1 L53.55 35.7 Q53.25 35.25 52.6 35.25 L50.2 35.25 Q49.75 35.25 49.35 35.65 L49.45 35.5 49.1 35.85 48.85 36.3 48.75 36.45 Q44.3 50.25 44.05 64 L42.05 64 Q42.3 49.95 46.85 35.85 L46.95 35.55 47.1 35.3 Q47.3 34.8 47.6 34.55 48 33.95 48.55 33.7 L48.65 33.65 Q49.4 33.2 50.2 33.25 L52.6 33.25 Q54.25 33.25 55.1 34.4 L55.7 35.7 55.7 36.7 Q52 48.75 52.25 60.6 L52.4 63.9 52.4 64 50.4 64 M15.8 64 Q14.65 57 12.4 50 L12.3 49.75 11.7 49.05 10.95 48.75 8.55 48.75 Q7.9 48.75 7.6 49.25 L7.35 49.5 Q9.1 55.3 8.85 61.05 L8.6 64 6.6 64 6.65 63.75 6.85 61 Q7.1 55.55 5.45 50.1 5.25 49.55 5.4 49 L5.95 48.1 6.1 47.95 Q6.95 46.8 8.55 46.75 L10.95 46.75 Q11.8 46.7 12.55 47.2 13.4 47.45 14.1 48.85 L14.3 49.4 Q16.6 56.55 17.8 63.7 L17.8 64 15.8 64"/>
    <path stroke="none" fill="#2CC66D" d="M31 54.55 Q32.15 33.85 38.15 13.15 L39.9 7.55 40.3 7.05 Q40.55 6.75 40.85 6.75 L45.6 6.75 Q45.95 6.75 46.15 7.05 L44.4 13.15 Q38.8 34.05 38.95 54.4 39 59.2 39.35 64 L31 64 31 54.55"/>
    <path stroke="none" fill="#27AE60" d="M31 54.55 L31 64 23.9 64 24.1 59.45 Q24.35 44.85 19.75 29.85 L20.15 29.3 Q20.5 28.75 21.3 28.75 L24.15 28.75 Q24.7 28.75 25.2 29.25 L25.05 29.05 25.8 30 25.9 30.2 Q29.8 42.35 31 54.55 M44.05 64 Q44.3 50.25 48.75 36.45 L48.85 36.3 49.1 35.85 49.45 35.5 49.35 35.65 Q49.75 35.25 50.2 35.25 L52.6 35.25 Q53.25 35.25 53.55 35.7 L53.75 36.1 Q50 48.5 50.25 60.65 L50.4 64 44.05 64 M8.6 64 L8.85 61.05 Q9.1 55.3 7.35 49.5 L7.6 49.25 Q7.9 48.75 8.55 48.75 L10.95 48.75 11.7 49.05 12.3 49.75 12.4 50 Q14.65 57 15.8 64 L8.6 64"/>
  </g>
</svg>