<svg width="64" height="64" xmlns="http://www.w3.org/2000/svg" xmlns:xlink="http://www.w3.org/1999/xlink">
  <defs/>
  <g>
    <path stroke="none" fill="#27AE60" d="M22.3 31.55 L26 29.5 Q27.2 28.95 28.4 30.15 L29.5 31.55 Q37.9 42.85 33.25 54.55 L33.3 54.7 Q31.3 59.3 32.25 64 L27.7 64 Q24.95 56.6 26.7 49.4 26.65 49.3 26.55 49.5 28.55 40.2 22.3 31.55 M43.3 64 L35.45 64 Q34.45 57 38.3 50.15 L39.15 48.75 Q40.05 47.55 41.4 48.1 L45.5 50.15 Q41.9 56.9 43.3 64"/>
    <path stroke="none" fill="#2CC66D" d="M43.3 64 Q41.9 56.9 45.5 50.15 L47.35 51.05 Q48.6 51.7 47.85 53.4 45.15 58.6 46.2 64 L43.3 64 M27.7 64 L21.65 64 Q20.3 57.75 22.9 51.6 L22.8 51.7 Q26.3 42.95 20.55 34.8 19.45 33.1 20.55 32.45 L22.3 31.55 Q28.55 40.2 26.55 49.5 26.65 49.3 26.7 49.4 24.95 56.6 27.7 64"/>
  </g>
</svg>