<svg width="64" height="64" xmlns="http://www.w3.org/2000/svg" xmlns:xlink="http://www.w3.org/1999/xlink">
  <defs/>
  <g>
    <path stroke="none" fill="#EE8E00" d="M26.5 50.55 L30.75 36.75 Q30.95 36.05 31.5 35.7 32.05 35.25 32.75 35.3 33.45 35.35 33.95 35.8 34.45 36.25 34.6 36.9 L38.25 54.95 43.7 53.2 45.15 53.3 46.1 54.2 46.15 54.35 Q46.45 55.05 46.2 55.8 L46.1 56.15 43.15 64 26.5 50.55"/>
    <path stroke="none" fill="#A36000" d="M26.5 50.55 L20.5 48.05 Q19.75 47.75 19 48.05 18.3 48.3 17.95 48.95 L17.9 49 Q17.55 49.7 17.8 50.5 L21.8 64 19.7 64 15.9 51.1 Q15.4 49.5 16.1 48.1 L16.45 47.65 Q17.1 46.65 18.25 46.2 L18.35 46.2 Q19.8 45.6 21.25 46.2 L21.3 46.2 25.25 47.85 28.85 36.15 28.85 36.2 Q29.2 34.85 30.25 34.15 31.4 33.2 32.9 33.3 34.3 33.4 35.3 34.35 36.25 35.2 36.55 36.45 L36.55 36.5 39.75 52.4 43.1 51.3 46.05 51.5 Q47.15 52.05 47.85 53.2 L47.95 53.45 48 53.55 Q48.6 54.9 48.15 56.35 L48.05 56.7 48 56.85 45.3 64 43.15 64 46.1 56.15 46.2 55.8 Q46.45 55.05 46.15 54.35 L46.1 54.2 45.15 53.3 43.7 53.2 38.25 54.95 34.6 36.9 Q34.45 36.25 33.95 35.8 33.45 35.35 32.75 35.3 32.05 35.25 31.5 35.7 30.95 36.05 30.75 36.75 L26.5 50.55"/>
    <path stroke="none" fill="#FF9900" d="M26.5 50.55 L43.15 64 21.8 64 17.8 50.5 Q17.55 49.7 17.9 49 L17.95 48.95 Q18.3 48.3 19 48.05 19.75 47.75 20.5 48.05 L26.5 50.55"/>
  </g>
</svg>