<svg width="64" height="64" xmlns="http://www.w3.org/2000/svg" xmlns:xlink="http://www.w3.org/1999/xlink">
  <defs/>
  <g>
    <path stroke="none" fill="#1B7E44" d="M21.65 64 L19.6 64 Q18.35 57.65 20.85 51.35 L20.95 50.95 Q24.05 43.2 18.95 35.95 L18.9 35.9 Q17.9 34.4 18 33.4 17.95 31.65 19.55 30.75 L19.6 30.7 25.05 27.75 25.2 27.7 Q27.5 26.45 29.85 28.75 L30 28.95 31.1 30.35 Q37.85 39.45 36.8 48.8 L37.5 47.7 37.55 47.55 Q39.4 45.1 42.15 46.25 L42.3 46.3 48.25 49.25 48.3 49.3 Q51.3 50.55 49.7 54.2 L49.65 54.35 Q47.25 58.9 48.2 63.65 L48.2 64 46.2 64 Q45.15 58.6 47.85 53.4 48.6 51.7 47.35 51.05 L45.5 50.15 41.4 48.1 Q40.05 47.55 39.15 48.75 L38.3 50.15 Q34.45 57 35.45 64 L32.25 64 Q31.3 59.3 33.3 54.7 L33.25 54.55 Q37.9 42.85 29.5 31.55 L28.4 30.15 Q27.2 28.95 26 29.5 L22.3 31.55 20.55 32.45 Q19.45 33.1 20.55 34.8 26.3 42.95 22.8 51.7 L22.9 51.6 Q20.3 57.75 21.65 64"/>
    <path stroke="none" fill="#27AE60" d="M22.3 31.55 L26 29.5 Q27.2 28.95 28.4 30.15 L29.5 31.55 Q37.9 42.85 33.25 54.55 L33.3 54.7 Q31.3 59.3 32.25 64 L27.7 64 Q24.95 56.6 26.7 49.4 26.65 49.3 26.55 49.5 28.55 40.2 22.3 31.55 M35.45 64 Q34.45 57 38.3 50.15 L39.15 48.75 Q40.05 47.55 41.4 48.1 L45.5 50.15 Q41.9 56.9 43.3 64 L35.45 64"/>
    <path stroke="none" fill="#2CC66D" d="M21.65 64 Q20.3 57.75 22.9 51.6 L22.8 51.7 Q26.3 42.95 20.55 34.8 19.45 33.1 20.55 32.45 L22.3 31.55 Q28.55 40.2 26.55 49.5 26.65 49.3 26.7 49.4 24.95 56.6 27.7 64 L21.65 64 M45.5 50.15 L47.35 51.05 Q48.6 51.7 47.85 53.4 45.15 58.6 46.2 64 L43.3 64 Q41.9 56.9 45.5 50.15"/>
  </g>
</svg>