<svg width="64" height="64" xmlns="http://www.w3.org/2000/svg" xmlns:xlink="http://www.w3.org/1999/xlink">
  <defs/>
  <g>
    <path stroke="none" fill="#EE8E00" d="M26.5 50.55 L30.75 36.75 Q30.95 36.05 31.5 35.7 32.05 35.25 32.75 35.3 33.45 35.35 33.95 35.8 34.45 36.25 34.6 36.9 L38.25 54.95 43.7 53.2 45.15 53.3 46.1 54.2 46.15 54.35 Q46.45 55.05 46.2 55.8 L46.1 56.15 43.15 64 26.5 50.55"/>
    <path stroke="none" fill="#FF9900" d="M26.5 50.55 L43.15 64 21.8 64 17.8 50.5 Q17.55 49.7 17.9 49 L17.95 48.95 Q18.3 48.3 19 48.05 19.75 47.75 20.5 48.05 L26.5 50.55"/>
  </g>
</svg>