<svg width="64" height="64" xmlns="http://www.w3.org/2000/svg" xmlns:xlink="http://www.w3.org/1999/xlink">
  <defs/>
  <g>
    <path stroke="none" fill="#1B7E44" d="M12 64 L10 64 10.1 63.4 10.45 62.5 11.3 60.65 Q15.15 50.25 10.65 41.25 4.75 29.75 10.4 17.05 11.4 14.75 13.7 13.9 L13.8 13.9 Q16 13 18.3 13.95 18.85 14.2 19.4 14.6 20.8 15.65 21.5 17.35 22.3 19.6 21.35 21.9 L21.3 21.95 20.6 23.75 20.6 23.8 Q16.85 33.7 21.45 43.25 23.3 47.1 24.25 50.9 25.15 45.45 27.4 39.9 32.1 28.4 28.3 16.55 L27.55 14.4 27.55 14.35 Q26.65 11.9 27.4 9.5 L27.4 9.45 Q28.25 6.75 30.45 5.65 L30.5 5.6 Q31.75 5 33 5 34.2 5 35.35 5.55 37.55 6.5 38.6 9.1 41.65 17.25 41.25 25 42.3 23.15 44.35 22.45 L48.2 22.3 48.95 22.55 48.9 22.55 Q51.15 23.6 52.05 25.9 52.85 28.15 51.9 30.45 L51.85 30.5 51.15 32.25 51.15 32.3 Q47.4 42.2 52 51.8 54.9 57.9 55.6 63.8 L55.6 64 53.6 64 Q52.95 58.45 50.2 52.65 45.25 42.3 49.25 31.6 L50.05 29.65 Q50.7 28.1 50.15 26.6 49.55 25.05 48.05 24.35 L47.9 24.3 Q46.4 23.75 45 24.3 43.45 24.85 42.75 26.4 37.55 38.2 42.95 48.9 46.6 56 45.3 64 L43.3 64 43.35 63.7 Q44.5 56.35 41.2 49.85 L41.2 49.8 Q38.1 43.75 38.2 37.35 33.75 48.05 37.65 60.25 L38.5 62.55 38.5 62.5 38.85 63.45 38.9 64 36.9 64 36.65 63.3 35.75 60.85 Q31.55 47.7 36.5 36.25 41.95 23.7 36.7 9.8 36 8 34.45 7.35 33.75 7 33 7 L31.4 7.4 Q29.9 8.2 29.3 10.05 28.75 11.85 29.4 13.65 L30.2 15.95 Q34.2 28.5 29.25 40.65 24.35 52.65 26.2 64 L22.7 64 Q24.55 54.35 19.65 44.1 14.7 33.8 18.7 23.1 L19.5 21.1 Q20.15 19.55 19.6 18.05 19.15 16.9 18.2 16.2 L17.5 15.8 14.45 15.75 Q12.9 16.3 12.2 17.85 6.95 29.65 12.4 40.35 17.35 50.1 13.15 61.35 L12.25 63.4 12 64"/>
    <path stroke="none" fill="#2CC66D" d="M12 64 L12.25 63.4 13.15 61.35 Q17.35 50.1 12.4 40.35 6.95 29.65 12.2 17.85 12.9 16.3 14.45 15.75 L17.5 15.8 18.2 16.2 15.4 23.1 Q11.4 33.8 16.35 44.1 21.25 54.35 19.4 64 L12 64 M53.6 64 L50.6 64 Q49.95 57.95 47.2 51.6 42.25 40.25 46.25 28.55 L47.9 24.3 48.05 24.35 Q49.55 25.05 50.15 26.6 50.7 28.1 50.05 29.65 L49.25 31.6 Q45.25 42.3 50.2 52.65 52.95 58.45 53.6 64 M36.9 64 L32 64 31.75 63.3 30.95 60.85 Q27.3 47.7 32.7 36.25 38.4 24.25 33 7 33.75 7 34.45 7.35 36 8 36.7 9.8 41.95 23.7 36.5 36.25 31.55 47.7 35.75 60.85 L36.65 63.3 36.9 64"/>
    <path stroke="none" fill="#27AE60" d="M50.6 64 L45.3 64 Q46.6 56 42.95 48.9 37.55 38.2 42.75 26.4 43.45 24.85 45 24.3 46.4 23.75 47.9 24.3 L46.25 28.55 Q42.25 40.25 47.2 51.6 49.95 57.95 50.6 64 M32 64 L26.2 64 Q24.35 52.65 29.25 40.65 34.2 28.5 30.2 15.95 L29.4 13.65 Q28.75 11.85 29.3 10.05 29.9 8.2 31.4 7.4 L33 7 Q38.4 24.25 32.7 36.25 27.3 47.7 30.95 60.85 L31.75 63.3 32 64 M22.7 64 L19.4 64 Q21.25 54.35 16.35 44.1 11.4 33.8 15.4 23.1 L18.2 16.2 Q19.15 16.9 19.6 18.05 20.15 19.55 19.5 21.1 L18.7 23.1 Q14.7 33.8 19.65 44.1 24.55 54.35 22.7 64"/>
  </g>
</svg>