<svg width="64" height="64" xmlns="http://www.w3.org/2000/svg" xmlns:xlink="http://www.w3.org/1999/xlink">
  <defs/>
  <g>
    <path stroke="none" fill="#F7EDBE" d="M51.65 4.9 Q42.8 2.95 34 2.75 L30 2.75 25.45 3 25.1 3 24.5 3.05 23.95 3.1 23.65 3.15 23.1 3.2 22.8 3.2 22.5 3.25 8.8 5.8 8.3 5.95 Q4.15 7 0 8.5 L0 4 Q15 0.25 30 0 L34 0 Q49 0.25 64 4 L64 8.5 Q57.8 6.25 51.65 4.9"/>
    <path stroke="none" fill="#E9DFB3" d="M51.65 4.9 Q43.3 18.8 24.6 24.55 L24.65 24.6 Q8.9 28.5 0 41.25 L0 23.15 2.75 19 Q5.8 13.75 7.45 7.3 L7.9 6.05 8.3 5.95 8.8 5.8 22.5 3.25 22.8 3.2 23.1 3.2 23.65 3.15 23.95 3.1 24.5 3.05 25.1 3 25.45 3 30 2.75 34 2.75 Q42.8 2.95 51.65 4.9 M58.95 17 L55.2 20.95 51.25 17.2 55 13.25 58.95 17 M64 41.25 Q59.5 47.75 56.75 56.5 55.75 60.5 54.2 64 L10.25 64 Q19.2 44.3 39.6 39.25 L39.55 39.2 Q55.65 34.2 64 23.15 L64 41.25 M32.2 30.05 L37.3 32 35.4 37.15 30.25 35.15 32.2 30.05 M22.55 36.55 L24.1 41.2 19.5 42.75 17.95 38.15 22.55 36.55 M5.85 54.2 L9.05 49.85 13.4 53 10.25 57.4 5.85 54.2"/>
    <path stroke="none" fill="#EEE4B7" d="M5.85 54.2 L10.25 57.4 13.4 53 9.05 49.85 5.85 54.2 M51.65 4.9 Q57.8 6.25 64 8.5 L64 23.15 Q55.65 34.2 39.55 39.2 L39.6 39.25 Q19.2 44.3 10.25 64 L0 64 0 41.25 Q8.9 28.5 24.65 24.6 L24.6 24.55 Q43.3 18.8 51.65 4.9 M0 8.5 Q4.15 7 8.3 5.95 L7.9 6.05 7.45 7.3 Q5.8 13.75 2.75 19 L0 23.15 0 8.5 M58.95 17 L55 13.25 51.25 17.2 55.2 20.95 58.95 17 M64 41.25 L64 64 54.2 64 Q55.75 60.5 56.75 56.5 59.5 47.75 64 41.25 M32.2 30.05 L30.25 35.15 35.4 37.15 37.3 32 32.2 30.05 M22.55 36.55 L17.95 38.15 19.5 42.75 24.1 41.2 22.55 36.55"/>
  </g>
</svg>