<svg width="64" height="64" xmlns="http://www.w3.org/2000/svg" xmlns:xlink="http://www.w3.org/1999/xlink">
  <defs/>
  <g>
    <path stroke="none" fill="#C48647" d="M54.2 0 L64 0 64 23.15 Q55.65 34.2 39.55 39.2 L39.6 39.25 Q19.2 44.3 10.25 64 L0 64 0 41.25 Q8.9 28.5 24.65 24.6 L24.6 24.55 Q28.85 23.25 32.55 21.55 L33 21.75 31.55 27.25 Q31.35 28.05 31.7 28.8 32 29.5 32.7 29.85 33.4 30.3 34.2 30.15 35 30.05 35.55 29.45 L39.45 25.3 44.25 28.35 Q44.9 28.8 45.7 28.65 46.5 28.65 47.1 28.05 47.65 27.5 47.8 26.75 47.95 25.95 47.55 25.25 L44.8 20.25 49.15 16.65 Q49.75 16.1 49.95 15.35 50.15 14.55 49.75 13.9 49.45 13.15 48.7 12.75 L47.2 12.6 45.25 12.95 Q49.25 9.05 52.05 4.2 L54.2 0 M64 41.25 L64 64 54.2 64 Q55.75 60.5 56.75 56.5 59.5 47.75 64 41.25 M0 23.15 L0 0 10.25 0 Q8.65 3.45 7.45 7.3 5.8 13.75 2.75 19 L0 23.15 M32.2 30.05 L30.25 35.15 35.4 37.15 37.3 32 32.2 30.05 M55.2 20.95 L58.95 17 55 13.25 51.25 17.2 55.2 20.95 M5.85 54.2 L10.25 57.4 13.4 53 9.05 49.85 5.85 54.2 M17.95 38.15 L19.5 42.75 24.1 41.2 22.55 36.55 17.95 38.15"/>
    <path stroke="none" fill="#BB7F43" d="M17.95 38.15 L22.55 36.55 24.1 41.2 19.5 42.75 17.95 38.15 M64 23.15 L64 41.25 Q59.5 47.75 56.75 56.5 55.75 60.5 54.2 64 L10.25 64 Q19.2 44.3 39.6 39.25 L39.55 39.2 Q55.65 34.2 64 23.15 M0 41.25 L0 23.15 2.75 19 Q5.8 13.75 7.45 7.3 8.65 3.45 10.25 0 L54.2 0 52.05 4.2 Q49.25 9.05 45.25 12.95 L41.65 13.6 39.6 8.3 Q39.25 7.6 38.6 7.2 37.9 6.75 37.1 6.85 36.35 6.95 35.75 7.55 35.15 8.1 35.1 8.9 L34.35 14.5 28.7 14.95 Q27.9 14.95 27.3 15.45 26.7 16.05 26.55 16.85 26.4 17.55 26.8 18.25 27.1 19 27.85 19.35 L32.55 21.55 Q28.85 23.25 24.6 24.55 L24.65 24.6 Q8.9 28.5 0 41.25 M55.2 20.95 L51.25 17.2 55 13.25 58.95 17 55.2 20.95 M32.2 30.05 L37.3 32 35.4 37.15 30.25 35.15 32.2 30.05 M5.85 54.2 L9.05 49.85 13.4 53 10.25 57.4 5.85 54.2"/>
    <path stroke="none" fill="#FF9900" d="M45.25 12.95 L47.2 12.6 48.7 12.75 Q49.45 13.15 49.75 13.9 50.15 14.55 49.95 15.35 49.75 16.1 49.15 16.65 L44.8 20.25 47.55 25.25 Q47.95 25.95 47.8 26.75 47.65 27.5 47.1 28.05 46.5 28.65 45.7 28.65 44.9 28.8 44.25 28.35 L39.45 25.3 35.55 29.45 Q35 30.05 34.2 30.15 33.4 30.3 32.7 29.85 32 29.5 31.7 28.8 31.35 28.05 31.55 27.25 L33 21.75 32.55 21.55 27.85 19.35 Q27.1 19 26.8 18.25 26.4 17.55 26.55 16.85 26.7 16.05 27.3 15.45 27.9 14.95 28.7 14.95 L34.35 14.5 35.1 8.9 Q35.15 8.1 35.75 7.55 36.35 6.95 37.1 6.85 37.9 6.75 38.6 7.2 39.25 7.6 39.6 8.3 L41.65 13.6 45.25 12.95 M38.95 12.9 Q38.4 12.55 37.8 12.6 37.15 12.7 36.8 13.2 36.4 13.7 36.45 14.3 36.55 14.95 37.05 15.35 37.55 15.75 38.2 15.65 38.8 15.6 39.2 15.05 39.6 14.55 39.5 13.9 39.45 13.3 38.95 12.9 M38.3 9.6 Q37.9 9.3 37.4 9.35 36.9 9.4 36.6 9.8 36.3 10.2 36.35 10.7 L36.8 11.45 Q37.2 11.8 37.7 11.75 38.2 11.7 38.5 11.25 L38.75 10.4 Q38.7 9.9 38.3 9.6 M42.65 16.7 Q42.75 17.35 43.25 17.7 43.75 18.1 44.35 18 45 17.95 45.4 17.45 45.8 17 45.7 16.35 45.65 15.7 45.15 15.3 L43.95 15 Q43.35 15.1 43 15.55 42.6 16.05 42.65 16.7 M47.95 14.1 Q47.6 13.8 47.15 13.85 46.65 13.95 46.25 14.35 46 14.7 46.1 15.2 46.15 15.7 46.5 16.05 L47.45 16.25 Q47.9 16.2 48.2 15.8 L48.45 14.9 47.95 14.1 M32.35 16.5 Q31.7 16.6 31.4 17.05 31 17.55 31.05 18.2 31.15 18.85 31.65 19.2 32.1 19.6 32.75 19.5 L33.8 18.9 Q34.15 18.45 34.05 17.8 34 17.15 33.55 16.75 L32.35 16.5 M34.85 23.35 Q34.5 23.85 34.55 24.5 34.65 25.1 35.15 25.5 35.65 25.9 36.25 25.8 36.9 25.75 37.3 25.2 37.7 24.7 37.6 24.1 37.55 23.45 37 23.05 36.5 22.7 35.85 22.75 L34.85 23.35 M41.4 22.5 Q41.05 23 41.1 23.65 41.2 24.25 41.7 24.65 42.2 25.05 42.8 25 43.45 24.9 43.8 24.4 44.25 23.9 44.15 23.3 44.1 22.65 43.5 22.25 43.05 21.85 42.4 21.95 41.8 22 41.4 22.5 M33.6 28.1 Q33.95 28.4 34.45 28.35 L35.25 27.85 35.5 27 Q35.4 26.5 35 26.15 L34.15 25.95 Q33.65 26 33.35 26.4 33 26.8 33.1 27.3 33.15 27.8 33.6 28.1 M44.05 25 Q43.8 25.4 43.9 25.9 43.95 26.4 44.3 26.7 L45.25 26.95 Q45.7 26.9 46 26.5 L46.25 25.6 45.75 24.8 Q45.4 24.5 44.95 24.55 44.45 24.65 44.05 25 M29.95 16.4 Q29.6 16.1 29.1 16.15 28.6 16.2 28.25 16.6 27.95 17 28.05 17.5 28.1 18 28.5 18.3 L29.4 18.55 30.2 18.1 30.45 17.2 29.95 16.4"/>
    <path stroke="none" fill="#F08F00" d="M29.95 16.4 L30.45 17.2 30.2 18.1 29.4 18.55 28.5 18.3 Q28.1 18 28.05 17.5 27.95 17 28.25 16.6 28.6 16.2 29.1 16.15 29.6 16.1 29.95 16.4 M47.95 14.1 L48.45 14.9 48.2 15.8 Q47.9 16.2 47.45 16.25 L46.5 16.05 Q46.15 15.7 46.1 15.2 46 14.7 46.25 14.35 46.65 13.95 47.15 13.85 47.6 13.8 47.95 14.1 M42.65 16.7 Q42.6 16.05 43 15.55 43.35 15.1 43.95 15 L45.15 15.3 Q45.65 15.7 45.7 16.35 45.8 17 45.4 17.45 45 17.95 44.35 18 43.75 18.1 43.25 17.7 42.75 17.35 42.65 16.7 M38.3 9.6 Q38.7 9.9 38.75 10.4 L38.5 11.25 Q38.2 11.7 37.7 11.75 37.2 11.8 36.8 11.45 L36.35 10.7 Q36.3 10.2 36.6 9.8 36.9 9.4 37.4 9.35 37.9 9.3 38.3 9.6 M38.95 12.9 Q39.45 13.3 39.5 13.9 39.6 14.55 39.2 15.05 38.8 15.6 38.2 15.65 37.55 15.75 37.05 15.35 36.55 14.95 36.45 14.3 36.4 13.7 36.8 13.2 37.15 12.7 37.8 12.6 38.4 12.55 38.95 12.9 M34.85 23.35 L35.85 22.75 Q36.5 22.7 37 23.05 37.55 23.45 37.6 24.1 37.7 24.7 37.3 25.2 36.9 25.75 36.25 25.8 35.65 25.9 35.15 25.5 34.65 25.1 34.55 24.5 34.5 23.85 34.85 23.35 M32.35 16.5 L33.55 16.75 Q34 17.15 34.05 17.8 34.15 18.45 33.8 18.9 L32.75 19.5 Q32.1 19.6 31.65 19.2 31.15 18.85 31.05 18.2 31 17.55 31.4 17.05 31.7 16.6 32.35 16.5 M41.4 22.5 Q41.8 22 42.4 21.95 43.05 21.85 43.5 22.25 44.1 22.65 44.15 23.3 44.25 23.9 43.8 24.4 43.45 24.9 42.8 25 42.2 25.05 41.7 24.65 41.2 24.25 41.1 23.65 41.05 23 41.4 22.5 M33.6 28.1 Q33.15 27.8 33.1 27.3 33 26.8 33.35 26.4 33.65 26 34.15 25.95 L35 26.15 Q35.4 26.5 35.5 27 L35.25 27.85 34.45 28.35 Q33.95 28.4 33.6 28.1 M44.05 25 Q44.45 24.65 44.95 24.55 45.4 24.5 45.75 24.8 L46.25 25.6 46 26.5 Q45.7 26.9 45.25 26.95 L44.3 26.7 Q43.95 26.4 43.9 25.9 43.8 25.4 44.05 25"/>
  </g>
</svg>