<svg width="64" height="64" xmlns="http://www.w3.org/2000/svg" xmlns:xlink="http://www.w3.org/1999/xlink">
  <defs/>
  <g>
    <path stroke="none" fill="#F7EDBE" d="M52.65 3.25 L52.45 3.2 51.9 3.1 49 2.75 47 2.75 Q39.5 3.1 32 8.5 19 17.85 6 12 3 10.65 0 8.5 L0 4 Q16 12 32 4 39.5 0.25 47 0 L49 0 Q56.5 0.25 64 4 L64 8.5 Q58.35 4.4 52.65 3.25"/>
    <path stroke="none" fill="#E9DFB3" d="M52.65 3.25 L52.05 4.2 Q43.75 18.65 24.6 24.55 L24.65 24.6 Q8.9 28.5 0 41.25 L0 23.15 2.75 19 Q4.65 15.75 6 12 19 17.85 32 8.5 39.5 3.1 47 2.75 L49 2.75 51.9 3.1 52.45 3.2 52.65 3.25 M42.45 27.3 L47.55 29.25 45.65 34.4 40.5 32.4 42.45 27.3 M34.15 24.8 L37.65 29 33.4 32.45 29.95 28.25 34.15 24.8 M10.25 64 Q19.2 44.3 39.6 39.25 L39.55 39.2 Q55.65 34.2 64 23.15 L64 41.25 Q59.5 47.75 56.75 56.5 55.75 60.5 54.2 64 L10.25 64 M4.4 56.3 L2.85 51.7 7.45 50.1 9 54.75 4.4 56.3"/>
    <path stroke="none" fill="#EEE4B7" d="M4.4 56.3 L9 54.75 7.45 50.1 2.85 51.7 4.4 56.3 M52.65 3.25 Q58.35 4.4 64 8.5 L64 23.15 Q55.65 34.2 39.55 39.2 L39.6 39.25 Q19.2 44.3 10.25 64 L0 64 0 41.25 Q8.9 28.5 24.65 24.6 L24.6 24.55 Q43.75 18.65 52.05 4.2 L52.65 3.25 M0 8.5 Q3 10.65 6 12 4.65 15.75 2.75 19 L0 23.15 0 8.5 M34.15 24.8 L29.95 28.25 33.4 32.45 37.65 29 34.15 24.8 M42.45 27.3 L40.5 32.4 45.65 34.4 47.55 29.25 42.45 27.3 M64 41.25 L64 64 54.2 64 Q55.75 60.5 56.75 56.5 59.5 47.75 64 41.25"/>
    <path stroke="none" fill="#E5DBB0" d="M32 4 Q16 12 0 4 7.5 0.25 15 0 L17 0 Q24.5 0.25 32 4"/>
  </g>
</svg>