<svg width="64" height="64" xmlns="http://www.w3.org/2000/svg" xmlns:xlink="http://www.w3.org/1999/xlink">
  <defs/>
  <g>
    <path stroke="none" fill="#A16D39" d="M0 6 L0 4 Q4 2 8 1 11.5 0.1 15 0 L17 0 Q20.5 0.1 24.05 1 28 2 32 4 36 2 40 1 43.5 0.1 47 0 L49 0 56.05 1 Q60 2 64 4 L64 6 Q56.5 2.25 49 2 L47 2 Q39.5 2.25 32 6 24.5 2.25 17 2 L15 2 Q7.5 2.25 0 6"/>
    <path stroke="none" fill="#D7914B" d="M0 6 Q16 14 32 6 39.5 2.25 47 2 L49 2 Q56.5 2.25 64 6 L64 10.5 Q58.35 6.4 52.65 5.25 L52.45 5.2 51.9 5.1 51.55 5.05 49 4.75 47 4.75 Q39.5 5.1 32 10.5 19 19.85 6 14 L5.35 13.7 Q2.7 12.4 0 10.5 L0 6"/>
    <path stroke="none" fill="#C48647" d="M64 10.5 L64 23.15 Q55.65 34.2 39.55 39.2 L39.6 39.25 Q20.25 44.05 11.2 62 L10.25 64 0 64 0 41.25 Q8.9 28.5 24.65 24.6 L24.6 24.55 Q43.2 18.8 51.55 5.05 L51.9 5.1 52.45 5.2 52.65 5.25 Q58.35 6.4 64 10.5 M64 41.25 L64 64 54.2 64 55.05 62 56.75 56.5 Q59.5 47.75 64 41.25 M0 23.15 L0 10.5 Q2.7 12.4 5.35 13.7 L2.75 19 0 23.15 M29.95 28.25 L33.4 32.45 37.65 29 34.15 24.8 29.95 28.25 M42.45 27.3 L40.5 32.4 45.65 34.4 47.55 29.25 42.45 27.3 M9 54.75 L7.45 50.1 2.85 51.7 4.4 56.3 9 54.75"/>
    <path stroke="none" fill="#BB7F43" d="M9 54.75 L4.4 56.3 2.85 51.7 7.45 50.1 9 54.75 M0 6 Q7.5 2.25 15 2 L17 2 Q24.5 2.25 32 6 16 14 0 6 M64 23.15 L64 41.25 Q59.5 47.75 56.75 56.5 L55.05 62 54.2 64 10.25 64 11.2 62 Q20.25 44.05 39.6 39.25 L39.55 39.2 Q55.65 34.2 64 23.15 M0 41.25 L0 23.15 2.75 19 5.35 13.7 6 14 Q19 19.85 32 10.5 39.5 5.1 47 4.75 L49 4.75 51.55 5.05 Q43.2 18.8 24.6 24.55 L24.65 24.6 Q8.9 28.5 0 41.25 M42.45 27.3 L47.55 29.25 45.65 34.4 40.5 32.4 42.45 27.3 M29.95 28.25 L34.15 24.8 37.65 29 33.4 32.45 29.95 28.25"/>
  </g>
</svg>