<svg width="64" height="64" xmlns="http://www.w3.org/2000/svg" xmlns:xlink="http://www.w3.org/1999/xlink">
  <defs/>
  <g>
    <path stroke="none" fill="#EEE4B7" d="M47.2 17.05 L45.25 22.15 50.4 24.15 52.3 19 47.2 17.05 M54.2 0 L64 0 64 23.15 Q57.45 31.85 46.15 36.8 45.55 35.25 43.4 34.45 L43.4 34.25 43.3 34.15 42.7 33.95 42.5 33.95 42.45 33.95 41.8 33.2 Q40.95 31.95 39.5 31.65 38.25 31.3 36.95 32 L36.25 32.3 36.15 32.2 35.7 32.1 35.55 32.05 35.5 32.05 35.3 32.1 35.2 32.25 Q31.65 31.65 30.65 34.45 30.1 35.9 30.3 37.5 30.55 40.15 31.25 42.15 17.25 48.6 10.25 64 L0 64 0 41.25 Q8.9 28.5 24.65 24.6 L24.6 24.55 Q43.75 18.65 52.05 4.2 L54.2 0 M64 41.25 L64 64 54.2 64 Q55.75 60.5 56.75 56.5 59.5 47.75 64 41.25 M10.25 0 Q8.65 3.45 7.45 7.3 5.8 13.75 2.75 19 L0 23.15 0 0 10.25 0 M8.6 46.95 L10.15 51.55 14.75 50 13.2 45.35 8.6 46.95"/>
    <path stroke="none" fill="#E9DFB3" d="M8.6 46.95 L13.2 45.35 14.75 50 10.15 51.55 8.6 46.95 M47.2 17.05 L52.3 19 50.4 24.15 45.25 22.15 47.2 17.05 M54.2 0 L52.05 4.2 Q43.75 18.65 24.6 24.55 L24.65 24.6 Q8.9 28.5 0 41.25 L0 23.15 2.75 19 Q5.8 13.75 7.45 7.3 8.65 3.45 10.25 0 L54.2 0 M10.25 64 Q17.25 48.6 31.25 42.15 L32.4 44.55 32.05 45.25 32 45.35 Q31.9 46 32.05 46.55 32.2 47.1 32.6 47.25 L38.1 48.7 Q38.5 48.8 38.9 48.4 L39.5 47.35 39.55 47.25 39.6 46.6 39.7 46.5 Q42.5 45 45 41.45 46 40.15 46.25 38.55 46.4 37.55 46.15 36.8 57.45 31.85 64 23.15 L64 41.25 Q59.5 47.75 56.75 56.5 55.75 60.5 54.2 64 L10.25 64"/>
    <path stroke="none" fill="#E599EE" d="M31.25 42.15 Q30.55 40.15 30.3 37.5 30.1 35.9 30.65 34.45 31.65 31.65 35.2 32.25 34.95 32.95 34.65 35.45 34.3 38.25 34.7 38.35 35 38.5 35.3 37.55 L35.75 35.4 35.75 35.35 36.3 32.45 36.25 32.3 36.95 32 Q38.25 31.3 39.5 31.65 40.95 31.95 41.8 33.2 L42.45 33.95 42.4 34.1 41.35 36.85 41.35 36.9 40.8 38.8 40.75 39 Q40.5 39.9 40.75 40 L40.8 40 Q41.1 40.1 41.9 38.45 L42.3 37.5 43.4 34.45 Q45.55 35.25 46.15 36.8 46.4 37.55 46.25 38.55 46 40.15 45 41.45 42.5 45 39.7 46.5 35.7 46.55 32.4 44.55 L31.25 42.15 M39.5 47.35 L38.9 48.4 Q38.5 48.8 38.1 48.7 L32.6 47.25 Q32.2 47.1 32.05 46.55 31.9 46 32 45.35 35.45 47.55 39.5 47.35"/>
    <path stroke="none" fill="#C683CD" d="M35.2 32.25 L35.3 32.1 35.5 32.05 35.55 32.05 35.7 32.1 36.15 32.2 36.25 32.3 36.3 32.45 35.75 35.35 35.75 35.4 35.3 37.55 Q35 38.5 34.7 38.35 34.3 38.25 34.65 35.45 34.95 32.95 35.2 32.25 M42.45 33.95 L42.5 33.95 42.7 33.95 43.3 34.15 43.4 34.25 43.4 34.45 42.3 37.5 41.9 38.45 Q41.1 40.1 40.8 40 L40.75 40 Q40.5 39.9 40.75 39 L40.8 38.8 41.35 36.9 41.35 36.85 42.4 34.1 42.45 33.95"/>
    <path stroke="none" fill="#D890E0" d="M39.7 46.5 L39.6 46.6 39.55 47.25 39.5 47.35 Q35.45 47.55 32 45.35 L32.05 45.25 32.4 44.55 Q35.7 46.55 39.7 46.5"/>
  </g>
</svg>