<svg width="64" height="64" xmlns="http://www.w3.org/2000/svg" xmlns:xlink="http://www.w3.org/1999/xlink">
  <defs/>
  <g>
    <path stroke="none" fill="#A16D39" d="M0 6 L0 4 Q8 2 16 1 L30 0 34 0 48.05 1 Q56 2 64 4 L64 6 Q49 2.25 34 2 L30 2 Q15 2.25 0 6"/>
    <path stroke="none" fill="#C48647" d="M64 10.5 L64 23.15 Q55.65 34.2 39.55 39.2 L39.6 39.25 Q20.25 44.05 11.2 62 L10.25 64 0 64 0 41.25 Q8.9 28.5 24.65 24.6 L24.6 24.55 Q42.1 19.15 50.55 6.65 L51.65 6.9 Q57.8 8.25 64 10.5 M64 41.25 L64 64 54.2 64 55.05 62 56.75 56.5 Q59.5 47.75 64 41.25 M0 23.15 L0 10.5 Q3.6 9.2 7.2 8.25 5.6 14.15 2.75 19 L0 23.15 M45.65 34.4 L47.55 29.25 42.45 27.3 40.5 32.4 45.65 34.4 M29.95 28.25 L33.4 32.45 37.65 29 34.15 24.8 29.95 28.25 M9 54.75 L7.45 50.1 2.85 51.7 4.4 56.3 9 54.75"/>
    <path stroke="none" fill="#D7914B" d="M64 6 L64 10.5 Q57.8 8.25 51.65 6.9 L50.55 6.65 Q42.25 4.95 34 4.75 L30 4.75 29.55 4.75 29.2 4.75 28.85 4.8 28.5 4.8 28.15 4.85 27.75 4.85 18.25 5.85 13.15 6.75 8.4 7.9 7.9 8.05 7.2 8.25 Q3.6 9.2 0 10.5 L0 6 Q15 2.25 30 2 L34 2 Q49 2.25 64 6"/>
    <path stroke="none" fill="#BB7F43" d="M64 23.15 L64 41.25 Q59.5 47.75 56.75 56.5 L55.05 62 54.2 64 10.25 64 11.2 62 Q20.25 44.05 39.6 39.25 L39.55 39.2 Q55.65 34.2 64 23.15 M0 41.25 L0 23.15 2.75 19 Q5.6 14.15 7.2 8.25 L7.9 8.05 8.4 7.9 13.15 6.75 18.25 5.85 27.75 4.85 28.15 4.85 28.5 4.8 28.85 4.8 29.2 4.75 29.55 4.75 30 4.75 34 4.75 Q42.25 4.95 50.55 6.65 42.1 19.15 24.6 24.55 L24.65 24.6 Q8.9 28.5 0 41.25 M29.95 28.25 L34.15 24.8 37.65 29 33.4 32.45 29.95 28.25 M45.65 34.4 L40.5 32.4 42.45 27.3 47.55 29.25 45.65 34.4 M9 54.75 L4.4 56.3 2.85 51.7 7.45 50.1 9 54.75"/>
  </g>
</svg>