<svg width="64" height="64" xmlns="http://www.w3.org/2000/svg" xmlns:xlink="http://www.w3.org/1999/xlink">
  <defs/>
  <g>
    <path stroke="none" fill="#EEE4B7" d="M54.2 0 L64 0 64 23.15 Q55.65 34.2 39.55 39.2 L39.6 39.25 Q19.2 44.3 10.25 64 L0 64 0 41.25 Q8.9 28.5 24.65 24.6 L24.6 24.55 Q43.75 18.65 52.05 4.2 L54.2 0 M64 41.25 L64 64 54.2 64 Q55.75 60.5 56.75 56.5 59.5 47.75 64 41.25 M0 23.15 L0 0 10.25 0 Q8.65 3.45 7.45 7.3 5.8 13.75 2.75 19 L0 23.15 M58.95 17 L55 13.25 51.25 17.2 55.2 20.95 58.95 17 M35.4 37.15 L37.3 32 32.2 30.05 30.25 35.15 35.4 37.15 M13.4 53 L9.05 49.85 5.85 54.2 10.25 57.4 13.4 53 M24.1 41.2 L22.55 36.55 17.95 38.15 19.5 42.75 24.1 41.2"/>
    <path stroke="none" fill="#E9DFB3" d="M24.1 41.2 L19.5 42.75 17.95 38.15 22.55 36.55 24.1 41.2 M64 23.15 L64 41.25 Q59.5 47.75 56.75 56.5 55.75 60.5 54.2 64 L10.25 64 Q19.2 44.3 39.6 39.25 L39.55 39.2 Q55.65 34.2 64 23.15 M0 41.25 L0 23.15 2.75 19 Q5.8 13.75 7.45 7.3 8.65 3.45 10.25 0 L54.2 0 52.05 4.2 Q43.75 18.65 24.6 24.55 L24.65 24.6 Q8.9 28.5 0 41.25 M58.95 17 L55.2 20.95 51.25 17.2 55 13.25 58.95 17 M35.4 37.15 L30.25 35.15 32.2 30.05 37.3 32 35.4 37.15 M13.4 53 L10.25 57.4 5.85 54.2 9.05 49.85 13.4 53"/>
  </g>
</svg>