<svg width="64" height="64" xmlns="http://www.w3.org/2000/svg" xmlns:xlink="http://www.w3.org/1999/xlink">
  <defs/>
  <g>
    <path stroke="none" fill="#CBC29C" d="M0 4 L0 2 4.75 1 15 0 17 0 27.25 1 32 2 36.75 1 47 0 49 0 59.25 1 64 2 64 4 Q56.5 2.15 49 2 L47 2 Q39.5 2.15 32 4 24.5 2.15 17 2 L15 2 Q7.5 2.15 0 4"/>
    <path stroke="none" fill="#F7EDBE" d="M0 4 Q16 8 32 4 39.5 2.15 47 2 L49 2 Q56.5 2.15 64 4 L64 7.65 Q58.35 5.6 52.75 5 L51.65 4.9 49 4.75 47 4.75 Q39.5 4.95 32 7.65 L31.65 7.8 31.45 7.85 31.1 8 30.9 8.05 30.55 8.2 30.35 8.25 30.15 8.3 29.95 8.35 29.55 8.5 29.35 8.55 29 8.65 28.7 8.7 28.55 8.75 27.65 9 27.25 9.1 27.1 9.15 26.85 9.25 Q17.05 11.55 7.35 9.7 L6.8 9.6 0 7.65 0 4"/>
    <path stroke="none" fill="#E9DFB3" d="M64 23.15 L64 41.25 Q59.5 47.75 56.75 56.5 L55.05 62 54.2 64 10.25 64 11.2 62 Q20.25 44.05 39.6 39.25 L39.55 39.2 Q55.65 34.2 64 23.15 M0 41.25 L0 23.15 2.75 19 Q5.25 14.7 6.8 9.6 L7.35 9.7 Q17.05 11.55 26.85 9.25 L27.1 9.15 27.25 9.1 27.65 9 28.55 8.75 28.7 8.7 29 8.65 29.35 8.55 29.55 8.5 29.95 8.35 30.15 8.3 30.35 8.25 30.55 8.2 30.9 8.05 31.1 8 31.45 7.85 31.65 7.8 32 7.65 Q39.5 4.95 47 4.75 L49 4.75 51.65 4.9 Q43.3 18.8 24.6 24.55 L24.65 24.6 Q8.9 28.5 0 41.25 M58.95 17 L55.2 20.95 51.25 17.2 55 13.25 58.95 17 M35.4 37.15 L30.25 35.15 32.2 30.05 37.3 32 35.4 37.15 M17.95 38.15 L22.55 36.55 24.1 41.2 19.5 42.75 17.95 38.15 M10.25 57.4 L5.85 54.2 9.05 49.85 13.4 53 10.25 57.4"/>
    <path stroke="none" fill="#EEE4B7" d="M10.25 57.4 L13.4 53 9.05 49.85 5.85 54.2 10.25 57.4 M64 7.65 L64 23.15 Q55.65 34.2 39.55 39.2 L39.6 39.25 Q20.25 44.05 11.2 62 L10.25 64 0 64 0 41.25 Q8.9 28.5 24.65 24.6 L24.6 24.55 Q43.3 18.8 51.65 4.9 L52.75 5 Q58.35 5.6 64 7.65 M64 41.25 L64 64 54.2 64 55.05 62 56.75 56.5 Q59.5 47.75 64 41.25 M0 23.15 L0 7.65 6.8 9.6 Q5.25 14.7 2.75 19 L0 23.15 M58.95 17 L55 13.25 51.25 17.2 55.2 20.95 58.95 17 M35.4 37.15 L37.3 32 32.2 30.05 30.25 35.15 35.4 37.15 M17.95 38.15 L19.5 42.75 24.1 41.2 22.55 36.55 17.95 38.15"/>
    <path stroke="none" fill="#E5DBB0" d="M0 4 Q7.5 2.15 15 2 L17 2 Q24.5 2.15 32 4 16 8 0 4"/>
  </g>
</svg>