<svg width="64" height="64" xmlns="http://www.w3.org/2000/svg" xmlns:xlink="http://www.w3.org/1999/xlink">
  <defs/>
  <g>
    <path stroke="none" fill="#E5DBB0" d="M64 4 Q32 12 0 4 15 0.25 30 0 L34 0 Q49 0.25 64 4"/>
    <path stroke="none" fill="#EEE4B7" d="M0 8.5 L6.5 10.6 Q5 15.1 2.75 19 L0 23.15 0 8.5 M44.85 13.35 Q54.4 11.95 64 8.5 L64 23.15 Q55.65 34.2 39.55 39.2 L39.6 39.25 Q19.2 44.3 10.25 64 L0 64 0 41.25 Q8.9 28.5 24.65 24.6 L24.6 24.55 Q37 20.75 44.85 13.35 M64 41.25 L64 64 54.2 64 Q55.75 60.5 56.75 56.5 59.5 47.75 64 41.25 M45.25 22.15 L50.4 24.15 52.3 19 47.2 17.05 45.25 22.15 M14.75 50 L13.2 45.35 8.6 46.95 10.15 51.55 14.75 50"/>
    <path stroke="none" fill="#E9DFB3" d="M14.75 50 L10.15 51.55 8.6 46.95 13.2 45.35 14.75 50 M6.5 10.6 Q25.7 16.1 44.85 13.35 37 20.75 24.6 24.55 L24.65 24.6 Q8.9 28.5 0 41.25 L0 23.15 2.75 19 Q5 15.1 6.5 10.6 M64 23.15 L64 41.25 Q59.5 47.75 56.75 56.5 55.75 60.5 54.2 64 L10.25 64 Q19.2 44.3 39.6 39.25 L39.55 39.2 Q55.65 34.2 64 23.15 M45.25 22.15 L47.2 17.05 52.3 19 50.4 24.15 45.25 22.15"/>
    <path stroke="none" fill="#F7EDBE" d="M64 4 L64 8.5 Q54.4 11.95 44.85 13.35 25.7 16.1 6.5 10.6 L0 8.5 0 4 Q32 12 64 4"/>
  </g>
</svg>