<svg width="64" height="64" xmlns="http://www.w3.org/2000/svg" xmlns:xlink="http://www.w3.org/1999/xlink">
  <defs/>
  <g>
    <path stroke="none" fill="#F7EDBE" d="M32 2 Q39.5 0.15 47 0 L49 0 Q56.5 0.15 64 2 L64 5.65 Q58.35 3.6 52.75 3 L49 2.75 47 2.75 Q39.5 2.95 32 5.65 L31.65 5.8 31.45 5.85 31.1 6 30.9 6.05 30.55 6.2 30.35 6.25 30.15 6.3 29.95 6.35 29.55 6.5 29.35 6.55 29 6.65 28.7 6.7 28.55 6.75 27.65 7 27.25 7.1 27.1 7.15 26.85 7.25 Q17.05 9.55 7.35 7.7 3.65 6.95 0 5.65 L0 2 Q16 6 32 2"/>
    <path stroke="none" fill="#EEE4B7" d="M64 5.65 L64 23.15 Q55.65 34.2 39.55 39.2 L39.6 39.25 Q19.2 44.3 10.25 64 L0 64 0 41.25 Q8.9 28.5 24.65 24.6 L24.6 24.55 Q43.75 18.65 52.05 4.2 L52.75 3 Q58.35 3.6 64 5.65 M64 41.25 L64 64 54.2 64 Q55.75 60.5 56.75 56.5 59.5 47.75 64 41.25 M0 23.15 L0 5.65 Q3.65 6.95 7.35 7.7 5.7 13.9 2.75 19 L0 23.15 M58.95 17 L55 13.25 51.25 17.2 55.2 20.95 58.95 17 M35.4 37.15 L37.3 32 32.2 30.05 30.25 35.15 35.4 37.15 M13.4 53 L9.05 49.85 5.85 54.2 10.25 57.4 13.4 53 M24.1 41.2 L22.55 36.55 17.95 38.15 19.5 42.75 24.1 41.2"/>
    <path stroke="none" fill="#E9DFB3" d="M24.1 41.2 L19.5 42.75 17.95 38.15 22.55 36.55 24.1 41.2 M64 23.15 L64 41.25 Q59.5 47.75 56.75 56.5 55.75 60.5 54.2 64 L10.25 64 Q19.2 44.3 39.6 39.25 L39.55 39.2 Q55.65 34.2 64 23.15 M0 41.25 L0 23.15 2.75 19 Q5.7 13.9 7.35 7.7 17.05 9.55 26.85 7.25 L27.1 7.15 27.25 7.1 27.65 7 28.55 6.75 28.7 6.7 29 6.65 29.35 6.55 29.55 6.5 29.95 6.35 30.15 6.3 30.35 6.25 30.55 6.2 30.9 6.05 31.1 6 31.45 5.85 31.65 5.8 32 5.65 Q39.5 2.95 47 2.75 L49 2.75 52.75 3 52.05 4.2 Q43.75 18.65 24.6 24.55 L24.65 24.6 Q8.9 28.5 0 41.25 M58.95 17 L55.2 20.95 51.25 17.2 55 13.25 58.95 17 M35.4 37.15 L30.25 35.15 32.2 30.05 37.3 32 35.4 37.15 M13.4 53 L10.25 57.4 5.85 54.2 9.05 49.85 13.4 53"/>
    <path stroke="none" fill="#E5DBB0" d="M0 2 Q7.5 0.15 15 0 L17 0 Q24.5 0.15 32 2 16 6 0 2"/>
  </g>
</svg>