<svg width="64" height="64" xmlns="http://www.w3.org/2000/svg" xmlns:xlink="http://www.w3.org/1999/xlink">
  <defs/>
  <g>
    <path stroke="none" fill="#C48647" d="M51.65 4.9 Q57.8 6.25 64 8.5 L64 23.15 Q55.65 34.2 39.55 39.2 L39.6 39.25 Q19.2 44.3 10.25 64 L0 64 0 41.25 Q8.9 28.5 24.65 24.6 L24.6 24.55 Q43.3 18.8 51.65 4.9 M0 8.5 Q3.95 7.1 7.9 6.05 L7.45 7.3 Q5.8 13.75 2.75 19 L0 23.15 0 8.5 M45.65 34.4 L47.55 29.25 42.45 27.3 40.5 32.4 45.65 34.4 M34.15 24.8 L29.95 28.25 33.4 32.45 37.65 29 34.15 24.8 M64 41.25 L64 64 54.2 64 Q55.75 60.5 56.75 56.5 59.5 47.75 64 41.25 M9 54.75 L7.45 50.1 2.85 51.7 4.4 56.3 9 54.75"/>
    <path stroke="none" fill="#BB7F43" d="M9 54.75 L4.4 56.3 2.85 51.7 7.45 50.1 9 54.75 M51.65 4.9 Q43.3 18.8 24.6 24.55 L24.65 24.6 Q8.9 28.5 0 41.25 L0 23.15 2.75 19 Q5.8 13.75 7.45 7.3 L7.9 6.05 8.4 5.9 13.15 4.75 18.25 3.85 27.75 2.85 28.15 2.85 28.5 2.8 28.85 2.8 29.2 2.75 29.55 2.75 30 2.75 34 2.75 Q42.8 2.95 51.65 4.9 M10.25 64 Q19.2 44.3 39.6 39.25 L39.55 39.2 Q55.65 34.2 64 23.15 L64 41.25 Q59.5 47.75 56.75 56.5 55.75 60.5 54.2 64 L10.25 64 M34.15 24.8 L37.65 29 33.4 32.45 29.95 28.25 34.15 24.8 M45.65 34.4 L40.5 32.4 42.45 27.3 47.55 29.25 45.65 34.4"/>
    <path stroke="none" fill="#D7914B" d="M64 8.5 Q57.8 6.25 51.65 4.9 42.8 2.95 34 2.75 L30 2.75 29.55 2.75 29.2 2.75 28.85 2.8 28.5 2.8 28.15 2.85 27.75 2.85 18.25 3.85 13.15 4.75 8.4 5.9 7.9 6.05 Q3.95 7.1 0 8.5 L0 4 Q15 0.25 30 0 L34 0 Q49 0.25 64 4 L64 8.5"/>
  </g>
</svg>