<svg width="64" height="64" xmlns="http://www.w3.org/2000/svg" xmlns:xlink="http://www.w3.org/1999/xlink">
  <defs/>
  <g>
    <path stroke="none" fill="#D7914B" d="M0 5.65 L0 2 Q16 6 32 2 39.5 0.15 47 0 L49 0 Q56.5 0.15 64 2 L64 5.65 Q58.35 3.6 52.75 3 L49 2.75 47 2.75 Q39.5 2.95 32 5.65 L30.5 6.2 29.95 6.35 29.7 6.45 29.45 6.5 29.2 6.6 28.7 6.75 28.05 6.9 27.8 6.95 27.55 7.05 27.35 7.1 27.1 7.15 Q22.1 8.35 17.2 8.5 L16.9 8.5 16.35 8.5 7.35 7.7 Q3.7 6.95 0 5.65"/>
    <path stroke="none" fill="#C48647" d="M0 5.65 Q3.7 6.95 7.35 7.7 5.7 13.9 2.75 19 L0 23.15 0 5.65 M52.75 3 Q58.35 3.6 64 5.65 L64 23.15 Q55.65 34.2 39.55 39.2 L39.6 39.25 Q19.2 44.3 10.25 64 L0 64 0 41.25 Q8.9 28.5 24.65 24.6 L24.6 24.55 Q43.75 18.65 52.05 4.2 L52.75 3 M64 41.25 L64 64 54.2 64 Q55.75 60.5 56.75 56.5 59.5 47.75 64 41.25 M47.2 17.05 L45.25 22.15 50.4 24.15 52.3 19 47.2 17.05 M8.6 46.95 L10.15 51.55 14.75 50 13.2 45.35 8.6 46.95"/>
    <path stroke="none" fill="#BB7F43" d="M8.6 46.95 L13.2 45.35 14.75 50 10.15 51.55 8.6 46.95 M7.35 7.7 L16.35 8.5 16.9 8.5 17.2 8.5 Q22.1 8.35 27.1 7.15 L27.35 7.1 27.55 7.05 27.8 6.95 28.05 6.9 28.7 6.75 29.2 6.6 29.45 6.5 29.7 6.45 29.95 6.35 30.5 6.2 32 5.65 Q39.5 2.95 47 2.75 L49 2.75 52.75 3 52.05 4.2 Q43.75 18.65 24.6 24.55 L24.65 24.6 Q8.9 28.5 0 41.25 L0 23.15 2.75 19 Q5.7 13.9 7.35 7.7 M64 23.15 L64 41.25 Q59.5 47.75 56.75 56.5 55.75 60.5 54.2 64 L10.25 64 Q19.2 44.3 39.6 39.25 L39.55 39.2 Q55.65 34.2 64 23.15 M47.2 17.05 L52.3 19 50.4 24.15 45.25 22.15 47.2 17.05"/>
  </g>
</svg>