<svg width="64" height="64" xmlns="http://www.w3.org/2000/svg" xmlns:xlink="http://www.w3.org/1999/xlink">
  <defs/>
  <g>
    <path stroke="none" fill="#A16D39" d="M0 6 L0 4 Q8 2 16 1 L30 0 34 0 48.05 1 Q56 2 64 4 L64 6 Q49 2.25 34 2 L30 2 Q15 2.25 0 6"/>
    <path stroke="none" fill="#D7914B" d="M0 6 Q15 2.25 30 2 L34 2 Q49 2.25 64 6 L64 10.5 Q57.8 8.25 51.65 6.9 L50.55 6.65 Q42.25 4.95 34 4.75 L30 4.75 25.45 5 25.1 5 24.5 5.05 23.95 5.1 23.65 5.15 23.1 5.2 22.8 5.2 22.5 5.25 8.8 7.8 8.3 7.95 7.2 8.25 Q3.6 9.2 0 10.5 L0 6"/>
    <path stroke="none" fill="#C48647" d="M64 10.5 L64 23.15 Q55.65 34.2 39.55 39.2 L39.6 39.25 Q20.25 44.05 11.2 62 L10.25 64 0 64 0 41.25 Q8.9 28.5 24.65 24.6 L24.6 24.55 Q42.1 19.15 50.55 6.65 L51.65 6.9 Q57.8 8.25 64 10.5 M64 41.25 L64 64 54.2 64 55.05 62 56.75 56.5 Q59.5 47.75 64 41.25 M0 23.15 L0 10.5 Q3.6 9.2 7.2 8.25 5.6 14.15 2.75 19 L0 23.15 M55 13.25 L51.25 17.2 55.2 20.95 58.95 17 55 13.25 M30.25 35.15 L35.4 37.15 37.3 32 32.2 30.05 30.25 35.15 M5.85 54.2 L10.25 57.4 13.4 53 9.05 49.85 5.85 54.2 M24.1 41.2 L22.55 36.55 17.95 38.15 19.5 42.75 24.1 41.2"/>
    <path stroke="none" fill="#BB7F43" d="M24.1 41.2 L19.5 42.75 17.95 38.15 22.55 36.55 24.1 41.2 M64 23.15 L64 41.25 Q59.5 47.75 56.75 56.5 L55.05 62 54.2 64 10.25 64 11.2 62 Q20.25 44.05 39.6 39.25 L39.55 39.2 Q55.65 34.2 64 23.15 M0 41.25 L0 23.15 2.75 19 Q5.6 14.15 7.2 8.25 L8.3 7.95 8.8 7.8 22.5 5.25 22.8 5.2 23.1 5.2 23.65 5.15 23.95 5.1 24.5 5.05 25.1 5 25.45 5 30 4.75 34 4.75 Q42.25 4.95 50.55 6.65 42.1 19.15 24.6 24.55 L24.65 24.6 Q8.9 28.5 0 41.25 M55 13.25 L58.95 17 55.2 20.95 51.25 17.2 55 13.25 M30.25 35.15 L32.2 30.05 37.3 32 35.4 37.15 30.25 35.15 M5.85 54.2 L9.05 49.85 13.4 53 10.25 57.4 5.85 54.2"/>
  </g>
</svg>