<svg width="64" height="64" xmlns="http://www.w3.org/2000/svg" xmlns:xlink="http://www.w3.org/1999/xlink">
  <defs/>
  <g>
    <path stroke="none" fill="#CBC29C" d="M0 6 L0 4 Q8 2 16 1 L30 0 34 0 48.05 1 Q56 2 64 4 L64 6 Q49 2.25 34 2 L30 2 Q15 2.25 0 6"/>
    <path stroke="none" fill="#F7EDBE" d="M0 6 Q32 14 64 6 L64 10.5 Q54.4 13.95 44.85 15.35 L42.15 15.7 Q24.35 17.7 6.5 12.6 L5.85 12.4 0 10.5 0 6"/>
    <path stroke="none" fill="#EEE4B7" d="M64 10.5 L64 23.15 Q55.65 34.2 39.55 39.2 L39.6 39.25 Q20.25 44.05 11.2 62 L10.25 64 0 64 0 41.25 Q8.9 28.5 24.65 24.6 L24.6 24.55 Q34.95 21.4 42.15 15.7 L44.85 15.35 Q54.4 13.95 64 10.5 M64 41.25 L64 64 54.2 64 55.05 62 56.75 56.5 Q59.5 47.75 64 41.25 M0 23.15 L0 10.5 5.85 12.4 Q4.55 15.9 2.75 19 L0 23.15 M45.25 22.15 L50.4 24.15 52.3 19 47.2 17.05 45.25 22.15 M14.75 50 L13.2 45.35 8.6 46.95 10.15 51.55 14.75 50"/>
    <path stroke="none" fill="#E9DFB3" d="M14.75 50 L10.15 51.55 8.6 46.95 13.2 45.35 14.75 50 M64 23.15 L64 41.25 Q59.5 47.75 56.75 56.5 L55.05 62 54.2 64 10.25 64 11.2 62 Q20.25 44.05 39.6 39.25 L39.55 39.2 Q55.65 34.2 64 23.15 M0 41.25 L0 23.15 2.75 19 Q4.55 15.9 5.85 12.4 L6.5 12.6 Q24.35 17.7 42.15 15.7 34.95 21.4 24.6 24.55 L24.65 24.6 Q8.9 28.5 0 41.25 M45.25 22.15 L47.2 17.05 52.3 19 50.4 24.15 45.25 22.15"/>
    <path stroke="none" fill="#E5DBB0" d="M0 6 Q15 2.25 30 2 L34 2 Q49 2.25 64 6 32 14 0 6"/>
  </g>
</svg>