<svg width="64" height="64" xmlns="http://www.w3.org/2000/svg" xmlns:xlink="http://www.w3.org/1999/xlink">
  <defs/>
  <g>
    <path stroke="none" fill="#CBC29C" d="M0 4 L0 2 Q16 6 32 2 L36.75 1 47 0 49 0 59.25 1 64 2 64 4 Q56.5 2.15 49 2 L47 2 Q39.5 2.15 32 4 16 8 0 4"/>
    <path stroke="none" fill="#F7EDBE" d="M0 4 Q16 8 32 4 39.5 2.15 47 2 L49 2 Q56.5 2.15 64 4 L64 7.65 Q58.35 5.6 52.75 5 L51.65 4.9 49 4.75 47 4.75 Q39.5 4.95 32 7.65 L30.5 8.2 29.95 8.35 29.7 8.45 29.45 8.5 29.2 8.6 28.7 8.75 28.05 8.9 27.8 8.95 27.55 9.05 27.35 9.1 27.1 9.15 Q22.1 10.35 17.2 10.5 L16.9 10.5 16.35 10.5 7.35 9.7 6.8 9.6 0 7.65 0 4"/>
    <path stroke="none" fill="#E9DFB3" d="M64 23.15 L64 41.25 Q59.5 47.75 56.75 56.5 L55.05 62 54.2 64 10.25 64 11.2 62 Q20.25 44.05 39.6 39.25 L39.55 39.2 Q55.65 34.2 64 23.15 M0 41.25 L0 23.15 2.75 19 Q5.25 14.7 6.8 9.6 L7.35 9.7 16.35 10.5 16.9 10.5 17.2 10.5 Q22.1 10.35 27.1 9.15 L27.35 9.1 27.55 9.05 27.8 8.95 28.05 8.9 28.7 8.75 29.2 8.6 29.45 8.5 29.7 8.45 29.95 8.35 30.5 8.2 32 7.65 Q39.5 4.95 47 4.75 L49 4.75 51.65 4.9 Q43.3 18.8 24.6 24.55 L24.65 24.6 Q8.9 28.5 0 41.25 M52.3 19 L50.4 24.15 45.25 22.15 47.2 17.05 52.3 19 M14.75 50 L10.15 51.55 8.6 46.95 13.2 45.35 14.75 50"/>
    <path stroke="none" fill="#EEE4B7" d="M14.75 50 L13.2 45.35 8.6 46.95 10.15 51.55 14.75 50 M64 7.65 L64 23.15 Q55.65 34.2 39.55 39.2 L39.6 39.25 Q20.25 44.05 11.2 62 L10.25 64 0 64 0 41.25 Q8.9 28.5 24.65 24.6 L24.6 24.55 Q43.3 18.8 51.65 4.9 L52.75 5 Q58.35 5.6 64 7.65 M64 41.25 L64 64 54.2 64 55.05 62 56.75 56.5 Q59.5 47.75 64 41.25 M0 23.15 L0 7.65 6.8 9.6 Q5.25 14.7 2.75 19 L0 23.15 M52.3 19 L47.2 17.05 45.25 22.15 50.4 24.15 52.3 19"/>
  </g>
</svg>