<svg width="64" height="64" xmlns="http://www.w3.org/2000/svg" xmlns:xlink="http://www.w3.org/1999/xlink">
  <defs/>
  <g>
    <path stroke="none" fill="#BB7F43" d="M6 12 Q19 17.85 32 8.5 39.5 3.1 47 2.75 L49 2.75 51.9 3.1 52.45 3.2 52.65 3.25 52.05 4.2 Q43.75 18.65 24.6 24.55 L24.65 24.6 Q8.9 28.5 0 41.25 L0 23.15 2.75 19 Q4.65 15.75 6 12 M50.4 31.9 L45.25 29.9 47.2 24.8 52.3 26.75 50.4 31.9 M42.75 30.95 L38.5 34.4 35.05 30.2 39.25 26.75 42.75 30.95 M64 23.15 L64 41.25 Q59.5 47.75 56.75 56.5 55.75 60.5 54.2 64 L10.25 64 Q19.2 44.3 39.6 39.25 L39.55 39.2 Q55.65 34.2 64 23.15 M55 13.25 L58.95 17 55.2 20.95 51.25 17.2 55 13.25 M13.2 45.35 L14.75 50 10.15 51.55 8.6 46.95 13.2 45.35 M9.05 35.2 L13.4 38.35 10.25 42.75 5.85 39.55 9.05 35.2"/>
    <path stroke="none" fill="#D7914B" d="M52.65 3.25 L52.45 3.2 51.9 3.1 49 2.75 47 2.75 Q39.5 3.1 32 8.5 19 17.85 6 12 3 10.65 0 8.5 L0 4 Q16 12 32 4 39.5 0.25 47 0 L49 0 53.95 0.55 Q59 1.5 64 4 L64 8.5 Q58.35 4.4 52.65 3.25"/>
    <path stroke="none" fill="#C48647" d="M52.65 3.25 Q58.35 4.4 64 8.5 L64 23.15 Q55.65 34.2 39.55 39.2 L39.6 39.25 Q19.2 44.3 10.25 64 L0 64 0 41.25 Q8.9 28.5 24.65 24.6 L24.6 24.55 Q43.75 18.65 52.05 4.2 L52.65 3.25 M6 12 Q4.65 15.75 2.75 19 L0 23.15 0 8.5 Q3 10.65 6 12 M42.75 30.95 L39.25 26.75 35.05 30.2 38.5 34.4 42.75 30.95 M50.4 31.9 L52.3 26.75 47.2 24.8 45.25 29.9 50.4 31.9 M64 41.25 L64 64 54.2 64 Q55.75 60.5 56.75 56.5 59.5 47.75 64 41.25 M55 13.25 L51.25 17.2 55.2 20.95 58.95 17 55 13.25 M9.05 35.2 L5.85 39.55 10.25 42.75 13.4 38.35 9.05 35.2 M13.2 45.35 L8.6 46.95 10.15 51.55 14.75 50 13.2 45.35"/>
  </g>
</svg>