<svg width="64" height="64" xmlns="http://www.w3.org/2000/svg" xmlns:xlink="http://www.w3.org/1999/xlink">
  <defs/>
  <g>
    <path stroke="none" fill="#A16D39" d="M0 6 L0 4 Q16 12 32 4 36 2 40 1 43.5 0.1 47 0 L49 0 53.95 0.55 56 1 Q60 2 64 4 L64 6 Q59 3.5 53.95 2.55 L49 2 47 2 Q39.5 2.25 32 6 16 14 0 6"/>
    <path stroke="none" fill="#D7914B" d="M0 6 Q16 14 32 6 39.5 2.25 47 2 L49 2 53.95 2.55 Q59 3.5 64 6 L64 10.5 Q58.35 6.4 52.65 5.25 L52.45 5.2 51.9 5.1 51.55 5.05 49 4.75 47 4.75 Q39.5 5.1 32 10.5 19 19.85 6 14 L5.35 13.7 Q2.7 12.4 0 10.5 L0 6"/>
    <path stroke="none" fill="#C48647" d="M64 10.5 L64 23.15 Q55.65 34.2 39.55 39.2 L39.6 39.25 Q20.25 44.05 11.2 62 L10.25 64 0 64 0 41.25 Q8.9 28.5 24.65 24.6 L24.6 24.55 Q43.2 18.8 51.55 5.05 L51.9 5.1 52.45 5.2 52.65 5.25 Q58.35 6.4 64 10.5 M64 41.25 L64 64 54.2 64 55.05 62 56.75 56.5 Q59.5 47.75 64 41.25 M0 23.15 L0 10.5 Q2.7 12.4 5.35 13.7 L2.75 19 0 23.15 M55.2 20.95 L58.95 17 55 13.25 51.25 17.2 55.2 20.95 M42.75 30.95 L39.25 26.75 35.05 30.2 38.5 34.4 42.75 30.95 M45.25 29.9 L50.4 31.9 52.3 26.75 47.2 24.8 45.25 29.9 M5.85 39.55 L10.25 42.75 13.4 38.35 9.05 35.2 5.85 39.55 M13.2 45.35 L8.6 46.95 10.15 51.55 14.75 50 13.2 45.35"/>
    <path stroke="none" fill="#BB7F43" d="M13.2 45.35 L14.75 50 10.15 51.55 8.6 46.95 13.2 45.35 M64 23.15 L64 41.25 Q59.5 47.75 56.75 56.5 L55.05 62 54.2 64 10.25 64 11.2 62 Q20.25 44.05 39.6 39.25 L39.55 39.2 Q55.65 34.2 64 23.15 M0 41.25 L0 23.15 2.75 19 5.35 13.7 6 14 Q19 19.85 32 10.5 39.5 5.1 47 4.75 L49 4.75 51.55 5.05 Q43.2 18.8 24.6 24.55 L24.65 24.6 Q8.9 28.5 0 41.25 M45.25 29.9 L47.2 24.8 52.3 26.75 50.4 31.9 45.25 29.9 M42.75 30.95 L38.5 34.4 35.05 30.2 39.25 26.75 42.75 30.95 M55.2 20.95 L51.25 17.2 55 13.25 58.95 17 55.2 20.95 M5.85 39.55 L9.05 35.2 13.4 38.35 10.25 42.75 5.85 39.55"/>
  </g>
</svg>